<svg width="800" height="800" viewBox="0 0 800 800" fill="none" xmlns="http://www.w3.org/2000/svg">
<g clip-path="url(#clip0_1_319)">
<path d="M800 0V675.438C770.078 673.768 737.969 726.167 710.703 717.19C654.453 698.715 674.844 616.568 638.828 600.494C575.234 571.894 592.188 706.335 494.688 745.268C387.813 774.286 304.453 650.179 283.203 730.655C267.188 791.404 235.781 819.064 173.203 785.663C104.688 749.13 100 680.866 0 752.679V0H800Z" fill="#226679"/>
<path d="M0 305.4C44.2 325 66 320.2 76 301.1C86.6 280.7 83.1 244.1 79.2 204.3C75 161 70.4 113.9 83.4 80.4C100.4 36.3 148.3 15.9 269.1 59.4C301.9 71.3 336.1 81.4 370.6 89C452.8 107.1 536.7 110.8 608 89.3C659.3 73.9 704 45.4 737.1 0" stroke="#FACC15" stroke-width="5" stroke-miterlimit="10"/>
<path d="M493.9 382.8C491.3 382.8 489.2 380.7 489.2 378.1V333.5C489.2 330.9 491.3 328.8 493.9 328.8H511.4C523.6 328.8 533.6 338.7 533.6 351C533.6 353.6 531.5 355.7 528.9 355.7C526.3 355.7 524.2 353.6 524.2 351C524.2 343.9 518.5 338.2 511.4 338.2H498.6V378C498.6 380.7 496.4 382.8 493.9 382.8Z" fill="white"/>
<path d="M577.3 533.9H502.2C499.6 533.9 497.5 531.8 497.5 529.2C497.5 526.6 499.6 524.5 502.2 524.5H573.5C574.3 521.1 575.7 515.7 577.6 509.6C587.5 478.7 593 446.4 593.9 413.5C594 411 596.1 408.9 598.6 408.9C598.7 408.9 598.7 408.9 598.7 408.9C601.3 409 603.3 411.1 603.3 413.8C602.5 447.7 596.8 480.9 586.6 512.6C583.4 522.3 582 530.2 581.9 530.2C581.5 532.4 579.5 533.9 577.3 533.9Z" fill="white"/>
<path d="M465.1 533.9C462.9 533.9 460.9 532.3 460.5 530C460.4 529.7 454.7 498.4 434.5 475.9C429 469.8 423.8 462.6 419.1 454.7C408 436.1 402.2 414.7 402.2 392.6C402.2 378.6 413.6 367.2 427.6 367.2C438 367.2 447.7 373.7 451.3 383.6L454.3 391.1V287.2C454.3 275 464.2 265 476.5 265C488.7 265 498.7 274.9 498.7 287.2V333.6C498.7 336.2 496.6 338.3 494 338.3C491.4 338.3 489.3 336.2 489.3 333.6V287.2C489.3 280.1 483.6 274.4 476.5 274.4C469.4 274.4 463.7 280.1 463.7 287.2V416.6C463.7 418.9 462.1 420.8 459.8 421.2C457.6 421.6 455.4 420.4 454.5 418.2L442.6 386.8C440.3 380.7 434.3 376.6 427.7 376.6C418.9 376.6 411.8 383.8 411.8 392.5C411.8 412.9 417.2 432.6 427.4 449.7C431.8 457.2 436.7 463.7 441.8 469.4C464 494.1 469.9 526.9 470.1 528.3C470.5 530.8 468.8 533.3 466.2 533.8C465.6 533.8 465.4 533.9 465.1 533.9Z" fill="white"/>
<path d="M563.7 411C561.1 411 559 408.9 559 406.3V364C559 356.9 553.3 351.2 546.2 351.2H533.4V391C533.4 393.6 531.3 395.7 528.7 395.7C526.1 395.7 524 393.6 524 391V346.4C524 343.8 526.1 341.7 528.7 341.7H546.2C558.4 341.7 568.4 351.6 568.4 363.9V406.2C568.5 409 566.4 411 563.7 411Z" fill="white"/>
<path d="M598.7 418.2C596.1 418.2 594 416.1 594 413.5V386.4C594 379.3 588.3 373.6 581.2 373.6H563.7C561.1 373.6 559 371.5 559 368.9C559 366.3 561.1 364.2 563.7 364.2H581.2C593.4 364.2 603.4 374.1 603.4 386.4V413.5C603.4 416.2 601.3 418.2 598.7 418.2Z" fill="white"/>
<path d="M587 611.2H451.4C448.8 611.2 446.7 609.1 446.7 606.5V552.8C446.7 550.2 448.8 548.1 451.4 548.1H586.9C589.5 548.1 591.6 550.2 591.6 552.8V606.5C591.7 609.1 589.5 611.2 587 611.2ZM456.1 601.7H582.1V557.4H456.1V601.7Z" fill="white"/>
<path d="M556.8 588.7C551.8 588.7 547.6 584.7 547.6 579.5C547.6 574.5 551.6 570.3 556.8 570.3C561.8 570.3 566 574.3 566 579.5C566 584.6 561.8 588.7 556.8 588.7Z" fill="white"/>
<path d="M413.8 589.3H168.4C153.4 589.3 141.1 577.1 141.1 562V146.7C141.1 131.7 153.3 119.4 168.4 119.4H506.2C521.2 119.4 533.5 131.6 533.5 146.7V303.8C533.5 306.4 531.4 308.5 528.8 308.5C526.2 308.5 524.1 306.4 524.1 303.8V146.7C524.1 136.9 516.1 128.9 506.3 128.9H168.4C158.6 128.9 150.6 136.9 150.6 146.7V562.1C150.6 571.9 158.6 579.9 168.4 579.9H413.8C416.4 579.9 418.5 582 418.5 584.6C418.5 587.3 416.4 589.3 413.8 589.3Z" fill="white"/>
<path d="M296.7 211.5H180.2C177.6 211.5 175.5 209.4 175.5 206.8C175.5 204.2 177.6 202.1 180.2 202.1H296.7C299.3 202.1 301.4 204.2 301.4 206.8C301.4 209.4 299.4 211.5 296.7 211.5Z" fill="white"/>
<path d="M239.9 291.7H180.3C177.7 291.7 175.6 289.6 175.6 287C175.6 284.4 177.7 282.3 180.3 282.3H239.9C242.5 282.3 244.6 284.4 244.6 287C244.6 289.6 242.5 291.7 239.9 291.7Z" fill="white"/>
<path d="M428.2 291.7H370.9C368.3 291.7 366.2 289.6 366.2 287C366.2 284.4 368.3 282.3 370.9 282.3H428.2C430.8 282.3 432.9 284.4 432.9 287C432.9 289.6 430.9 291.7 428.2 291.7Z" fill="white"/>
<path d="M279.8 313.4C269.7 313.4 261.5 305.2 261.5 295.1C261.5 292.5 263.6 290.4 266.2 290.4C268.8 290.4 270.9 292.5 270.9 295.1C270.9 300 274.8 303.9 279.7 303.9C284.6 303.9 288.5 300 288.5 295.1V279C288.5 274.1 284.6 270.2 279.7 270.2C277.1 270.2 275 268.1 275 265.5C275 262.9 277.1 260.8 279.7 260.8C289.8 260.8 298 269 298 279.1V295.2C298 305.1 289.8 313.4 279.8 313.4Z" fill="white"/>
<path d="M331.4 313.4C321.3 313.4 313.1 305.2 313.1 295.1C313.1 292.5 315.2 290.4 317.8 290.4C320.4 290.4 322.5 292.5 322.5 295.1C322.5 300 326.4 303.9 331.3 303.9C336.2 303.9 340.1 300 340.1 295.1V279C340.1 274.1 336.2 270.2 331.3 270.2C328.7 270.2 326.6 268.1 326.6 265.5C326.6 262.9 328.7 260.8 331.3 260.8C341.4 260.8 349.6 269 349.6 279.1V295.2C349.6 305.1 341.5 313.4 331.4 313.4Z" fill="white"/>
<path d="M335.1 233.2C325 233.2 316.8 225 316.8 214.9C316.8 212.3 318.9 210.2 321.5 210.2C324.1 210.2 326.2 212.3 326.2 214.9C326.2 219.8 330.1 223.7 335 223.7C339.9 223.7 343.8 219.8 343.8 214.9V198.8C343.8 193.9 339.9 190 335 190C332.4 190 330.3 187.9 330.3 185.3C330.3 182.7 332.4 180.6 335 180.6C345.1 180.6 353.3 188.8 353.3 198.9V215C353.2 224.9 345.1 233.2 335.1 233.2Z" fill="white"/>
<path d="M386.7 233.2C376.6 233.2 368.4 225 368.4 214.9C368.4 212.3 370.5 210.2 373.1 210.2C375.7 210.2 377.8 212.3 377.8 214.9C377.8 219.8 381.7 223.7 386.6 223.7C391.5 223.7 395.4 219.8 395.4 214.9V198.8C395.4 193.9 391.5 190 386.6 190C384 190 381.9 187.9 381.9 185.3C381.9 182.7 384 180.6 386.6 180.6C396.7 180.6 404.9 188.8 404.9 198.9V215C405 224.9 396.7 233.2 386.7 233.2Z" fill="white"/>
<path d="M438.4 233.2C428.3 233.2 420.1 225 420.1 214.9C420.1 212.3 422.2 210.2 424.8 210.2C427.4 210.2 429.5 212.3 429.5 214.9C429.5 219.8 433.4 223.7 438.3 223.7C443.2 223.7 447.1 219.8 447.1 214.9V198.8C447.1 193.9 443.2 190 438.3 190C435.7 190 433.6 187.9 433.6 185.3C433.6 182.7 435.7 180.6 438.3 180.6C448.4 180.6 456.6 188.8 456.6 198.9V215C456.6 224.9 448.5 233.2 438.4 233.2Z" fill="white"/>
<path d="M245.5 400.6C235.4 400.6 227.2 392.4 227.2 382.3C227.2 379.7 229.3 377.6 231.9 377.6C234.5 377.6 236.6 379.7 236.6 382.3C236.6 387.2 240.5 391.1 245.4 391.1C250.3 391.1 254.2 387.2 254.2 382.3V366.2C254.2 361.3 250.3 357.4 245.4 357.4C242.8 357.4 240.7 355.3 240.7 352.7C240.7 350.1 242.8 348 245.4 348C255.5 348 263.7 356.2 263.7 366.3V382.4C263.7 392.5 255.6 400.6 245.5 400.6Z" fill="white"/>
<path d="M297.2 400.6C287.1 400.6 278.9 392.4 278.9 382.3C278.9 379.7 281 377.6 283.6 377.6C286.2 377.6 288.3 379.7 288.3 382.3C288.3 387.2 292.2 391.1 297.1 391.1C302 391.1 305.9 387.2 305.9 382.3V366.2C305.9 361.3 302 357.4 297.1 357.4C294.5 357.4 292.4 355.3 292.4 352.7C292.4 350.1 294.5 348 297.1 348C307.2 348 315.4 356.2 315.4 366.3V382.4C315.4 392.5 307.2 400.6 297.2 400.6Z" fill="white"/>
<path d="M380.9 379H335.1C332.5 379 330.4 376.9 330.4 374.3C330.4 371.7 332.5 369.6 335.1 369.6H380.9C383.5 369.6 385.6 371.7 385.6 374.3C385.6 376.9 383.4 379 380.9 379Z" fill="white"/>
<path d="M210 379H180.2C177.6 379 175.5 376.9 175.5 374.3C175.5 371.7 177.6 369.6 180.2 369.6H210C212.6 369.6 214.7 371.7 214.7 374.3C214.7 376.9 212.6 379 210 379Z" fill="white"/>
</g>
<defs>
<clipPath id="clip0_1_319">
<rect width="800" height="800" fill="white"/>
</clipPath>
</defs>
</svg>
