<svg width="800" height="800" viewBox="0 0 800 800" fill="none" xmlns="http://www.w3.org/2000/svg">
<g clip-path="url(#clip0_1_187)">
<path d="M800 0V675.438C770.078 673.768 737.969 726.167 710.703 717.19C654.453 698.715 674.844 616.568 638.828 600.494C575.234 571.894 592.188 706.335 494.688 745.268C387.813 774.286 304.453 650.179 283.203 730.655C267.188 791.404 235.781 819.064 173.203 785.663C104.688 749.13 100 680.866 0 752.679V0H800Z" fill="#226679"/>
<path d="M662.8 491.2L660.3 482.4L708.3 468.9C710.4 468.4 711.5 466.2 711 464.2L628.8 169.3C626.6 161.4 618.3 156.7 610.4 158.9L127.7 293.5C119.8 295.7 115.1 304 117.3 311.9L199.5 606.8C200 608.9 202.2 609.9 204.1 609.4L279.4 588.6L287 596.1L206.6 618.4C199.7 620.4 192.6 616.2 190.6 609.4L108.4 314.5C104.8 301.7 112.3 288.3 125.2 284.8L607.8 150.3C620.6 146.7 634 154.2 637.5 167.1L719.7 462C721.7 468.9 717.5 476 710.7 478L662.8 491.2Z" fill="white"/>
<path d="M736.7 546.1L684.4 560.7L699 613L631.1 574.9C634 573.1 636.7 571.2 639.4 569.1L684.2 594.3L673.1 554.4L713 543.3L668.2 518.1C668.7 514.8 668.9 511.5 669 507.9L736.7 546.1Z" fill="white"/>
<path d="M642.4 405.4C644.6 406.6 645.4 409.4 644.2 411.6C643 413.8 640.2 414.6 638 413.4C589.1 385.8 526.8 403.1 499.3 452.1C498.7 453.2 497.6 453.9 496.5 454.3C495.4 454.6 494.1 454.5 493.1 453.9C490.9 452.7 490.1 449.9 491.3 447.7C521.3 394.3 589 375.4 642.4 405.4Z" fill="white"/>
<path d="M667.8 507.2L668.8 507.8C668.8 511.2 668.5 514.5 668 518L663.1 515.3C661.5 514.5 660.7 512.8 660.7 511.3C660.7 510.6 660.9 509.8 661.3 509.1C662.8 506.8 665.6 506 667.8 507.2Z" fill="white"/>
<path d="M661.6 509C661.2 509.7 661.1 510.5 661 511.2L659.7 511.1C660.1 503.5 659.4 495.9 657.2 488.2C646.7 450.8 607.9 428.8 570.4 439.3C533 449.8 511 488.6 521.5 526.1C523.7 533.8 527 540.8 531.2 546.9L530.1 547.7C529.7 547.1 529.2 546.6 528.4 546.1C526.2 544.9 523.3 545.7 522.2 547.9L521.6 548.9C517.8 542.7 514.7 535.8 512.6 528.4C500.8 486.1 525.7 442.1 567.9 430.3C610.2 418.5 654.2 443.4 666 485.6C668.1 493 669 500.4 668.9 507.8L667.9 507.2C665.6 506 662.8 506.8 661.6 509Z" fill="white"/>
<path d="M660.9 511.1C660.9 512.8 661.7 514.3 663.3 515.1L668.2 517.8C665.5 537.8 655 556 639.5 568.8L634.6 566.1C633 565.3 631.3 565.4 629.9 566.2L629.1 565.1C647 552.8 658.3 532.7 659.7 511L660.9 511.1Z" fill="white"/>
<path d="M634.6 566.3L639.5 569C636.9 571.2 634.1 573 631.2 574.8L630.2 574.2C628 573 627.2 570.2 628.4 568C628.8 567.3 629.3 566.8 630 566.3C631.2 565.4 633.1 565.3 634.6 566.3Z" fill="white"/>
<path d="M579.2 470.8C599.2 465.2 619.9 476.9 625.5 496.9C631.1 516.9 619.4 537.6 599.4 543.2C579.4 548.8 558.7 537.1 553.1 517.1C547.5 497.2 559.2 476.4 579.2 470.8ZM616.6 499.3C612.4 484.2 596.7 475.4 581.6 479.5C566.5 483.7 557.7 499.4 561.8 514.5C565.9 529.6 581.7 538.4 596.8 534.3C612 530.2 620.8 514.5 616.6 499.3Z" fill="white"/>
<path d="M608.2 574.9C615.9 572.7 622.9 569.4 629 565.2L629.8 566.3C629.2 566.7 628.7 567.2 628.2 568C627 570.2 627.8 573.1 630 574.2L631 574.8C624.8 578.6 617.9 581.7 610.5 583.8C603.1 585.9 595.7 586.8 588.3 586.7L588.9 585.7C590.1 583.5 589.3 580.6 587.1 579.5C586.4 579.1 585.6 579 584.9 578.9L585 577.6C592.8 577.8 600.5 577 608.2 574.9Z" fill="white"/>
<path d="M587.4 579.4C589.6 580.6 590.4 583.4 589.2 585.6L588.6 586.6C585.2 586.6 581.9 586.3 578.5 585.9L581.2 581C582 579.4 583.7 578.6 585.2 578.6C585.8 578.8 586.6 579 587.4 579.4Z" fill="white"/>
<path d="M588.5 586.7L550.3 654.5L535.7 602L483.3 616.6L521.5 548.8C523.3 551.7 525.2 554.4 527.4 557L502.1 601.8L542 590.7L553.1 630.6L578.3 585.8C581.7 586.4 585.1 586.7 588.5 586.7Z" fill="white"/>
<path d="M531.1 546.9C543.4 564.8 563.5 576.1 585.2 577.5L585.1 578.8C583.4 578.8 581.9 579.6 581.1 581.2L578.4 586.1C558.4 583.4 540.2 572.9 527.4 557.3L530.1 552.4C530.9 550.8 530.8 549.1 530 547.7L531.1 546.9Z" fill="white"/>
<path d="M530 547.7C530.8 549 530.9 550.9 530.1 552.4L527.4 557.3C525.2 554.7 523.3 551.9 521.5 549.1L522.1 548.1C523.3 545.9 526.1 545.1 528.3 546.3C529 546.5 529.6 547 530 547.7Z" fill="white"/>
<path d="M409.3 471.7C410.2 473.7 409.5 476.1 407.5 477L373.6 493.7C373.4 493.8 373.1 493.9 372.9 493.9C371.1 494.4 369.2 493.6 368.3 491.8C367.4 489.8 368.1 487.4 370.1 486.5L404 469.7C405.9 469 408.2 469.7 409.3 471.7Z" fill="white"/>
<path d="M334.4 325.9C335 327.5 334.7 329.3 333.3 330.5L330 333.3C329.9 333.3 329.8 333.2 329.8 333.2C329.7 333.2 329.7 333.2 329.6 333.1C329.5 333.1 329.4 333 329.4 333C329.3 333 329.3 332.9 329.2 332.9C329.1 332.9 329.1 332.9 329 332.8C328.7 332.6 328.6 332.4 328.4 332.1C328.3 332.1 328.3 331.9 328.2 331.9C328.1 331.8 328.1 331.7 328.1 331.6C328.1 331.5 328 331.4 328 331.4C327.9 331.2 327.8 330.9 327.7 330.6V330.5C327.6 330.3 327.6 330.1 327.6 329.8C327.5 327.6 329.3 325.8 331.4 325.8C332.4 325.6 333.4 325.8 334.4 325.9Z" fill="white"/>
<path d="M333.8 324.9C334.1 325.2 334.2 325.5 334.4 325.9C333.4 325.7 332.2 325.6 331.3 325.6C329.1 325.7 327.4 327.5 327.5 329.6C327.5 329.9 327.6 330 327.6 330.3C327.6 330.2 327.4 329.7 327.2 329C327 328.3 326.7 327.3 326.4 326.1L328.4 324.4C329.9 323 332.5 323.3 333.8 324.9Z" fill="white"/>
<path d="M330 333.3L333.3 330.5C334.6 329.4 335.1 327.5 334.4 325.9C334.8 327.5 335.1 328.5 335.1 328.7C335.5 330.8 334.3 332.9 332.1 333.5C331.9 333.6 331.6 333.6 331.4 333.6C331.3 333.6 331.1 333.6 330.9 333.6C330.8 333.6 330.7 333.6 330.6 333.5C330.5 333.5 330.4 333.4 330.2 333.4C330.2 333.3 330.1 333.3 330 333.3Z" fill="white"/>
<path d="M332.2 333.4C334.3 333 335.6 330.8 335.2 328.6C335.1 328.4 334.9 327.4 334.5 325.8C341.8 327.1 348.3 333.9 350.9 343.2C353.8 353.7 350.8 363.7 343.9 368.2C343.7 383 339.3 397.1 331.7 408.4L335.4 417.5C335.1 416.9 334.6 416.3 334.1 415.9C332.2 414.7 329.9 415.3 328.6 417L327.6 418.8L322.8 407.2L324.1 405.4C332.1 394.6 336.3 380.6 336.1 365.7V362.9L338.7 361.9C343.5 360 345.6 352.8 343.6 345.2C341.6 338.2 336.7 333.2 331.9 333.3C331.7 333.5 331.9 333.4 332.2 333.4Z" fill="white"/>
<path d="M322.9 300.8C329.6 311 333.1 321.1 334.5 326C334.3 325.7 334.2 325.3 333.9 325C332.4 323.3 330.1 323.1 328.3 324.5L326.3 326.2C325 322.2 322.6 315.7 318.7 309.1C319.9 308.2 321.2 307.1 322.3 306C323.8 304.5 324 302.3 322.9 300.8Z" fill="white"/>
<path d="M322.9 300.8C324 302.4 323.8 304.6 322.4 305.9C321.2 306.9 320 308 318.8 309C317.5 306.8 316.1 304.5 314.4 302.4C315.3 301.7 316.2 300.9 317.1 300.1C318.8 298.6 321.2 298.8 322.7 300.3C322.6 300.5 322.7 300.6 322.9 300.8Z" fill="white"/>
<path d="M330.7 333.4C330.8 333.4 330.8 333.4 331 333.5C330.8 333.5 330.8 333.4 330.7 333.4Z" fill="white"/>
<path d="M330.4 333.3C330.5 333.3 330.6 333.4 330.8 333.4C330.6 333.4 330.5 333.4 330.4 333.3Z" fill="white"/>
<path d="M330 333.3C330.1 333.3 330.2 333.4 330.4 333.4C330.2 333.3 330.1 333.3 330 333.3Z" fill="white"/>
<path d="M329.8 333.2C329.9 333.2 330 333.3 330 333.3C329.9 333.2 329.8 333.2 329.8 333.2Z" fill="white"/>
<path d="M330 333.3L323.3 339L321.1 331.1C321.1 331 321 330.9 321 330.7L326.4 326.1C326.8 327.2 327.1 328.3 327.2 329C327.4 329.7 327.5 330.2 327.6 330.3V330.4C327.7 330.7 327.8 330.9 327.9 331.2C327.9 331.3 328 331.4 328 331.4C328 331.5 328.1 331.6 328.1 331.7C328.2 331.7 328.2 331.9 328.3 331.9C328.5 332.2 328.7 332.4 328.9 332.6C328.9 332.7 329 332.6 329.1 332.7C329.2 332.7 329.2 332.7 329.3 332.8C329.4 332.8 329.5 332.9 329.5 332.9C329.6 332.9 329.7 333 329.7 333C329.8 333.2 329.9 333.2 330 333.3Z" fill="white"/>
<path d="M329.5 333C329.6 333 329.7 333.1 329.7 333.1C329.7 333.1 329.6 333.1 329.5 333Z" fill="white"/>
<path d="M329.2 332.8C329.3 332.8 329.3 332.9 329.4 332.9C329.3 332.9 329.2 332.9 329.2 332.8Z" fill="white"/>
<path d="M329 332.7C329.1 332.7 329.1 332.7 329.2 332.8C329 332.8 329 332.8 329 332.7Z" fill="white"/>
<path d="M328.1 331.8C328.2 331.8 328.2 332 328.3 332C328.2 332 328.1 331.9 328.1 331.8Z" fill="white"/>
<path d="M327.9 331.6C327.9 331.7 328 331.8 328 331.9C328 331.7 328 331.7 327.9 331.6Z" fill="white"/>
<path d="M327.8 331.3C327.8 331.4 327.9 331.5 327.9 331.5C327.9 331.5 327.8 331.4 327.8 331.3Z" fill="white"/>
<path d="M314.3 302.3C316 304.5 317.4 306.7 318.7 308.9C312.6 313.8 305.6 317.2 297.5 319.5C294.8 320.2 291.9 320.8 288.8 321.4C278.1 323.2 268.4 321.4 259 319.6C256.5 319.1 253.9 318.7 251.4 318.3C241.8 316.7 234.4 317.9 229.3 321.4C225.7 324 223 327.8 222.3 331.8C222.5 326.3 223.3 320.4 225.3 314.7C232 310.1 241.3 308.7 252.7 310.5C255.3 310.9 257.9 311.3 260.5 311.8C269.7 313.5 278.4 315 287.8 313.6C298.5 311.9 307 308.3 314.3 302.3Z" fill="white"/>
<path d="M321.1 331.1L323.3 339L321.3 340.7C320.9 341.1 320.4 341.3 319.8 341.4C318.3 341.8 316.7 341.4 315.7 340.2C315.3 339.8 315.1 339.3 315 338.7C314.6 337.2 315 335.6 316.2 334.6L320.9 330.7C321 330.7 321 330.8 321.1 331.1Z" fill="white"/>
<path d="M321 330.6L316.3 334.5C315.1 335.5 314.6 337.1 315.1 338.6L314.4 336.1L291.4 342.5L292.3 345.9C291.7 343.8 289.5 342.6 287.4 343.2L283.6 344.2L282.9 341.6C282.2 339.1 283.7 336.4 286.2 335.7L315.1 327.6C317.5 327.1 320 328.4 321 330.6Z" fill="white"/>
<path d="M317.6 348.1L314.9 338.6C315 339.1 315.3 339.6 315.6 340.1C316.6 341.3 318.2 341.8 319.7 341.3C320.2 341.2 320.7 340.9 321.2 340.6L323.2 338.9L326 348.8C326.7 351.3 325.2 354 322.7 354.7L293.8 362.8C291.3 363.5 288.6 362 287.9 359.5L285.7 351.7L289.5 350.7C291.6 350.1 292.8 347.9 292.2 345.8L294.6 354.3L317.6 348.1Z" fill="white"/>
<path d="M336.7 421.3C337.2 422.5 338.3 423.6 339.6 424C340 424.1 340.5 424.3 341.2 424.3L383 424.8C388.8 424.5 395.1 425.8 402 428.8C412.5 433.5 421.2 441.8 426.4 452L449.9 498.3L381.8 533.4C381.6 533.5 381.3 533.6 381.1 533.7C379.3 534.2 377.4 533.4 376.5 531.7C375.5 529.8 376.3 527.5 378.3 526.4L439.4 494.8L419.4 455.4C415 446.7 407.7 439.8 398.8 435.8C393.2 433.3 388 432.2 383.5 432.5H383L341.1 432.1C339.8 432.1 338.4 431.9 337.3 431.5C334.9 430.8 332.8 429.2 331.4 427.3L335.1 421.4C335.7 420.4 335.9 419.1 335.5 418L336.7 421.3Z" fill="white"/>
<path d="M335.4 418C335.8 419.1 335.6 420.3 335 421.4L331.3 427.3C330.6 426.4 330 425.3 329.5 424.3L327.3 418.9L328.3 417.1C329.5 415.2 331.9 414.7 333.8 416C334.4 416.4 334.9 417 335.1 417.6V417.7L335.4 418Z" fill="white"/>
<path d="M335.4 418L335.2 417.7C335.3 417.8 335.4 417.9 335.4 418Z" fill="white"/>
<path d="M365.2 547.6C365.8 548.8 365.8 550.2 365.1 551.3L346.6 584.7C347.6 582.8 347 580.5 345.1 579.4L341.6 577.4L357.2 549.4L320.3 476.9L325 468.8L365.2 547.6Z" fill="white"/>
<path d="M331.2 427.3L311.2 458.6C310.7 459.4 309.9 460.1 308.9 460.3C307.9 460.5 306.9 460.5 306.1 460.1L272.8 443.7C273 442.6 272.9 441.3 272.8 440.2L271.9 434.5L306.4 451.5L327.1 419.1L329.3 424.5C329.9 425.3 330.4 426.4 331.2 427.3Z" fill="white"/>
<path d="M287.4 343.2C289.5 342.6 291.6 343.8 292.3 345.9C293 348 291.7 350.1 289.6 350.8L285.8 351.8L283.7 344.2L287.4 343.2Z" fill="white"/>
<path d="M324.1 466.8L325 468.8L320.3 476.9L317 470.5C316.4 469.3 316.4 467.9 317 466.9C317 466.9 317 466.9 317 466.8C317.4 466.2 317.9 465.6 318.7 465.1C320.8 464 323.1 464.7 324.1 466.8Z" fill="white"/>
<path d="M324.1 466.8C323.2 464.8 320.8 464.1 318.8 465C318.1 465.3 317.5 465.9 317.1 466.7L323.5 455.6C324.6 453.7 327 453 328.9 454.1C330.8 455.2 331.5 457.6 330.4 459.5L325 468.7L324.1 466.8Z" fill="white"/>
<path d="M283.597 344.242L270.593 347.867L272.714 355.477L285.718 351.852L283.597 344.242Z" fill="white"/>
<path d="M307.3 473C307.2 471.7 306.5 470.5 305.4 469.9L312.9 474L317.1 466.6C316.5 467.7 316.4 469.1 317.1 470.2L320.4 476.6L317.7 481.2C317.2 482.1 316.2 482.8 315.3 483.1C314.4 483.4 313.3 483.2 312.3 482.8L307.6 480.3L307.3 473Z" fill="white"/>
<path d="M346.1 585.3C346 585.5 345.7 585.7 345.6 585.8C345.7 585.6 345.9 585.4 346.1 585.3Z" fill="white"/>
<path d="M345.5 585.7C345.1 586 344.7 586.2 344.2 586.3C343.3 586.6 342.2 586.4 341.2 586C339.3 585 338.7 582.6 339.7 580.7L341.7 577.2L345.2 579.2C347.1 580.2 347.7 582.6 346.7 584.5C346.6 584.7 346.4 585 346.2 585.2C345.9 585.4 345.7 585.6 345.5 585.7Z" fill="white"/>
<path d="M341.7 577.4L339.7 580.9C338.7 582.8 339.3 585.1 341.2 586.2L308 567.2C306.9 566.6 306.1 565.3 306 564.1L299.5 475.7L307.7 480.3L313.7 561.4L341.7 577.4Z" fill="white"/>
<path d="M305.3 469.9C306.3 470.5 307.2 471.7 307.2 473L307.7 480.3L299.5 475.7L299.3 473.5C299.2 471.3 300.8 469.5 302.9 469.3C303.9 469.3 304.6 469.5 305.3 469.9Z" fill="white"/>
<path d="M270.6 347.8L272.7 355.4L268.9 356.4C266.8 357 264.7 355.8 264 353.7C263.3 351.6 264.6 349.5 266.7 348.8L270.6 347.8Z" fill="white"/>
<path d="M270 345.3L270.7 347.9L266.9 348.9C264.8 349.5 263.6 351.7 264.2 353.8L263.3 350.4L240.4 356.8L241.1 359.3C240.7 357.8 239.4 356.7 237.9 356.5L231.9 355.6C231.5 353.2 232.8 350.7 235.3 350.1L264.2 342C266.6 341.3 269.3 342.8 270 345.3Z" fill="white"/>
<path d="M303 469.4C300.8 469.5 299.2 471.4 299.4 473.6L299.6 475.8L290.3 470.7C288.3 469.7 287.7 467.3 288.7 465.3C289.7 463.3 292.1 462.7 294.1 463.7L305.4 469.9C304.6 469.5 303.9 469.3 303 469.4Z" fill="white"/>
<path d="M272 434.4L272.9 440.1C273.1 441.2 273.1 442.5 272.9 443.6L266.7 440.5C265.6 440 264.8 438.8 264.5 437.7C264.4 437 264.4 436 264.8 435.2C265.7 433.2 268.1 432.4 270.1 433.3L272 434.4Z" fill="white"/>
<path d="M266.7 440.5L272.9 443.6C272.6 446.1 271.6 448.4 270 450.2C269.1 451.2 268.1 452.1 267 452.7L231.3 474.8C227.2 477 223.2 480.7 219.8 485.7C214.2 493.7 211.6 503.4 212.3 513.1L215.6 557.1L276.6 553C278.8 552.9 280.6 554.6 280.8 556.6C280.9 558.5 279.7 560.2 277.9 560.6C277.7 560.7 277.4 560.7 277.2 560.7L208.4 565.4L204.6 513.6C203.7 502.1 206.9 490.6 213.5 481.2C217.6 475.2 222.5 470.6 227.7 467.9L263.1 445.9C263.5 445.7 263.9 445.4 264.2 444.9C265.1 443.9 265.5 442.4 265.3 441.1L264.7 437.5C264.7 438.8 265.5 439.9 266.7 440.5Z" fill="white"/>
<path d="M241 359.2L243.7 368.7L266.6 362.3L264.2 353.8C264.8 355.9 267 357.1 269.1 356.5L272.9 355.5L275.1 363.3C275.8 365.8 274.3 368.5 271.8 369.2L242.9 377.3C240.4 378 237.7 376.5 237 374L234.2 364.1L236.7 364.5C237.3 364.6 237.8 364.5 238.4 364.4C239.9 364 241 362.7 241.2 361.2C241.2 360.4 241.1 359.8 241 359.2Z" fill="white"/>
<path d="M241 359.2C241.1 359.7 241.2 360.2 241.1 360.9C240.9 362.5 239.8 363.7 238.3 364.1C237.8 364.2 237.3 364.3 236.6 364.2L234.1 363.8L231.9 355.8C231.9 355.7 231.8 355.6 231.8 355.4L237.8 356.3C239.3 356.6 240.6 357.8 241 359.2Z" fill="white"/>
<path d="M224.8 315.1C225 315 225.1 314.9 225.3 314.8C223.3 320.5 222.5 326.4 222.3 331.9C222.3 332 222.3 332 222.2 332.1C221.9 334.3 219.7 335.6 217.6 335.3C215.6 334.9 214.3 333.1 214.4 331.2C214.4 331.1 214.5 330.9 214.5 330.8C215.6 324.6 219.3 319 224.8 315.1Z" fill="white"/>
<path d="M231.7 355.5C231.7 355.6 231.8 355.7 231.8 355.9L234 363.9L225.1 362.6C225.2 362.6 225.1 362.5 225.2 362.5C225.2 362.4 225.3 362.3 225.3 362.3C225.3 362.2 225.4 362.1 225.4 362C225.4 361.9 225.5 361.8 225.5 361.7C225.5 361.6 225.6 361.5 225.6 361.4C225.7 361.1 225.8 360.8 225.7 360.5C225.7 360.2 225.7 359.9 225.6 359.6C225.6 359.5 225.5 359.3 225.5 359.1C225.5 359 225 357.3 224.4 354.5L231.7 355.5Z" fill="white"/>
<path d="M225.3 358.1C225.5 358.5 225.7 358.9 225.8 359.3C225.9 359.6 225.9 359.9 225.9 360.2C225.9 360.5 225.8 360.8 225.8 361.1C225.8 361.2 225.7 361.3 225.7 361.4C225.7 361.5 225.6 361.6 225.6 361.7C225.6 361.8 225.5 361.9 225.5 362C225.5 362.1 225.4 362.2 225.4 362.2C225.4 362.2 225.4 362.3 225.3 362.3L220.9 361.7C219.3 361.5 218.1 360.4 217.7 358.9C217.7 358.8 217.7 358.8 217.6 358.7V358.6C217.6 358.5 217.6 358.5 217.6 358.5C218.3 357.8 219.2 357.2 220.1 356.6C221.8 355.7 224.2 356.3 225.3 358.1Z" fill="white"/>
<path d="M224.5 354.5C225.1 357.3 225.6 359 225.6 359.1C225.7 359.3 225.7 359.4 225.7 359.6C225.6 359.2 225.5 358.7 225.2 358.4C224.1 356.5 221.7 356 219.8 357.2C219 357.7 218 358.3 217.3 359.1C217.2 358.7 217.2 358.3 217.3 357.8C217.6 355.6 219.6 354.2 221.8 354.5H224.5Z" fill="white"/>
<path d="M225.8 360.4C225.8 360.1 225.8 359.8 225.7 359.5C225.9 359.8 225.9 360.1 225.8 360.4Z" fill="white"/>
<path d="M225.8 360.4C225.8 360.7 225.8 361 225.7 361.3C225.7 361 225.8 360.7 225.8 360.4Z" fill="white"/>
<path d="M225.4 361.8C225.4 361.7 225.5 361.6 225.5 361.5C225.5 361.7 225.5 361.8 225.4 361.8Z" fill="white"/>
<path d="M225.3 362.1C225.3 362 225.4 361.9 225.4 361.8C225.4 362 225.4 362.1 225.3 362.1Z" fill="white"/>
<path d="M225.2 362.4C225.2 362.3 225.3 362.2 225.3 362.2C225.3 362.2 225.2 362.3 225.2 362.4Z" fill="white"/>
<path d="M224.3 363.4C224.4 363.4 224.5 363.3 224.5 363.2C224.5 363.3 224.4 363.3 224.3 363.4Z" fill="white"/>
<path d="M214.4 330.7C214.4 330.8 214.3 331 214.3 331.1C214.6 322.4 216.6 312.8 221.3 304C228.4 290.7 240.7 281.5 257.8 276.7C274.9 271.9 290.1 273.4 303 281.2C311.6 286.3 318 293.5 322.8 300.8C322.7 300.7 322.6 300.5 322.5 300.4C321 298.8 318.6 298.7 316.9 300.2C316.1 301 315.2 301.8 314.2 302.5C310.3 297.1 305.2 291.8 298.8 288.1C287.8 281.6 274.7 280.3 259.7 284.5C244.9 288.6 234.2 296.5 228.1 307.9C226.9 310.2 225.8 312.6 225 315C224.8 315.1 224.7 315.2 224.5 315.3C219.3 319 215.6 324.6 214.4 330.7Z" fill="white"/>
<path d="M224.1 363.6C220.1 366.1 218.5 372.8 220.5 379.8C222.6 387.4 228.2 392.5 233.2 391.6L235.9 391.1L237.4 393.5C245 406.3 255.8 416.2 268.3 421.3L270.4 422.1L272.4 434.4L270.5 433.5C268.5 432.6 266.1 433.4 265.2 435.4C264.8 436.2 264.7 437.1 264.9 437.9L263.3 427.8C250.9 422.2 239.9 412.3 232 399.7C223.8 399.5 216 392.4 213.1 382C210.5 372.9 212.5 363.9 217.8 358.9C217.8 359 217.8 359 217.8 359V359.1C217.8 359.2 217.8 359.2 217.9 359.3C218.3 360.6 218.5 361.5 218.5 361.7C219.1 363.7 221.3 364.8 223.3 364.3C223.4 364.3 223.4 364.3 223.5 364.2C223.5 363.8 223.8 363.7 224.1 363.6Z" fill="white"/>
<path d="M214.4 331.2C214.3 333.2 215.6 334.9 217.6 335.3C219.8 335.6 221.8 334.3 222.2 332.1C222.2 332 222.2 332 222.3 331.9C221.9 341.3 223.4 349.6 224.5 354.5L221.9 354.1C219.7 353.8 217.8 355.2 217.4 357.4C217.3 357.9 217.3 358.3 217.4 358.7C216.2 353.8 213.8 343.4 214.4 331.2Z" fill="white"/>
<path d="M220.7 361.9L225.2 362.6C225.1 362.8 224.9 363 224.6 363.2C224.6 363.3 224.4 363.3 224.4 363.4C224.3 363.5 224.2 363.5 224.1 363.6C223.9 363.7 223.6 363.9 223.3 364C223.2 364 223.2 364 223.1 364.1C221 364.6 219 363.6 218.3 361.5C218.2 361.3 218 360.5 217.7 359.1C218 360.6 219.1 361.6 220.7 361.9Z" fill="white"/>
<path d="M217.6 359.1C217.6 359 217.6 359 217.5 358.9C217.6 358.9 217.6 359 217.6 359.1Z" fill="white"/>
<path d="M623.587 278.052L440.464 329.094L442.934 337.956L626.057 286.915L623.587 278.052Z" fill="white"/>
<path d="M630.984 304.652L447.86 355.693L450.331 364.556L633.454 313.514L630.984 304.652Z" fill="white"/>
<path d="M638.687 332.056L455.564 383.098L458.034 391.96L641.157 340.918L638.687 332.056Z" fill="white"/>
<path d="M518.2 531.6L399.5 564.7L402.1 554.5L515.7 522.7L518.2 531.6Z" fill="white"/>
<path d="M453.5 235.3L496.4 287.6L484.3 291L474 278.3L447.5 285.7L445.7 301.8L433.6 305.1L441.6 238.6L453.5 235.3ZM448.6 275.9L467.9 270.5L451.2 249.7L448.6 275.9Z" fill="white"/>
<path d="M497.2 223.1L523.4 241.1L536.5 212.1L546.8 209.2L563.4 268.9L551.9 272.1L540.2 230.2L539.9 230.3L528.5 256.1L526.8 256.6L503.7 240.4L503.4 240.5L515.1 282.4L503.6 285.6L487 226L497.2 223.1Z" fill="white"/>
<path d="M571.3 202.5L585.4 253.1L614.4 245L616.9 254L576.4 265.3L559.8 205.6L571.3 202.5Z" fill="white"/>
<path d="M0 305.4C44.2 325 66 320.2 76 301.1C86.6 280.7 83.1 244.1 79.2 204.3C75 161 70.4 113.9 83.4 80.4C100.4 36.3 148.3 15.9 269.1 59.4C301.9 71.3 336.1 81.4 370.6 89C452.8 107.1 536.7 110.8 608 89.3C659.3 73.9 704 45.4 737.1 0" stroke="#FACC15" stroke-width="5" stroke-miterlimit="10"/>
</g>
<defs>
<clipPath id="clip0_1_187">
<rect width="800" height="800" fill="white"/>
</clipPath>
</defs>
</svg>
