<svg width="800" height="800" viewBox="0 0 800 800" fill="none" xmlns="http://www.w3.org/2000/svg">
<g clip-path="url(#clip0_1_164)">
<path d="M800 0V675.438C770.078 673.768 737.969 726.167 710.703 717.19C654.453 698.715 674.844 616.568 638.828 600.494C575.234 571.894 592.188 706.335 494.688 745.268C387.813 774.286 304.453 650.179 283.203 730.655C267.188 791.404 235.781 819.064 173.203 785.663C104.688 749.13 100 680.866 0 752.679V0H800Z" fill="#226679"/>
<path d="M0 305.4C44.2 325 66 320.2 76 301.1C86.6 280.7 83.1 244.1 79.2 204.3C75 161 70.4 113.9 83.4 80.4C100.4 36.3 148.3 15.9 269.1 59.4C301.9 71.3 336.1 81.4 370.6 89C452.8 107.1 536.7 110.8 608 89.3C659.3 73.9 704 45.4 737.1 0" stroke="#FACC15" stroke-width="5" stroke-miterlimit="10"/>
<path d="M344.1 433.8L380.5 338.3H393.5L430 433.8H416.5L407.1 408.8H366.3L357.4 433.8H344.1ZM370.1 398.1H403.3L388.4 357C388.1 356.3 387.8 355.4 387.6 354.3C387.4 353.3 387.1 351.9 386.9 350.5H386.6C386.4 351.8 386.2 353.1 385.9 354.1C385.7 355.1 385.4 356.1 385.1 356.9L370.1 398.1Z" fill="white"/>
<path d="M543.6 433.8H531.6V370.4C531.6 367.8 531.7 364.9 531.8 361.9C532 358.7 532.2 355.3 532.5 351.7H532.2C531.7 354 531.2 355.8 530.7 357.5C530.2 359.1 529.8 360.4 529.4 361.4L497.6 434H491L459.4 362C459 361 458.5 359.5 458 357.9C457.5 356.3 457.1 354.2 456.6 351.9H456.3C456.5 354.1 456.7 356.7 456.8 359.9C456.9 363.1 456.9 366.8 456.9 371.1V434.1H445.3V338.3H461.6L490 404C491.1 406.5 492.1 408.7 492.8 410.6C493.5 412.6 494 414.2 494.3 415.5H494.7C495.6 412.9 496.5 410.6 497.3 408.6C498 406.6 498.7 405 499.3 403.7L528.2 338.2H543.7V433.8H543.6V433.8Z" fill="white"/>
<path d="M620 433.8H569.8V338.3H581.9V423H620V433.8Z" fill="white"/>
<path d="M435 566.5H415.9L374.3 516.5C373.6 515.6 373 514.7 372.4 514.1C371.9 513.5 371.6 512.9 371.3 512.5H371V566.7H357V456.5H371V508.2H371.3C371.6 507.7 372.1 507.1 372.5 506.3C373 505.7 373.5 505 374.1 504.1L414.4 456.4H431.6L385.3 509.1L435 566.5Z" fill="white"/>
<path d="M526.3 456.4L490.1 526V566.6H476V526.3L440.7 456.4H456.6L480.7 505.4C480.8 505.7 481.1 506.4 481.6 507.6C482 508.7 482.6 510.3 483.4 512.3H483.6C483.8 511.4 484.2 510.2 484.7 509.1C485.2 508 485.7 506.7 486.5 505.4L511.6 456.4H526.3Z" fill="white"/>
<path d="M615.1 561C609.7 563.6 604.6 565.5 599.5 566.7C594.4 567.9 588.8 568.5 582.8 568.5C566.1 568.5 553.1 563.5 543.8 553.5C534.5 543.5 529.9 530.1 529.9 513.7C529.9 495.8 535 481.6 545.4 470.9C555.8 460.2 569.3 454.8 586 454.8C591.4 454.8 596.3 455.3 600.9 456.2C605.5 457.1 610.2 458.8 615 460.9L609.9 472.4C606 470.6 602.1 469.3 598.3 468.5C594.5 467.7 590.5 467.3 586 467.3C573.4 467.3 563.5 471.4 555.9 479.6C548.4 487.7 544.7 498.9 544.7 512.9C544.7 526.2 548.3 536.7 555.4 544.5C562.5 552.3 572.1 556.1 584 556.1C588.3 556.1 592.6 555.6 596.9 554.6C601.1 553.6 605.3 552 609.7 549.8L615.1 561Z" fill="white"/>
<path d="M544.9 304.9C546.8 304.9 548.4 303.3 548.4 301.4V173.7C548.4 171.8 546.8 170.2 544.9 170.2H497.3V140C497.3 138.1 495.7 136.5 493.8 136.5H179.5C177.6 136.5 176 138.1 176 140V590C176 591.9 177.6 593.5 179.5 593.5H215V618.7C215 620.6 216.6 622.2 218.5 622.2H544.9C546.8 622.2 548.4 620.6 548.4 618.7V597C548.4 595.1 546.8 593.5 544.9 593.5C543 593.5 541.4 595.1 541.4 597V615.2H222V177.2H541.3V301.4C541.3 303.3 542.9 304.9 544.9 304.9ZM490.2 170.2H218.5C216.6 170.2 215 171.8 215 173.7V586.5H183V143.5H490.2V170.2Z" fill="white"/>
<path d="M492.4 236.2C492.4 238.1 490.8 239.7 488.9 239.7H281.6C279.7 239.7 278.1 238.1 278.1 236.2C278.1 234.3 279.7 232.7 281.6 232.7H488.9C490.8 232.7 492.4 234.2 492.4 236.2Z" fill="white"/>
<path d="M385.5 274.7C385.5 276.6 383.9 278.2 382 278.2H281.6C279.7 278.2 278.1 276.6 278.1 274.7C278.1 272.8 279.7 271.2 281.6 271.2H382C384 271.2 385.5 272.7 385.5 274.7Z" fill="white"/>
<path d="M339.6 315.3C339.6 317.2 338 318.8 336.1 318.8H281.6C279.7 318.8 278.1 317.2 278.1 315.3C278.1 313.4 279.7 311.8 281.6 311.8H336.1C338 311.8 339.6 313.3 339.6 315.3Z" fill="white"/>
</g>
<defs>
<clipPath id="clip0_1_164">
<rect width="800" height="800" fill="white"/>
</clipPath>
</defs>
</svg>
