<?xml version="1.0" encoding="utf-8"?>
<!-- Generator: Adobe Illustrator 25.3.1, SVG Export Plug-In . SVG Version: 6.00 Build 0)  -->
<svg version="1.1" id="Layer_1" xmlns="http://www.w3.org/2000/svg" xmlns:xlink="http://www.w3.org/1999/xlink" x="0px" y="0px"
	 viewBox="0 0 1024 768" style="enable-background:new 0 0 1024 768;" xml:space="preserve">
<style type="text/css">
	.st0{fill:#075985;}
	.st1{fill-rule:evenodd;clip-rule:evenodd;fill:#FFDE16;}
	.st2{fill:#FFDE16;stroke:#000000;stroke-miterlimit:10;}
	.st3{fill:none;stroke:#FACC15;stroke-width:5;stroke-miterlimit:10;}
	.st4{fill:#FFFFFF;}
	.st5{opacity:0.12;}
	.st6{fill:none;}
</style>
<path class="st0" d="M1024,0v647.1c-38.3-1.6-79.4,48.6-114.3,40c-72-17.7-45.9-96.4-92-111.8C736.3,547.9,758,676.7,633.2,714
	c-136.8,27.8-243.5-91.1-270.7-14c-20.5,58.2-60.7,84.7-140.8,52.7C134,717.7,128,652.3,0,721.1V0H1024z"/>
<path class="st1" d="M750.8,1291.5"/>
<path class="st2" d="M717.1-512.5"/>
<path class="st2" d="M952.9-512.1"/>
<path class="st3" d="M0,305.4c44.2,19.6,66,14.8,76-4.3c10.6-20.4,7.1-57,3.2-96.8C75,161,70.4,113.9,83.4,80.4
	c17-44.1,64.9-64.5,185.7-21c32.8,11.9,67,22,101.5,29.6c82.2,18.1,166.1,21.8,237.4,0.3C659.3,73.9,704,45.4,737.1,0"/>
<path class="st2" d="M419.2-298.8"/>
<path class="st2" d="M422.1-394"/>
<path class="st2" d="M426.4-519.1"/>
<path class="st2" d="M616-541.9"/>
<g>
	<g>
		<path class="st4" d="M344.1,447.8l36.4-95.5h13l36.5,95.5h-13.5l-9.4-25h-40.8l-8.9,25H344.1z M370.1,412.1h33.2L388.4,371
			c-0.3-0.7-0.6-1.6-0.8-2.7c-0.2-1-0.5-2.4-0.7-3.8h-0.3c-0.2,1.3-0.4,2.6-0.7,3.6c-0.2,1-0.5,2-0.8,2.8L370.1,412.1z"/>
		<path class="st4" d="M543.6,447.8h-12v-63.4c0-2.6,0.1-5.5,0.2-8.5c0.2-3.2,0.4-6.6,0.7-10.2h-0.3c-0.5,2.3-1,4.1-1.5,5.8
			c-0.5,1.6-0.9,2.9-1.3,3.9L497.6,448H491l-31.6-72c-0.4-1-0.9-2.5-1.4-4.1s-0.9-3.7-1.4-6h-0.3c0.2,2.2,0.4,4.8,0.5,8
			s0.1,6.9,0.1,11.2v63h-11.6v-95.8h16.3L490,418c1.1,2.5,2.1,4.7,2.8,6.6c0.7,2,1.2,3.6,1.5,4.9h0.4c0.9-2.6,1.8-4.9,2.6-6.9
			c0.7-2,1.4-3.6,2-4.9l28.9-65.5h15.5v95.6H543.6z"/>
		<path class="st4" d="M620,447.8h-50.2v-95.5h12.1V437H620V447.8z"/>
		<path class="st4" d="M435,580.5h-19.1l-41.6-50c-0.7-0.9-1.3-1.8-1.9-2.4c-0.5-0.6-0.8-1.2-1.1-1.6H371v54.2h-14V470.5h14v51.7
			h0.3c0.3-0.5,0.8-1.1,1.2-1.9c0.5-0.6,1-1.3,1.6-2.2l40.3-47.7h17.2l-46.3,52.7L435,580.5z"/>
		<path class="st4" d="M526.3,470.4L490.1,540v40.6H476v-40.3l-35.3-69.9h15.9l24.1,49c0.1,0.3,0.4,1,0.9,2.2c0.4,1.1,1,2.7,1.8,4.7
			h0.2c0.2-0.9,0.6-2.1,1.1-3.2c0.5-1.1,1-2.4,1.8-3.7l25.1-49L526.3,470.4L526.3,470.4z"/>
		<path class="st4" d="M615.1,575c-5.4,2.6-10.5,4.5-15.6,5.7s-10.7,1.8-16.7,1.8c-16.7,0-29.7-5-39-15s-13.9-23.4-13.9-39.8
			c0-17.9,5.1-32.1,15.5-42.8s23.9-16.1,40.6-16.1c5.4,0,10.3,0.5,14.9,1.4c4.6,0.9,9.3,2.6,14.1,4.7l-5.1,11.5
			c-3.9-1.8-7.8-3.1-11.6-3.9s-7.8-1.2-12.3-1.2c-12.6,0-22.5,4.1-30.1,12.3c-7.5,8.1-11.2,19.3-11.2,33.3
			c0,13.3,3.6,23.8,10.7,31.6c7.1,7.8,16.7,11.6,28.6,11.6c4.3,0,8.6-0.5,12.9-1.5c4.2-1,8.4-2.6,12.8-4.8L615.1,575z"/>
	</g>
	<g>
		<path class="st4" d="M544.9,318.9c1.9,0,3.5-1.6,3.5-3.5V187.7c0-1.9-1.6-3.5-3.5-3.5h-47.6V154c0-1.9-1.6-3.5-3.5-3.5H179.5
			c-1.9,0-3.5,1.6-3.5,3.5v450c0,1.9,1.6,3.5,3.5,3.5H215v25.2c0,1.9,1.6,3.5,3.5,3.5h326.4c1.9,0,3.5-1.6,3.5-3.5V611
			c0-1.9-1.6-3.5-3.5-3.5s-3.5,1.6-3.5,3.5v18.2H222v-438h319.3v124.2C541.3,317.3,542.9,318.9,544.9,318.9z M490.2,184.2H218.5
			c-1.9,0-3.5,1.6-3.5,3.5v412.8h-32v-443h307.2V184.2z"/>
		<path class="st4" d="M492.4,250.2c0,1.9-1.6,3.5-3.5,3.5H281.6c-1.9,0-3.5-1.6-3.5-3.5s1.6-3.5,3.5-3.5h207.3
			C490.8,246.7,492.4,248.2,492.4,250.2z"/>
		<path class="st4" d="M385.5,288.7c0,1.9-1.6,3.5-3.5,3.5H281.6c-1.9,0-3.5-1.6-3.5-3.5s1.6-3.5,3.5-3.5H382
			C384,285.2,385.5,286.7,385.5,288.7z"/>
		<path class="st4" d="M339.6,329.3c0,1.9-1.6,3.5-3.5,3.5h-54.5c-1.9,0-3.5-1.6-3.5-3.5s1.6-3.5,3.5-3.5h54.5
			C338,325.8,339.6,327.3,339.6,329.3z"/>
	</g>
</g>
<g>
	<g class="st5">
		<rect x="812.7" y="36.4" width="115.8" height="25.7"/>
		<path d="M960.3,267.5v25.9c-65.8,2-128.9,25.1-179.6,66.5C825.8,306.2,890.3,273.5,960.3,267.5z"/>
		<path d="M921.8,113.5v143.2c-8.7,2.5-17.2,5.4-25.6,8.9V139.2h-12.8v132.2c-8.8,4.3-17.4,9.2-25.6,14.7V139.2h-12.8v156.1
			c-9.2,7-17.7,14.6-25.6,22.8V113.5H921.8z"/>
		<path d="M986.4,113.9c0,21.5-17.4,38.9-38.8,38.9v-25.7c7.3,0,13.2-5.9,13.2-13.2s-5.9-13.2-13.2-13.2H793.6
			c-7.3,0-13.2,5.9-13.2,13.2s5.9,13.2,13.2,13.2v25.7c-21.5,0-38.8-17.4-38.8-38.9S772.1,75,793.6,75c94.3,0,59.6,0,153.9,0
			C969,74.9,986.4,92.4,986.4,113.9z"/>
	</g>
	<rect x="717.1" class="st6" width="306.9" height="396.3"/>
</g>
</svg>
