<svg width="60" height="60" viewBox="0 0 60 60" fill="none" xmlns="http://www.w3.org/2000/svg">
<rect width="60" height="60" rx="30" fill="#226679"/>
<path d="M31.0004 50.35C27.8671 50.35 25.1921 49.275 22.9754 47.125C20.7587 44.975 19.6504 42.3333 19.6504 39.2V17.55C19.6504 15.35 20.4337 13.475 22.0004 11.925C23.5671 10.375 25.4671 9.59998 27.7004 9.59998C29.9337 9.59998 31.8254 10.375 33.3754 11.925C34.9254 13.475 35.7004 15.3666 35.7004 17.6V37.4C35.7004 38.7 35.2504 39.8166 34.3504 40.75C33.4504 41.6833 32.3337 42.15 31.0004 42.15C29.6671 42.15 28.5504 41.65 27.6504 40.65C26.7504 39.65 26.3004 38.4833 26.3004 37.15V17.45H28.5504V37.3C28.5504 38 28.7921 38.6 29.2754 39.1C29.7587 39.6 30.3337 39.85 31.0004 39.85C31.6671 39.85 32.2421 39.6083 32.7254 39.125C33.2087 38.6416 33.4504 38.0666 33.4504 37.4V17.55C33.4504 15.95 32.8921 14.6 31.7754 13.5C30.6587 12.4 29.3004 11.85 27.7004 11.85C26.1004 11.85 24.7421 12.4 23.6254 13.5C22.5087 14.6 21.9504 15.95 21.9504 17.55V39.3C21.9504 41.7666 22.8337 43.8416 24.6004 45.525C26.3671 47.2083 28.5004 48.05 31.0004 48.05C33.5337 48.05 35.6754 47.2 37.4254 45.5C39.1754 43.8 40.0504 41.7 40.0504 39.2V17.45H42.3504V39.15C42.3504 42.2833 41.2421 44.9333 39.0254 47.1C36.8087 49.2666 34.1337 50.35 31.0004 50.35Z" fill="white"/>
</svg>
