<svg width="60" height="60" viewBox="0 0 60 60" fill="none" xmlns="http://www.w3.org/2000/svg">
<rect width="60" height="60" rx="30" fill="#226679"/>
<path d="M22 42C21.4333 42 20.9583 41.8083 20.575 41.425C20.1917 41.0417 20 40.5667 20 40C20 39.4333 20.1917 38.9583 20.575 38.575C20.9583 38.1917 21.4333 38 22 38C22.5667 38 23.0417 38.1917 23.425 38.575C23.8083 38.9583 24 39.4333 24 40C24 40.5667 23.8083 41.0417 23.425 41.425C23.0417 41.8083 22.5667 42 22 42ZM22 34C21.4333 34 20.9583 33.8083 20.575 33.425C20.1917 33.0417 20 32.5667 20 32C20 31.4333 20.1917 30.9583 20.575 30.575C20.9583 30.1917 21.4333 30 22 30C22.5667 30 23.0417 30.1917 23.425 30.575C23.8083 30.9583 24 31.4333 24 32C24 32.5667 23.8083 33.0417 23.425 33.425C23.0417 33.8083 22.5667 34 22 34ZM30 42C29.4333 42 28.9583 41.8083 28.575 41.425C28.1917 41.0417 28 40.5667 28 40C28 39.4333 28.1917 38.9583 28.575 38.575C28.9583 38.1917 29.4333 38 30 38C30.5667 38 31.0417 38.1917 31.425 38.575C31.8083 38.9583 32 39.4333 32 40C32 40.5667 31.8083 41.0417 31.425 41.425C31.0417 41.8083 30.5667 42 30 42ZM30 34C29.4333 34 28.9583 33.8083 28.575 33.425C28.1917 33.0417 28 32.5667 28 32C28 31.4333 28.1917 30.9583 28.575 30.575C28.9583 30.1917 29.4333 30 30 30C30.5667 30 31.0417 30.1917 31.425 30.575C31.8083 30.9583 32 31.4333 32 32C32 32.5667 31.8083 33.0417 31.425 33.425C31.0417 33.8083 30.5667 34 30 34ZM38 42C37.4333 42 36.9583 41.8083 36.575 41.425C36.1917 41.0417 36 40.5667 36 40C36 39.4333 36.1917 38.9583 36.575 38.575C36.9583 38.1917 37.4333 38 38 38C38.5667 38 39.0417 38.1917 39.425 38.575C39.8083 38.9583 40 39.4333 40 40C40 40.5667 39.8083 41.0417 39.425 41.425C39.0417 41.8083 38.5667 42 38 42ZM38 34C37.4333 34 36.9583 33.8083 36.575 33.425C36.1917 33.0417 36 32.5667 36 32C36 31.4333 36.1917 30.9583 36.575 30.575C36.9583 30.1917 37.4333 30 38 30C38.5667 30 39.0417 30.1917 39.425 30.575C39.8083 30.9583 40 31.4333 40 32C40 32.5667 39.8083 33.0417 39.425 33.425C39.0417 33.8083 38.5667 34 38 34ZM15 50C14.2 50 13.5 49.7 12.9 49.1C12.3 48.5 12 47.8 12 47V16C12 15.2 12.3 14.5 12.9 13.9C13.5 13.3 14.2 13 15 13H18.25V10H21.5V13H38.5V10H41.75V13H45C45.8 13 46.5 13.3 47.1 13.9C47.7 14.5 48 15.2 48 16V47C48 47.8 47.7 48.5 47.1 49.1C46.5 49.7 45.8 50 45 50H15ZM15 47H45V25.5H15V47ZM15 22.5H45V16H15V22.5ZM15 22.5V16V22.5Z" fill="white"/>
</svg>
