<svg width="800" height="800" viewBox="0 0 800 800" fill="none" xmlns="http://www.w3.org/2000/svg">
<g clip-path="url(#clip0_1_2)">
<path d="M800 0V675.438C770.078 673.768 737.969 726.167 710.703 717.19C654.453 698.715 674.844 616.568 638.828 600.494C575.234 571.894 592.188 706.335 494.688 745.268C387.812 774.286 304.453 650.179 283.203 730.655C267.188 791.404 235.781 819.064 173.203 785.663C104.688 749.13 100 680.866 0 752.679V0H800Z" fill="#226679"/>
<path d="M0 305.4C44.2 325 66 320.2 76 301.1C86.6 280.7 83.1 244.1 79.2 204.3C75 161 70.4 113.9 83.4 80.4C100.4 36.3 148.3 15.9 269.1 59.4C301.9 71.3 336.1 81.4 370.6 89C452.8 107.1 536.7 110.8 608 89.3C659.3 73.9 704 45.4 737.1 0" stroke="#FACC15" stroke-width="5" stroke-miterlimit="10"/>
<path d="M618.1 534L529.9 214.5V213.7C529.9 213.7 529.9 213.7 529.9 213.6C529.5 212.6 528.8 211.9 527.9 211.5L527.3 211.3L526.9 211.1L384.3 130.3L384 130.1C384 130.1 383.8 130 383.4 129.9C383.3 129.9 383.1 129.8 383 129.8H382.8C382.5 129.7 382 129.7 381.8 129.7H381.6C381.5 129.7 381.3 129.8 381.2 129.8H381.1L162.4 190.3C161.5 190.6 160.7 191.2 160.2 192C159.7 192.8 159.6 193.8 159.8 194.6L279.3 627.4C279.8 629.3 281.8 630.5 283.7 629.9L615.5 538.4C616.4 538.1 617.2 537.5 617.7 536.7C618.2 535.8 618.4 534.9 618.1 534ZM517.1 213.7L416.2 241.5L388.3 140.6L517.1 213.7ZM285.4 622.1L167.8 196.2L379.9 137.7L410.1 247C410.4 247.9 411 248.7 411.8 249.2C412.6 249.7 413.6 249.8 414.4 249.6L523.7 219.4L524.8 223.4L610.1 532.5L285.4 622.1Z" fill="white"/>
<path d="M546.7 452C546.2 452.8 545.4 453.5 544.5 453.7L500.3 465.9C499.4 466.2 498.5 466 497.6 465.6C496.8 465.1 496.1 464.3 495.9 463.4C495.6 462.5 495.8 461.6 496.2 460.7C496.7 459.9 497.5 459.3 498.4 459L542.6 446.8C542.9 446.7 543.2 446.7 543.5 446.7C544.1 446.7 544.7 446.9 545.2 447.2C546 447.7 546.6 448.5 546.9 449.4C547.3 450.3 547.2 451.2 546.7 452Z" fill="white"/>
<path d="M527.7 383.2C527.2 384 526.4 384.6 525.5 384.9L481.3 397.1C480.4 397.4 479.5 397.2 478.6 396.8C477.8 396.3 477.2 395.5 476.9 394.6C476.6 393.7 476.8 392.8 477.2 391.9C477.7 391.1 478.5 390.5 479.4 390.2L523.5 378C523.8 377.9 524.1 377.9 524.4 377.9C526 377.9 527.5 379 528 380.5C528.3 381.5 528.2 382.4 527.7 383.2Z" fill="white"/>
<path d="M515.2 342.3C514.7 343.1 513.9 343.7 513 344L403.7 374.2C402.8 374.5 401.9 374.3 401 373.9C400.2 373.4 399.6 372.6 399.3 371.7C399 370.8 399.2 369.9 399.6 369C400.1 368.2 400.9 367.6 401.8 367.3L511.1 337.1C511.4 337 511.7 337 512 337C512.6 337 513.2 337.1 513.7 337.5C514.5 338 515.1 338.8 515.4 339.7C515.8 340.6 515.7 341.5 515.2 342.3Z" fill="white"/>
<path d="M504.8 300.2C504.3 301 503.5 301.6 502.6 301.9L374.8 337.1C373.9 337.4 373 337.2 372.1 336.8C371.3 336.3 370.6 335.5 370.4 334.6C370.1 333.7 370.3 332.8 370.7 331.9C371.2 331.1 372 330.5 372.9 330.2L500.6 295C500.9 294.9 501.2 294.9 501.5 294.9C503.1 294.9 504.6 295.9 505 297.5C505.3 298.4 505.2 299.4 504.8 300.2Z" fill="white"/>
<path d="M322.4 281.3L300.3 201.3C300 200.3 299.5 199.6 298.7 199.1C297.9 198.6 296.9 198.5 295.9 198.8L215.9 220.9C214 221.4 212.8 223.4 213.4 225.3L235.5 305.3C235.8 306.2 236.4 307 237.2 307.5C238 308 239 308.1 239.8 307.9L319.8 285.8C320.7 285.5 321.5 284.9 322 284.1C322.5 283.1 322.7 282.2 322.4 281.3ZM241.5 299.9L221.3 226.7L294.4 206.5L314.6 279.7L241.5 299.9Z" fill="white"/>
<path d="M283.7 238.9L270.3 266.5C269.9 267.4 269.1 268.1 268 268.4C267.3 268.6 266.4 268.5 265.6 268.2L250.2 261C249.4 260.6 248.8 260 248.4 259C248.1 258.1 248.1 257.2 248.5 256.3C249 255.3 249.8 254.6 250.7 254.4L251 254.3C251.6 254.1 252.5 254.2 253.4 254.6L265.4 260.2L277.2 235.8C277.6 234.9 278.3 234.3 279.3 233.9C280.2 233.6 281.2 233.7 282.1 234C283.9 234.9 284.5 237.1 283.7 238.9Z" fill="white"/>
<path d="M349.3 343.2C348.8 344 348 344.6 347.1 344.9L317 353.2C316.1 353.5 315.2 353.3 314.4 352.9C313.6 352.4 313 351.6 312.7 350.7C312.4 349.8 312.6 348.9 313 348C313.5 347.2 314.3 346.6 315.2 346.3L345.3 338C345.6 337.9 345.9 337.9 346.2 337.9C346.8 337.9 347.4 338.1 347.9 338.4C348.7 338.9 349.3 339.7 349.6 340.6C349.8 341.4 349.7 342.4 349.3 343.2Z" fill="white"/>
<path d="M291.8 359C291.3 359.8 290.5 360.5 289.6 360.7L273.1 365.2C272.2 365.5 271.3 365.3 270.4 364.9C269.6 364.4 269 363.6 268.7 362.7C268.4 361.8 268.6 360.9 269 360C269.5 359.2 270.3 358.6 271.2 358.3L287.7 353.8C288 353.7 288.3 353.7 288.6 353.7C289.2 353.7 289.8 353.9 290.4 354.2C291.3 354.7 291.9 355.5 292.1 356.4C292.4 357.3 292.3 358.2 291.8 359Z" fill="white"/>
<path d="M377.2 380.4C376.7 381.2 375.9 381.8 375 382.1L358.5 386.6C357.6 386.9 356.7 386.7 355.8 386.3C355 385.8 354.4 385 354.1 384.1C353.8 383.2 354 382.3 354.4 381.4C354.9 380.6 355.7 380 356.6 379.7L373 375.2C373.3 375.1 373.6 375.1 373.9 375.1C375.5 375.1 377 376.2 377.5 377.7C377.8 378.7 377.7 379.6 377.2 380.4Z" fill="white"/>
<path d="M536.7 417.2C536.2 418 535.4 418.7 534.5 418.9L518 423.4C517.1 423.7 516.2 423.5 515.3 423.1C514.5 422.6 513.9 421.8 513.6 420.9C513.3 420 513.5 419.1 513.9 418.2C514.4 417.4 515.2 416.8 516.1 416.5L532.6 412C532.9 411.9 533.2 411.9 533.5 411.9C534.1 411.9 534.7 412 535.2 412.4C536 412.9 536.6 413.7 536.9 414.6C537.3 415.5 537.2 416.4 536.7 417.2Z" fill="white"/>
<path d="M491.6 429.7C491.1 430.5 490.3 431.1 489.4 431.4L472.9 435.9C472 436.2 471.1 436 470.2 435.6C469.4 435.1 468.8 434.3 468.5 433.4C468.2 432.5 468.4 431.6 468.8 430.7C469.3 429.9 470.1 429.3 471 429L487.5 424.5C487.8 424.4 488.1 424.4 488.4 424.4C489 424.4 489.6 424.6 490.1 424.9C490.9 425.4 491.5 426.2 491.8 427.1C492.2 427.9 492.1 428.9 491.6 429.7Z" fill="white"/>
<path d="M443.7 442.9C443.2 443.7 442.4 444.3 441.5 444.6L357.2 467.9C356.3 468.2 355.4 468 354.5 467.6C353.7 467.1 353 466.3 352.8 465.4C352.5 464.5 352.7 463.6 353.1 462.7C353.6 461.9 354.4 461.3 355.3 461L439.6 437.7C439.9 437.6 440.2 437.6 440.5 437.6C441.1 437.6 441.7 437.7 442.2 438.1C443 438.6 443.6 439.4 443.9 440.3C444.3 441.2 444.2 442.1 443.7 442.9Z" fill="white"/>
<path d="M453.9 403.7C453.4 404.5 452.6 405.1 451.7 405.4L328.8 439.4C327.9 439.7 327 439.5 326.1 439.1C325.3 438.6 324.7 437.8 324.4 436.9C324.1 436 324.3 435.1 324.7 434.2C325.2 433.4 326 432.8 326.9 432.5L449.8 398.5C450.1 398.4 450.4 398.4 450.7 398.4C451.3 398.4 451.9 398.5 452.4 398.9C453.2 399.4 453.8 400.2 454.1 401.1C454.5 401.9 454.4 402.9 453.9 403.7Z" fill="white"/>
<path d="M582.2 583L262 671.3C261.1 671.6 260.2 671.4 259.4 671C258.6 670.5 258 669.7 257.7 668.8L140 243.1L149.4 250.3L263.5 663.5L575 577.5L582.2 583Z" fill="white"/>
</g>
<defs>
<clipPath id="clip0_1_2">
<rect width="800" height="800" fill="white"/>
</clipPath>
</defs>
</svg>
