<?xml version="1.0" encoding="utf-8"?>
<!-- Generator: Adobe Illustrator 25.3.1, SVG Export Plug-In . SVG Version: 6.00 Build 0)  -->
<svg version="1.1" id="Layer_1" xmlns="http://www.w3.org/2000/svg" xmlns:xlink="http://www.w3.org/1999/xlink" x="0px" y="0px"
	 viewBox="0 0 1024 768" style="enable-background:new 0 0 1024 768;" xml:space="preserve">
<style type="text/css">
	.st0{fill:#075985;}
	.st1{fill-rule:evenodd;clip-rule:evenodd;fill:#FFDE16;}
	.st2{fill:#FFDE16;stroke:#000000;stroke-miterlimit:10;}
	.st3{fill:none;stroke:#FACC15;stroke-width:5;stroke-miterlimit:10;}
	.st4{fill:#FFFFFF;}
	.st5{opacity:0.12;}
	.st6{fill:none;}
</style>
<path class="st0" d="M1024,0v647.1c-38.3-1.6-79.4,48.6-114.3,40c-72-17.7-45.9-96.4-92-111.8C736.3,547.9,758,676.7,633.2,714
	c-136.8,27.8-243.5-91.1-270.7-14c-20.5,58.2-60.7,84.7-140.8,52.7C134,717.7,128,652.3,0,721.1V0H1024z"/>
<path class="st1" d="M750.8,1291.5"/>
<path class="st2" d="M717.1-512.5"/>
<path class="st2" d="M952.9-512.1"/>
<path class="st3" d="M0,305.4c44.2,19.6,66,14.8,76-4.3c10.6-20.4,7.1-57,3.2-96.8C75,161,70.4,113.9,83.4,80.4
	c17-44.1,64.9-64.5,185.7-21c32.8,11.9,67,22,101.5,29.6c82.2,18.1,166.1,21.8,237.4,0.3C659.3,73.9,704,45.4,737.1,0"/>
<path class="st2" d="M419.2-298.8"/>
<path class="st2" d="M422.1-394"/>
<path class="st2" d="M426.4-519.1"/>
<path class="st2" d="M616-541.9"/>
<g>
	<path class="st4" d="M618.1,534l-88.2-319.5v-0.8c0,0,0,0,0-0.1c-0.4-1-1.1-1.7-2-2.1l-0.6-0.2l-0.4-0.2l-142.6-80.8l-0.3-0.2
		c0,0-0.2-0.1-0.6-0.2c-0.1,0-0.3-0.1-0.4-0.1h-0.2c-0.3-0.1-0.8-0.1-1-0.1h-0.2c-0.1,0-0.3,0.1-0.4,0.1h-0.1l-218.7,60.5
		c-0.9,0.3-1.7,0.9-2.2,1.7s-0.6,1.8-0.4,2.6l119.5,432.8c0.5,1.9,2.5,3.1,4.4,2.5l331.8-91.5c0.9-0.3,1.7-0.9,2.2-1.7
		C618.2,535.8,618.4,534.9,618.1,534z M517.1,213.7l-100.9,27.8l-27.9-100.9L517.1,213.7z M285.4,622.1L167.8,196.2l212.1-58.5
		L410.1,247c0.3,0.9,0.9,1.7,1.7,2.2c0.8,0.5,1.8,0.6,2.6,0.4l109.3-30.2l1.1,4l85.3,309.1L285.4,622.1z"/>
	<path class="st4" d="M546.7,452c-0.5,0.8-1.3,1.5-2.2,1.7l-44.2,12.2c-0.9,0.3-1.8,0.1-2.7-0.3c-0.8-0.5-1.5-1.3-1.7-2.2
		c-0.3-0.9-0.1-1.8,0.3-2.7c0.5-0.8,1.3-1.4,2.2-1.7l44.2-12.2c0.3-0.1,0.6-0.1,0.9-0.1c0.6,0,1.2,0.2,1.7,0.5
		c0.8,0.5,1.4,1.3,1.7,2.2l0,0C547.3,450.3,547.2,451.2,546.7,452z"/>
	<path class="st4" d="M527.7,383.2c-0.5,0.8-1.3,1.4-2.2,1.7l-44.2,12.2c-0.9,0.3-1.8,0.1-2.7-0.3c-0.8-0.5-1.4-1.3-1.7-2.2
		c-0.3-0.9-0.1-1.8,0.3-2.7c0.5-0.8,1.3-1.4,2.2-1.7l44.1-12.2c0.3-0.1,0.6-0.1,0.9-0.1c1.6,0,3.1,1.1,3.6,2.6
		C528.3,381.5,528.2,382.4,527.7,383.2z"/>
	<path class="st4" d="M515.2,342.3c-0.5,0.8-1.3,1.4-2.2,1.7l-109.3,30.2c-0.9,0.3-1.8,0.1-2.7-0.3c-0.8-0.5-1.4-1.3-1.7-2.2
		c-0.3-0.9-0.1-1.8,0.3-2.7c0.5-0.8,1.3-1.4,2.2-1.7l109.3-30.2c0.3-0.1,0.6-0.1,0.9-0.1c0.6,0,1.2,0.1,1.7,0.5
		c0.8,0.5,1.4,1.3,1.7,2.2l0,0C515.8,340.6,515.7,341.5,515.2,342.3z"/>
	<path class="st4" d="M504.8,300.2c-0.5,0.8-1.3,1.4-2.2,1.7l-127.8,35.2c-0.9,0.3-1.8,0.1-2.7-0.3c-0.8-0.5-1.5-1.3-1.7-2.2
		c-0.3-0.9-0.1-1.8,0.3-2.7c0.5-0.8,1.3-1.4,2.2-1.7L500.6,295c0.3-0.1,0.6-0.1,0.9-0.1c1.6,0,3.1,1,3.5,2.6
		C505.3,298.4,505.2,299.4,504.8,300.2z"/>
	<path class="st4" d="M322.4,281.3l-22.1-80c-0.3-1-0.8-1.7-1.6-2.2c-0.8-0.5-1.8-0.6-2.8-0.3l-80,22.1c-1.9,0.5-3.1,2.5-2.5,4.4
		l22.1,80c0.3,0.9,0.9,1.7,1.7,2.2s1.8,0.6,2.6,0.4l80-22.1c0.9-0.3,1.7-0.9,2.2-1.7C322.5,283.1,322.7,282.2,322.4,281.3z
		 M241.5,299.9l-20.2-73.2l73.1-20.2l20.2,73.2L241.5,299.9z"/>
	<path class="st4" d="M283.7,238.9l-13.4,27.6c-0.4,0.9-1.2,1.6-2.3,1.9c-0.7,0.2-1.6,0.1-2.4-0.2l-15.4-7.2c-0.8-0.4-1.4-1-1.8-2
		c-0.3-0.9-0.3-1.8,0.1-2.7c0.5-1,1.3-1.7,2.2-1.9l0.3-0.1c0.6-0.2,1.5-0.1,2.4,0.3l12,5.6l11.8-24.4c0.4-0.9,1.1-1.5,2.1-1.9
		c0.9-0.3,1.9-0.2,2.8,0.1C283.9,234.9,284.5,237.1,283.7,238.9z"/>
	<path class="st4" d="M349.3,343.2c-0.5,0.8-1.3,1.4-2.2,1.7l-30.1,8.3c-0.9,0.3-1.8,0.1-2.6-0.3c-0.8-0.5-1.4-1.3-1.7-2.2
		c-0.3-0.9-0.1-1.8,0.3-2.7c0.5-0.8,1.3-1.4,2.2-1.7l30.1-8.3c0.3-0.1,0.6-0.1,0.9-0.1c0.6,0,1.2,0.2,1.7,0.5
		c0.8,0.5,1.4,1.3,1.7,2.2l0,0C349.8,341.4,349.7,342.4,349.3,343.2z"/>
	<path class="st4" d="M291.8,359c-0.5,0.8-1.3,1.5-2.2,1.7l-16.5,4.5c-0.9,0.3-1.8,0.1-2.7-0.3c-0.8-0.5-1.4-1.3-1.7-2.2
		c-0.3-0.9-0.1-1.8,0.3-2.7c0.5-0.8,1.3-1.4,2.2-1.7l16.5-4.5c0.3-0.1,0.6-0.1,0.9-0.1c0.6,0,1.2,0.2,1.8,0.5
		c0.9,0.5,1.5,1.3,1.7,2.2C292.4,357.3,292.3,358.2,291.8,359z"/>
	<path class="st4" d="M377.2,380.4c-0.5,0.8-1.3,1.4-2.2,1.7l-16.5,4.5c-0.9,0.3-1.8,0.1-2.7-0.3c-0.8-0.5-1.4-1.3-1.7-2.2
		c-0.3-0.9-0.1-1.8,0.3-2.7c0.5-0.8,1.3-1.4,2.2-1.7l16.4-4.5c0.3-0.1,0.6-0.1,0.9-0.1c1.6,0,3.1,1.1,3.6,2.6
		C377.8,378.7,377.7,379.6,377.2,380.4z"/>
	<path class="st4" d="M536.7,417.2c-0.5,0.8-1.3,1.5-2.2,1.7l-16.5,4.5c-0.9,0.3-1.8,0.1-2.7-0.3c-0.8-0.5-1.4-1.3-1.7-2.2
		c-0.3-0.9-0.1-1.8,0.3-2.7c0.5-0.8,1.3-1.4,2.2-1.7l16.5-4.5c0.3-0.1,0.6-0.1,0.9-0.1c0.6,0,1.2,0.1,1.7,0.5
		c0.8,0.5,1.4,1.3,1.7,2.2l0,0C537.3,415.5,537.2,416.4,536.7,417.2z"/>
	<path class="st4" d="M491.6,429.7c-0.5,0.8-1.3,1.4-2.2,1.7l-16.5,4.5c-0.9,0.3-1.8,0.1-2.7-0.3c-0.8-0.5-1.4-1.3-1.7-2.2
		c-0.3-0.9-0.1-1.8,0.3-2.7c0.5-0.8,1.3-1.4,2.2-1.7l16.5-4.5c0.3-0.1,0.6-0.1,0.9-0.1c0.6,0,1.2,0.2,1.7,0.5
		c0.8,0.5,1.4,1.3,1.7,2.2l0,0C492.2,427.9,492.1,428.9,491.6,429.7z"/>
	<path class="st4" d="M443.7,442.9c-0.5,0.8-1.3,1.4-2.2,1.7l-84.3,23.3c-0.9,0.3-1.8,0.1-2.7-0.3c-0.8-0.5-1.5-1.3-1.7-2.2
		c-0.3-0.9-0.1-1.8,0.3-2.7c0.5-0.8,1.3-1.4,2.2-1.7l84.3-23.3c0.3-0.1,0.6-0.1,0.9-0.1c0.6,0,1.2,0.1,1.7,0.5
		c0.8,0.5,1.4,1.3,1.7,2.2l0,0C444.3,441.2,444.2,442.1,443.7,442.9z"/>
	<path class="st4" d="M453.9,403.7c-0.5,0.8-1.3,1.4-2.2,1.7l-122.9,34c-0.9,0.3-1.8,0.1-2.7-0.3c-0.8-0.5-1.4-1.3-1.7-2.2
		c-0.3-0.9-0.1-1.8,0.3-2.7c0.5-0.8,1.3-1.4,2.2-1.7l122.9-34c0.3-0.1,0.6-0.1,0.9-0.1c0.6,0,1.2,0.1,1.7,0.5
		c0.8,0.5,1.4,1.3,1.7,2.2l0,0C454.5,401.9,454.4,402.9,453.9,403.7z"/>
	<path class="st4" d="M582.2,583L262,671.3c-0.9,0.3-1.8,0.1-2.6-0.3c-0.8-0.5-1.4-1.3-1.7-2.2L140,243.1l9.4,7.2l114.1,413.2
		l311.5-86L582.2,583z"/>
</g>
<g>
	<g class="st5">
		<rect x="812.7" y="36.4" width="115.8" height="25.7"/>
		<path d="M960.3,267.5v25.9c-65.8,2-128.9,25.1-179.6,66.5C825.8,306.2,890.3,273.5,960.3,267.5z"/>
		<path d="M921.8,113.5v143.2c-8.7,2.5-17.2,5.4-25.6,8.9V139.2h-12.8v132.2c-8.8,4.3-17.4,9.2-25.6,14.7V139.2h-12.8v156.1
			c-9.2,7-17.7,14.6-25.6,22.8V113.5H921.8z"/>
		<path d="M986.4,113.9c0,21.5-17.4,38.9-38.8,38.9v-25.7c7.3,0,13.2-5.9,13.2-13.2s-5.9-13.2-13.2-13.2H793.6
			c-7.3,0-13.2,5.9-13.2,13.2s5.9,13.2,13.2,13.2v25.7c-21.5,0-38.8-17.4-38.8-38.9S772.1,75,793.6,75c94.3,0,59.6,0,153.9,0
			C969,74.9,986.4,92.4,986.4,113.9z"/>
	</g>
	<rect x="717.1" class="st6" width="306.9" height="396.3"/>
</g>
</svg>
