<?xml version="1.0" encoding="utf-8"?>
<!-- Generator: Adobe Illustrator 25.3.1, SVG Export Plug-In . SVG Version: 6.00 Build 0)  -->
<svg version="1.1" id="Layer_1" xmlns="http://www.w3.org/2000/svg" xmlns:xlink="http://www.w3.org/1999/xlink" x="0px" y="0px"
	 viewBox="0 0 1024 768" style="enable-background:new 0 0 1024 768;" xml:space="preserve">
<style type="text/css">
	.st0{fill:#075985;}
	.st1{fill-rule:evenodd;clip-rule:evenodd;fill:#FFDE16;}
	.st2{fill:#FFDE16;stroke:#000000;stroke-miterlimit:10;}
	.st3{fill:none;stroke:#FACC15;stroke-width:5;stroke-miterlimit:10;}
	.st4{fill:#FFFFFF;}
	.st5{opacity:0.12;}
	.st6{fill:none;}
</style>
<path class="st0" d="M1024,0v647.1c-38.3-1.6-79.4,48.6-114.3,40c-72-17.7-45.9-96.4-92-111.8C736.3,547.9,758,676.7,633.2,714
	c-136.8,27.8-243.5-91.1-270.7-14c-20.5,58.2-60.7,84.7-140.8,52.7C134,717.7,128,652.3,0,721.1V0H1024z"/>
<path class="st1" d="M750.8,1291.5"/>
<path class="st2" d="M717.1-512.5"/>
<path class="st2" d="M952.9-512.1"/>
<path class="st3" d="M0,305.4c44.2,19.6,66,14.8,76-4.3c10.6-20.4,7.1-57,3.2-96.8C75,161,70.4,113.9,83.4,80.4
	c17-44.1,64.9-64.5,185.7-21c32.8,11.9,67,22,101.5,29.6c82.2,18.1,166.1,21.8,237.4,0.3C659.3,73.9,704,45.4,737.1,0"/>
<path class="st2" d="M419.2-298.8"/>
<path class="st2" d="M422.1-394"/>
<path class="st2" d="M426.4-519.1"/>
<path class="st2" d="M616-541.9"/>
<g>
	<path class="st4" d="M484.2,355.5c-0.3,1.1-0.9,2-1.9,2.6c-0.2,0.1-0.4,0.3-0.7,0.4l-52.7,22.4c-1.1,0.5-2.3,0.5-3.4,0
		c-1.1-0.4-1.9-1.3-2.4-2.4s-0.5-2.3,0-3.4c0.4-1.1,1.3-1.9,2.4-2.4l47.3-20.1l-74-93.2l-42.7-16.2l9.2,11.5
		c7.7,9.5,14.2,18.5,19.4,26.5c17.6,27,26.2,49.3,26.5,68.1c0,1.2-0.4,2.3-1.2,3.1c-0.8,0.8-1.9,1.3-3.1,1.3s-2.3-0.4-3.1-1.2
		c-0.8-0.8-1.3-1.9-1.3-3.1c-0.2-16.8-8.6-38.2-25-63.4c-20.2-31-59-73.4-99-108.1c-19.4-16.9-37.4-30.4-52-39.1
		c-19.1-11.4-26.7-11.2-29.1-10.5l-1.2,0.3l-0.8,1c-1.6,1.9-4.9,8.8-2.2,30.9c2.1,16.9,7.2,38.8,14.7,63.4
		c15.5,50.5,38.6,103.2,58.8,134.2c16.9,25.9,33.4,42.4,49.1,49.1c1.1,0.5,1.9,1.3,2.4,2.4c0.4,1.1,0.4,2.3,0,3.4
		c-0.3,0.8-0.9,1.5-1.6,2c-1.2,0.8-2.8,0.9-4.1,0.4c-17.6-7.5-35-24.7-53-52.4c-4.8-7.4-9.9-16.3-15.2-26.3l-6.8-12.9l-2.2,42.4
		l55.3,105.4l37.5-35.2c0.9-0.8,2-1.2,3.2-1.2s2.3,0.5,3.1,1.4c0.8,0.9,1.2,2,1.2,3.2s-0.5,2.3-1.4,3.1L292.4,482
		c-0.2,0.2-0.4,0.3-0.6,0.5l0,0c-0.9,0.6-2,0.8-3.1,0.7c-1.3-0.2-2.5-1.1-3.2-2.3L227,369.4c-0.4-0.7-0.5-1.5-0.5-2.3l3.2-60.6
		l-0.4-0.9c-11.6-26-22-54-30.2-81c-7.7-25.4-12.8-47.9-14.7-65.1c-2.3-20.8,0.1-33.2,7.3-37.8c2.2-1.5,5-2.2,8.2-2.2
		c7.2,0,16.9,3.6,29.4,10.8c14.9,8.7,33.5,22.4,53.6,39.8c20.7,17.8,41.5,38.1,60.2,58.5l0.8,0.9l1.3,0.3c0.2,0,0.4,0.1,0.5,0.1
		l57.6,21.9c0.7,0.3,1.4,0.8,1.9,1.4l78.3,98.7C484.2,352.8,484.5,354.2,484.2,355.5z"/>
	<path class="st4" d="M326.9,260c-0.2,1.2-0.8,2.2-1.8,2.8l-0.2,0.1c-2,1.3-4.6,0.8-6-1.1c-1.5-2-3-4.1-4.5-6.1
		c-0.7-0.9-1-2.1-0.9-3.3c0.2-1.2,0.8-2.2,1.7-2.9c0.8-0.6,1.7-0.9,2.7-0.9c1.3,0,2.6,0.6,3.5,1.7c1.6,2.1,3.2,4.2,4.7,6.3
		C326.8,257.6,327.1,258.8,326.9,260z"/>
	<path class="st4" d="M303,230.5c0,1.2-0.5,2.3-1.4,3.1c-0.2,0.2-0.4,0.4-0.6,0.5c-1.8,1.2-4.1,0.9-5.6-0.7
		c-31.2-33-66.5-56.2-66.9-56.4c-2-1.3-2.6-4.1-1.3-6.1c0.8-1.3,2.3-2,3.7-2c0.8,0,1.7,0.2,2.4,0.7c1.5,1,36.3,23.7,68.5,57.8
		C302.6,228.2,303,229.4,303,230.5z"/>
	<path class="st4" d="M396.2,421.8c-0.2,1.2-0.9,2.1-1.9,2.8c-1,0.6-2.2,0.9-3.3,0.6c-1.1-0.2-2.1-0.9-2.8-1.9l-2.5-3.8
		c-1.3-2-0.7-4.8,1.3-6.1c2-1.3,4.8-0.7,6.1,1.3l2.5,3.8C396.3,419.5,396.5,420.7,396.2,421.8z"/>
	<path class="st4" d="M376,396.4c-2,1.3-4.8,0.7-6.1-1.3L332,336.9c-0.7-1-0.9-2.2-0.6-3.3c0.2-1.2,0.9-2.1,1.9-2.8
		c0.7-0.5,1.6-0.7,2.4-0.7c1.4,0,2.8,0.7,3.7,2l37.9,58.2C378.6,392.4,378,395.1,376,396.4z"/>
	<path class="st4" d="M409,484.6c-0.7,1-1.7,1.6-2.9,1.7c-1.2,0.2-2.3-0.1-3.3-0.8c-18.3-13.6-43.4-14.4-62.6-2
		c-13.7,8.9-22.6,23.3-24.5,39.5c-0.2,1.3-0.8,2.4-1.9,3.1c-1,0.7-2.4,0.9-3.6,0.6c-6.9-1.8-14.2-0.6-20.1,3.3
		c-11.6,7.6-14.9,23.2-7.4,34.9c0.3,0.5,0.7,1,1,1.5l2.4,3.2l3.2-2.3c4.7-3.5,9.3-5.8,12.7-7.2s5.6-2,5.6-2c1.1-0.3,2.3-0.1,3.3,0.5
		s1.7,1.5,2,2.7c0.5,1.8-0.3,3.8-1.9,4.8c-0.4,0.2-0.8,0.4-1.3,0.6s-12.5,3.6-22.4,14.1l-0.3,0.4c-10.4,14-11,33.2-1.5,47.8
		c0.7,1,0.9,2.2,0.6,3.3c-0.2,1.2-0.9,2.1-1.9,2.8c-2,1.3-4.8,0.7-6.1-1.3c-2.1-3.3-3.9-6.9-5.2-10.6l-1.1-3l-3.1,0.3
		c-6.2,0.7-12.2,2.8-17.5,6.2c-8.9,5.8-15,14.7-17.2,25.1c-2.2,10.4-0.2,21,5.6,29.9c4.5,7,11,12.3,18.8,15.3c1.1,0.4,2,1.3,2.4,2.3
		c0.5,1.1,0.5,2.3,0.1,3.4c-0.3,0.9-0.9,1.6-1.7,2.1c-1.2,0.8-2.7,0.9-4,0.4c-9.4-3.7-17.4-10.2-22.9-18.7
		c-14.6-22.5-8.2-52.6,14.2-67.2c6.1-4,12.8-6.5,20.1-7.4l3.6-0.5l-0.1-3.6c-0.3-10.6,2.5-20.8,8.2-29.5l1.7-2.5l-2-2.3
		c-1-1.1-1.9-2.3-2.7-3.6c-10.2-15.7-5.8-36.8,10-47.1c5.5-3.6,11.9-5.5,18.6-5.5c0.2,0,0.4,0,0.6,0l3.2,0.1l0.8-3.1
		c3.9-15.6,13.5-29.1,27-37.9c8.7-5.7,18.9-9.1,29.5-10l6.7-0.6l-35.8-55c-1.3-2-0.7-4.8,1.3-6.1c2-1.3,4.8-0.8,6.1,1.3l40,61.5
		l1.6,0.4c8.6,2,16.4,5.6,23.3,10.8C410.1,479.8,410.5,482.6,409,484.6z"/>
	<path class="st4" d="M690.1,422.1c-0.1,1.4-0.8,2.7-2,3.5c-0.8,0.5-1.7,0.7-2.6,0.7c-1.2,0-2.3-0.5-3-1.4c-0.8-0.9-1.2-2-1.2-3.2
		c0.3-8.3-1.9-16.4-6.4-23.4c-5.8-8.9-14.7-15-25.1-17.2c-10.4-2.2-21-0.2-29.9,5.6c-0.8,0.5-1.6,1.1-2.2,1.6l-4.1,3.1l3.9,3.2
		c4,3.3,7.5,7.2,10.3,11.5c1.3,2,0.8,4.8-1.3,6.1c-1,0.6-2.2,0.9-3.3,0.6c-1.2-0.2-2.1-0.9-2.8-1.9c-10.3-15.8-30-22.8-48.1-17
		c-14.1,4.9-22.2,14.8-22.3,14.9c-0.3,0.4-0.6,0.7-1,0.9c-1.6,1-3.7,1-5.2-0.2c-1.9-1.5-2.2-4.3-0.7-6.2c0.1-0.1,6.8-8.5,18.9-14.6
		l3.9-2l-2.2-3.7l-0.1-0.2c-0.1-0.2-0.2-0.4-0.3-0.6c-3.7-5.6-9.3-9.5-15.9-10.9c-6.6-1.4-13.3-0.1-19,3.5
		c-5.9,3.8-10,10.1-11.1,17.1c-0.2,1.3-0.9,2.4-2,3c-1.1,0.7-2.4,0.8-3.6,0.5c-15.6-4.8-32.4-2.5-46,6.4
		c-18.4,12-27.8,33.7-24.1,55.3c0.2,1.2-0.1,2.3-0.7,3.3c-0.7,1-1.7,1.6-2.8,1.8c-1.2,0.2-2.3-0.1-3.3-0.7c-1-0.7-1.6-1.7-1.8-2.8
		c-1.1-6.4-1.2-12.9-0.3-19.4l0.2-1.8l-1.3-1.4c-0.2-0.2-0.4-0.4-0.5-0.5l-39.7-61.1c-0.6-1-0.9-2.2-0.6-3.3
		c0.2-1.1,0.9-2.1,1.9-2.8c0.7-0.5,1.5-0.7,2.4-0.7c0.3,0,0.6,0,0.9,0.1c1.1,0.2,2.1,0.9,2.8,1.9l36.7,56.4l3.1-6.3
		c5.1-10.3,12.8-19,22.3-25.2c13.5-8.8,29.7-12.1,45.6-9.3l3.1,0.5l1.2-2.9c2.7-6.3,7.1-11.6,12.8-15.3c15.7-10.2,36.8-5.8,47,10
		c0.8,1.2,1.6,2.5,2.2,3.9l1.3,2.7l3-0.5c8.7-1.4,17.8-0.5,26.2,2.7l2.4,0.9l1.8-1.8c2.4-2.4,5-4.4,7.6-6.1
		c22.5-14.6,52.6-8.2,67.2,14.2C687.8,402.1,690.5,411.9,690.1,422.1z"/>
	<path class="st4" d="M642.1,488.6c-1.7,1.7-4.5,1.7-6.2,0c-4.1-4-10.2-5-15.3-2.4s-8,8.1-7.1,13.7c0.2,1.2-0.1,2.3-0.8,3.3
		c-0.7,0.9-1.7,1.6-2.9,1.7c-0.2,0-0.5,0.1-0.7,0c-2.2,0-4-1.6-4.3-3.8c-0.8-5.7,0.6-11.5,4-16.2l1.1-1.5l-0.5-1.8
		c-6-22.4-28.5-36.1-51.2-31.2c-15,3.3-27.2,14.3-32,28.9l-1.2,3.5l3.4,1.4c14.7,6.2,23.8,21,22.5,36.9c-0.2,2.3-2.2,4.1-4.5,4.1
		c-0.1,0-0.2,0-0.3,0c-2.4-0.2-4.2-2.3-4-4.7c0.6-7.4-1.8-14.7-6.6-20.4c-4.8-5.7-11.6-9.2-19-9.8c-7.4-0.6-14.7,1.7-20.4,6.6
		c-5.7,4.8-9.2,11.6-9.8,19c-0.1,1.2-0.6,2.2-1.5,3s-2,1.1-3.2,1c-2.4-0.2-4.2-2.3-4-4.7c1.5-18.9,16.9-33.4,35.8-33.8l2.9-0.1
		l0.8-2.8c5.3-18.5,20.3-32.6,39.1-36.7c14.4-3.1,29,0.1,40.5,8c8.6,5.8,15.5,14.2,19.4,24.4l1.3,3.4l3.5-0.9
		c7.5-2,15.6,0.2,21.1,5.7C643.8,484.1,643.8,486.9,642.1,488.6z"/>
</g>
<g>
	<g class="st5">
		<rect x="812.7" y="36.4" width="115.8" height="25.7"/>
		<path d="M960.3,267.5v25.9c-65.8,2-128.9,25.1-179.6,66.5C825.8,306.2,890.3,273.5,960.3,267.5z"/>
		<path d="M921.8,113.5v143.2c-8.7,2.5-17.2,5.4-25.6,8.9V139.2h-12.8v132.2c-8.8,4.3-17.4,9.2-25.6,14.7V139.2h-12.8v156.1
			c-9.2,7-17.7,14.6-25.6,22.8V113.5H921.8z"/>
		<path d="M986.4,113.9c0,21.5-17.4,38.9-38.8,38.9v-25.7c7.3,0,13.2-5.9,13.2-13.2s-5.9-13.2-13.2-13.2H793.6
			c-7.3,0-13.2,5.9-13.2,13.2s5.9,13.2,13.2,13.2v25.7c-21.5,0-38.8-17.4-38.8-38.9S772.1,75,793.6,75c94.3,0,59.6,0,153.9,0
			C969,74.9,986.4,92.4,986.4,113.9z"/>
	</g>
	<rect x="717.1" class="st6" width="306.9" height="396.3"/>
</g>
</svg>
