<svg width="60" height="60" viewBox="0 0 60 60" fill="none" xmlns="http://www.w3.org/2000/svg">
<rect width="60" height="60" rx="30" fill="#226679"/>
<path d="M32.1 48C28.0333 48 24.4833 46.8667 21.45 44.6C18.4167 42.3333 16.4167 39.35 15.45 35.65H8V32.65H14.75C14.6833 32.25 14.6333 31.8083 14.6 31.325C14.5667 30.8417 14.55 30.4 14.55 30C14.55 29.6 14.5667 29.1583 14.6 28.675C14.6333 28.1917 14.6833 27.75 14.75 27.35H8V24.35H15.45C16.5167 20.5167 18.5417 17.5 21.525 15.3C24.5083 13.1 28.0333 12 32.1 12C34.4 12 36.5583 12.375 38.575 13.125C40.5917 13.875 42.4167 15.0167 44.05 16.55L41.5 19.1C40.2333 17.9333 38.7833 17.05 37.15 16.45C35.5167 15.85 33.8333 15.55 32.1 15.55C28.9 15.55 26.175 16.325 23.925 17.875C21.675 19.425 20.1167 21.5833 19.25 24.35H32.15V27.35H18.35C18.25 27.75 18.1833 28.1917 18.15 28.675C18.1167 29.1583 18.1 29.6 18.1 30C18.1 30.4 18.1167 30.8417 18.15 31.325C18.1833 31.8083 18.25 32.25 18.35 32.65H32.15V35.65H19.25C20.0833 38.4833 21.6833 40.6583 24.05 42.175C26.4167 43.6917 29.1 44.45 32.1 44.45C33.8333 44.45 35.525 44.15 37.175 43.55C38.825 42.95 40.2667 42.0667 41.5 40.9L44.05 43.4C42.2833 44.9667 40.4 46.125 38.4 46.875C36.4 47.625 34.3 48 32.1 48Z" fill="white"/>
</svg>
