<svg width="60" height="60" viewBox="0 0 60 60" fill="none" xmlns="http://www.w3.org/2000/svg">
<rect width="60" height="60" rx="30" fill="#226679"/>
<path d="M14.0498 46C13.2498 46 12.5498 45.6917 11.9498 45.075C11.3498 44.4583 11.0498 43.7667 11.0498 43V17C11.0498 16.2333 11.3498 15.5417 11.9498 14.925C12.5498 14.3083 13.2498 14 14.0498 14H28.0498L31.0498 17H48.0498C48.8165 17 49.5081 17.3083 50.1248 17.925C50.7415 18.5417 51.0498 19.2333 51.0498 20V43C51.0498 43.7667 50.7415 44.4583 50.1248 45.075C49.5081 45.6917 48.8165 46 48.0498 46H14.0498ZM14.0498 17V43H48.0498V20H29.7998L26.7998 17H14.0498ZM14.0498 17V43V17Z" fill="white"/>
</svg>
