<?xml version="1.0" encoding="utf-8"?>
<!-- Generator: Adobe Illustrator 25.3.1, SVG Export Plug-In . SVG Version: 6.00 Build 0)  -->
<svg version="1.1" id="Layer_1" xmlns="http://www.w3.org/2000/svg" xmlns:xlink="http://www.w3.org/1999/xlink" x="0px" y="0px"
	 viewBox="0 0 1024 768" style="enable-background:new 0 0 1024 768;" xml:space="preserve">
<style type="text/css">
	.st0{fill:#075985;}
	.st1{fill-rule:evenodd;clip-rule:evenodd;fill:#FFDE16;}
	.st2{fill:#FFDE16;stroke:#000000;stroke-miterlimit:10;}
	.st3{fill:none;stroke:#FACC15;stroke-width:5;stroke-miterlimit:10;}
	.st4{fill:#FFFFFF;}
	.st5{opacity:0.12;}
	.st6{fill:none;}
	.st7{fill-rule:evenodd;clip-rule:evenodd;fill:#FFFFFF;}
</style>
<path class="st0" d="M1024,0v647.1c-38.3-1.6-79.4,48.6-114.3,40c-72-17.7-45.9-96.4-92-111.8C736.3,547.9,758,676.7,633.2,714
	c-136.8,27.8-243.5-91.1-270.7-14c-20.5,58.2-60.7,84.7-140.8,52.7C134,717.7,128,652.3,0,721.1V0H1024z"/>
<path class="st1" d="M750.8,1291.5"/>
<path class="st2" d="M717.1-512.5"/>
<path class="st2" d="M952.9-512.1"/>
<path class="st3" d="M0,305.4c44.2,19.6,66,14.8,76-4.3c10.6-20.4,7.1-57,3.2-96.8C75,161,70.4,113.9,83.4,80.4
	c17-44.1,64.9-64.5,185.7-21c32.8,11.9,67,22,101.5,29.6c82.2,18.1,166.1,21.8,237.4,0.3C659.3,73.9,704,45.4,737.1,0"/>
<path class="st2" d="M419.2-298.8"/>
<path class="st2" d="M422.1-394"/>
<path class="st2" d="M426.4-519.1"/>
<path class="st2" d="M616-541.9"/>
<path class="st4" d="M682.6,191.6H275.2c-2.4,0-4.3,1.9-4.3,4.3s1.9,4.3,4.3,4.3h403.1v403.2H196.6c-16.9,0-30.6-13.7-30.6-30.6
	c0-16.9,13.7-30.6,30.6-30.6h44.5c2.4,0,4.3-1.9,4.3-4.3V146c0-2.4-1.9-4.3-4.3-4.3h-35.3c-13,0-25.1,5.1-34.3,14.2
	c-9.2,9.2-14.2,21.3-14.2,34.3l0.1,382.5c0,21.6,17.6,39.2,39.2,39.2h486c2.4,0,4.3-1.9,4.3-4.3V195.9
	C686.9,193.5,684.9,191.6,682.6,191.6z M177.6,162c7.5-7.5,17.6-11.7,28.2-11.7h31v383.2h-40.2c-8.8,0-17.2,2.9-24.2,8.3l-6.5,5.1
	l-0.1-356.7C165.9,179.6,170,169.6,177.6,162z"/>
<g>
	<g class="st5">
		<rect x="812.7" y="36.4" width="115.8" height="25.7"/>
		<path d="M960.3,267.5v25.9c-65.8,2-128.9,25.1-179.6,66.5C825.8,306.2,890.3,273.5,960.3,267.5z"/>
		<path d="M921.8,113.5v143.2c-8.7,2.5-17.2,5.4-25.6,8.9V139.2h-12.8v132.2c-8.8,4.3-17.4,9.2-25.6,14.7V139.2H845v156.1
			c-9.2,7-17.7,14.6-25.6,22.8V113.5H921.8z"/>
		<path d="M986.4,113.9c0,21.5-17.4,38.9-38.8,38.9v-25.7c7.3,0,13.2-5.9,13.2-13.2s-5.9-13.2-13.2-13.2h-154
			c-7.3,0-13.2,5.9-13.2,13.2s5.9,13.2,13.2,13.2v25.7c-21.5,0-38.8-17.4-38.8-38.9S772.1,75,793.6,75c94.3,0,59.6,0,153.9,0
			C969,74.9,986.4,92.4,986.4,113.9z"/>
	</g>
	<rect x="717.1" class="st6" width="306.9" height="396.3"/>
</g>
<g>
	<path class="st7" d="M516.2,391.9c-1.5-3.2-2.2-6.7-2-10.3c4.6-2.8,8.7-6.8,11-9L513,354.3l10.3-9.2c5.1,9.7,8.2,16.6,8.9,18.2
		c0.6,2.7,0.8,5.1,0.5,7.1c-0.3,1.9-1.1,3.5-2.2,4.9L516.2,391.9z M488.4,397l18.8-36.1l6.9,10.4c-3.3,2.8-4.2,3.2-7.6,4.6
		c-0.9,5.4-1.2,9.2,0.3,14.7c1.4,5,3.5,8.3,6.8,12.3h-23.8L488.4,397z M436.2,393.9c-0.8-2.2-1.8-4.6-3.1-7.6
		c-1.1-2.7-2.6-6.3-4.7-11.1c8.8-2.3,22.1-9.2,28.6-17.2c4.2,0.7,8.5,1.6,12.6,2.6c-1.3,17.3-2.5,34.7-3.1,42.3H443L436.2,393.9z
		 M424.5,402.9v-6.1l-0.8-1.1c-5.6-7.9-9.6-15.2-18.5-24.3c0.1-0.4,0.4-0.8,0.9-1.4c2.8-2.3,5.2-5.6,7.2-8.4l0.4-0.6l11-4
		c6.8-0.9,14.1-0.9,21.6-0.3c-6,4.9-15.3,9.3-20.9,10.5l-0.4,0.1c-4.1,1.3-6.7,5.6-4.8,10.1l8.3,20.1l3.9,5.5H424.5z M387,394.3
		c0-0.9,0.4-4.9,5.4-19.3c1.4-1.4,2.8-2.8,4.3-4c-0.2,2,0.5,4.4,2,5.9c6.7,6.7,11.6,14,15.2,19.4l2.1,3.2v3.5h-25.7L387,394.3z
		 M336.7,334c-12.8,1.7-22.3-6.5-18.4-20l3.3-9.2c-0.1,1.4-0.4,3.2-1.1,5.3c-2.5,7.6-0.8,15.2,6.1,18.3c9.3,4.2,21.4-2.4,30.3-11.9
		c10.9-11.5,15.2-22.2,29.6-30.9c6.3-4.1,13.6-6.2,20.8-6.2c15.1,0,28.8,8.8,35,22.6c2.9,6.5,4,13.9,2.9,21.3
		c-4.8,19.2-14.8,22.8-26.8,27c-10,3.6-21.3,7.6-32.8,19.6l-0.9,1.5c-7.1,20.3-6,24.8-6,24.8l2.5,6.9h-8.7l-4.4-34
		c-0.6-4.7,0.6-7.1,3.1-10.5c5.5-7.6,4.4-13.4,3-21.2l-0.2-1.1c-1.1-4.5-1.4-9.1-1-13.6c0.5-4.5,1.8-9,3.8-13.1
		c-5.3-2.6-9.7,0.5-11.1,5.6C356,327.1,345.5,332.8,336.7,334z M304,296.2c5.2,0.4,10.5,3.8,8.6,8.8l-2.4,6.7
		c-3.6,12.6,1.1,24.3,12.6,29c13.4,5.5,29.5-0.7,41.8-11.8c0.1,3.1,0.6,6.2,1.4,9.3c1.2,5.7,1.9,10.9-1.5,15.4
		c-3.8,5-5.6,9.5-4.6,16.5l4.2,32.9h-26.1v8.5h243v-8.5H518l18.8-22.2c4.8-5.6,5.3-12.5,3.5-19.8c-0.2-0.8-4.1-9.7-11.4-23.2
		c1.5-2.2,2.9-4.5,4.2-7l0,0c5.3-9.7,12.4-16.7,22.5-17.8c-0.2,1.6-0.2,3.2,0,4.7c0.3,2.2,1,4.4,2,6.4c0.1,1.6,0.1,3.2-0.1,4.9
		c-0.2,2-0.7,4.1-1.4,6.3l-0.2,1.4c0.3,5.9,2.6,10.6,7.1,14.1c5.5,4.4,12.1,5.6,20.4,6.7l10.8-24.3l5.7-2.9l9.7-21
		c-9.2-4.4-14.5-12.7-19.3-20.4l-3-4.6c-11.1-15.6-23.8-29.3-38.4-38.1c-9.5-5.8-18.5-6.5-20.3,0.2c8.9,2.6,17.6,7.4,26.2,14.4
		c8.7,7.1,17.2,16.6,25.5,28.3c5.6,8.1,9.4,16.6,18.4,23.5l-5.3,11.5l-5.7,2.9l-9.4,21.2c-4.4-0.9-7.7-2.2-10-4
		c-2.3-1.8-3.5-4.2-3.8-7.1c0.7-2.4,1.2-4.8,1.5-7.2c0.3-2.6,0.3-5.1,0-7.6l-0.6-1.7c-3-5.1-1.1-11.9,4.3-14.6
		c-2.2-5.9-7.9-4.3-10.7-1.8c-6.6-0.1-12.6,1.6-18,5c-6,3.7-11.1,9.6-15.4,17.5h0c-3.1,5.7-6.4,10.4-9.9,14.2
		c-6.4,6.8-12.3,9.1-12.5,9.3l-23.8,45.7l1.6,7.1h-5.9c1-13.5,3.8-53.5,5.5-74.5c-5.7,0-8.7,2.1-9.3,9.8l-1,13.8
		c-9.4-2.3-19.3-3.8-28.9-4.2c5.1-4.7,9.3-11.5,12-22.8l0.1-0.4c6-39.2-36.8-68.5-71.7-46.2c-10.8,6.6-16.2,13.7-22,21.2
		c-6.6,8.6-15.7,20.1-25.6,21.4c-5.8,0.8-7.5-2.8-5.7-8.3c9.7-29.2-38-29.4-49.6-15.7c11.8-1.9,10.7,12.8,31.8,6.6
		c-1.6-3.1-7.3-6.6-11.5-7.2C300.9,296.2,302.4,296.1,304,296.2z"/>
	<path class="st7" d="M432.4,265c0,5.8,4.6,9.1,15,6.4c15.8-4,30.3-13.5,43.4-25.5c15.9-13.3,32.1-17,48.7-11.3
		c17.2,5.9,35.2,21.9,53.8,48c9.6,13.9,19.4,23.9,29.4,29.9c8.3,4.9,25.7,11.8,30.3-2.4c-21.8,4.7-39.6-13.3-52.8-32.4
		c-19.6-27.5-38.9-44.5-57.9-51.1c-19.6-6.8-38.6-2.5-56.9,12.8c-9.3,8.5-17.8,14.7-27,19C449.7,262.7,441,264.8,432.4,265"/>
</g>
<g>
	<path class="st4" d="M366.9,587.1c-3.2,0-5.9-0.1-8.1-0.4c-2.4-0.3-4.3-0.7-5.9-1.3c-2-0.7-3.5-1.7-4.5-3c-1.2-1.4-1.8-3.2-1.8-5.1
		V437.7c0-4.8,1.4-8.5,4.2-11c2.6-2.3,5.8-3.4,9.6-3.4h72.5c1.7,0,3.3,0.6,4.7,1.6c1.2,0.9,2.1,2.2,2.8,3.9c0.6,1.4,1,3.1,1.3,5.3
		c0.2,1.8,0.3,4.1,0.3,6.6c0,2.5-0.1,4.7-0.3,6.6c-0.3,2.1-0.7,3.8-1.3,5.2c-0.7,1.6-1.6,2.8-2.6,3.7c-1.4,1.2-3,1.8-4.8,1.8h-45.9
		v32.4h42.8c1.6,0,3.2,0.5,4.5,1.4c1.2,0.9,2.2,2.1,3,3.8c0.6,1.4,1.1,3.1,1.3,5.1c0.2,1.8,0.3,3.9,0.3,6.5c0,2.5-0.1,4.7-0.3,6.5
		c-0.3,2-0.7,3.7-1.3,5.1c-0.7,1.8-1.7,3.1-2.9,4c-1.3,1.1-3,1.6-4.7,1.6h-42.8v52.9c0,1.8-0.6,3.6-1.6,5c-1,1.4-2.6,2.4-4.7,3.2
		c-1.5,0.5-3.4,1-5.8,1.2C372.8,586.9,370.1,587.1,366.9,587.1z M355.6,576.8c0.1,0,0.2,0.1,0.4,0.2c0.6,0.2,1.7,0.5,3.8,0.8
		c1.8,0.2,4.2,0.3,7,0.3c2.9,0,5.3-0.1,7.1-0.3c2.1-0.2,3.2-0.6,3.8-0.8c0.1,0,0.2-0.1,0.3-0.1v-61.4h51c0,0,0-0.1,0-0.1
		c0.2-0.4,0.4-1.3,0.6-2.7c0.2-1.4,0.3-3.2,0.3-5.4c0-2.2-0.1-4-0.3-5.4c-0.2-1.5-0.4-2.2-0.6-2.5h-51.1v-50.4h54.1
		c0-0.1,0.1-0.1,0.1-0.2c0.1-0.2,0.4-1,0.6-2.5c0.2-1.4,0.3-3.3,0.3-5.5c0-2.2-0.1-4-0.3-5.5c-0.2-1.6-0.5-2.4-0.6-2.7
		c0,0,0-0.1,0-0.1h-71.7c-1.5,0-2.7,0.4-3.7,1.2c-0.7,0.6-1.1,2.1-1.1,4.2V576.8z M378.5,576.6L378.5,576.6L378.5,576.6z
		 M355.3,576.6L355.3,576.6L355.3,576.6z M428.8,515.9L428.8,515.9L428.8,515.9z M431.9,431.8L431.9,431.8L431.9,431.8z"/>
	<path class="st4" d="M556.3,587.1c-3.8,0-6.9-0.1-9.1-0.2c-2.5-0.2-4.4-0.5-6-0.9c-2.1-0.6-3.7-1.6-4.8-2.8c-0.8-1-1.5-2.1-2.1-3.4
		l-24.9-47.8l-24.8,47.9c-0.6,1.2-1.3,2.3-2.2,3.3c-1.1,1.3-2.7,2.2-4.8,2.8c-1.6,0.4-3.5,0.8-6.1,0.9c-2.3,0.2-5.3,0.2-9,0.2
		c-4.3,0-7.6-0.1-10.1-0.4c-3.4-0.4-5.9-1.4-7.5-3.1c-1.1-1.2-2.7-3.8-1.5-8.1c0.6-2,1.7-4.5,3.3-7.6l35.7-65.1l-33.2-61.2
		c-1.6-3.1-2.6-5.6-3.2-7.6c-1.4-4.6,0.6-7.3,1.9-8.4c1.7-1.6,4.2-2.4,7.7-2.7c2.6-0.2,6.2-0.3,10.8-0.3c3.8,0,6.9,0.1,9.2,0.2
		c2.5,0.2,4.5,0.5,6.1,0.9c2.2,0.6,3.8,1.6,5,3c0.7,0.9,1.4,2,2,3.2l23,43.3l22.4-43.3c0.6-1.2,1.3-2.3,2-3.2
		c1.1-1.3,2.7-2.3,4.7-2.9c1.5-0.5,3.4-0.8,5.7-1c2.1-0.2,5.1-0.3,8.8-0.3c4.1,0,7.4,0.1,9.8,0.3c3.4,0.3,5.9,1.2,7.6,2.9
		c1.2,1.2,3,3.8,1.8,8.1c-0.5,2-1.5,4.4-3,7.6l-0.1,0.2l-33.1,60.7l35.4,65.6c1.6,3.1,2.6,5.6,3.2,7.6c1.2,4.5-0.8,7.1-2.1,8.3
		c-1.7,1.6-4.2,2.5-7.8,2.8C564.5,586.9,560.8,587.1,556.3,587.1z M568.4,578.2L568.4,578.2L568.4,578.2z M543,577
		c0.1,0,0.3,0.1,0.6,0.2c0.6,0.2,1.9,0.4,4.1,0.6c2,0.1,4.9,0.2,8.5,0.2c4.3,0,7.6-0.1,10-0.3c0.9-0.1,1.5-0.2,1.9-0.3
		c-0.3-1-1-2.6-2.3-5.3l-37.7-69.7l35.4-64.9c1.3-2.8,1.9-4.5,2.2-5.5c-0.3-0.1-0.8-0.1-1.3-0.2c-2.2-0.2-5.2-0.3-9-0.3
		c-3.4,0-6.1,0.1-8,0.2c-2.1,0.2-3.2,0.4-3.8,0.6c-0.2,0.1-0.4,0.1-0.5,0.2c-0.3,0.4-0.6,0.8-0.8,1.4L512,492.6l-31.1-58.7
		c-0.3-0.5-0.5-1-0.8-1.4c-0.1,0-0.3-0.1-0.6-0.2c-0.7-0.2-2-0.4-4.3-0.6c-2.1-0.2-4.9-0.2-8.5-0.2c-4.4,0-7.8,0.1-10.1,0.3
		c-0.6,0.1-1.1,0.1-1.5,0.2c0.5,1.4,1.3,3.2,2.4,5.4l35.4,65.3l-38.1,69.4c-1.5,2.7-2.1,4.3-2.5,5.3c0.3,0.1,0.6,0.1,1.1,0.2
		c2.1,0.2,5.2,0.3,9.1,0.3c3.4,0,6.2-0.1,8.3-0.2c2.3-0.2,3.6-0.4,4.2-0.6c0.3-0.1,0.5-0.2,0.6-0.2c0.2-0.3,0.5-0.7,0.8-1.3
		l32.8-63.4l33.1,63.6C542.7,576.5,542.9,576.8,543,577z M451.5,577.3L451.5,577.3L451.5,577.3z M480.2,432.6L480.2,432.6
		L480.2,432.6z M454.1,432.3L454.1,432.3L454.1,432.3z"/>
</g>
</svg>
