<svg width="800" height="800" viewBox="0 0 800 800" fill="none" xmlns="http://www.w3.org/2000/svg">
<g clip-path="url(#clip0_1_47)">
<path d="M800 0V675.438C770.078 673.768 737.969 726.167 710.703 717.19C654.453 698.715 674.844 616.568 638.828 600.494C575.234 571.894 592.188 706.335 494.688 745.268C387.813 774.286 304.453 650.179 283.203 730.655C267.188 791.404 235.781 819.064 173.203 785.663C104.688 749.13 100 680.866 0 752.679V0H800Z" fill="#226679"/>
<path d="M0 305.4C44.2 325 66 320.2 76 301.1C86.6 280.7 83.1 244.1 79.2 204.3C75 161 70.4 113.9 83.4 80.4C100.4 36.3 148.3 15.9 269.1 59.4C301.9 71.3 336.1 81.4 370.6 89C452.8 107.1 536.7 110.8 608 89.3C659.3 73.9 704 45.4 737.1 0" stroke="#FACC15" stroke-width="5" stroke-miterlimit="10"/>
<path d="M682.6 156.6H275.2C272.8 156.6 270.9 158.5 270.9 160.9C270.9 163.3 272.8 165.2 275.2 165.2H678.3V568.4H196.6C179.7 568.4 166 554.7 166 537.8C166 520.9 179.7 507.2 196.6 507.2H241.1C243.5 507.2 245.4 505.3 245.4 502.9V111C245.4 108.6 243.5 106.7 241.1 106.7H205.8C192.8 106.7 180.7 111.8 171.5 120.9C162.3 130.1 157.3 142.2 157.3 155.2L157.4 537.7C157.4 559.3 175 576.9 196.6 576.9H682.6C685 576.9 686.9 575 686.9 572.6V160.9C686.9 158.5 684.9 156.6 682.6 156.6ZM177.6 127C185.1 119.5 195.2 115.3 205.8 115.3H236.8V498.5H196.6C187.8 498.5 179.4 501.4 172.4 506.8L165.9 511.9L165.8 155.2C165.9 144.6 170 134.6 177.6 127Z" fill="white"/>
<path fill-rule="evenodd" clip-rule="evenodd" d="M516.2 356.9C514.7 353.7 514 350.2 514.2 346.6C518.8 343.8 522.9 339.8 525.2 337.6L513 319.3L523.3 310.1C528.4 319.8 531.5 326.7 532.2 328.3C532.8 331 533 333.4 532.7 335.4C532.4 337.3 531.6 338.9 530.5 340.3L516.2 356.9ZM488.4 362L507.2 325.9L514.1 336.3C510.8 339.1 509.9 339.5 506.5 340.9C505.6 346.3 505.3 350.1 506.8 355.6C508.2 360.6 510.3 363.9 513.6 367.9H489.8L488.4 362ZM436.2 358.9C435.4 356.7 434.4 354.3 433.1 351.3C432 348.6 430.5 345 428.4 340.2C437.2 337.9 450.5 331 457 323C461.2 323.7 465.5 324.6 469.6 325.6C468.3 342.9 467.1 360.3 466.5 367.9H443L436.2 358.9ZM424.5 367.9V361.8L423.7 360.7C418.1 352.8 414.1 345.5 405.2 336.4C405.3 336 405.6 335.6 406.1 335C408.9 332.7 411.3 329.4 413.3 326.6L413.7 326L424.7 322C431.5 321.1 438.8 321.1 446.3 321.7C440.3 326.6 431 331 425.4 332.2L425 332.3C420.9 333.6 418.3 337.9 420.2 342.4L428.5 362.5L432.4 368H424.5V367.9ZM387 359.3C387 358.4 387.4 354.4 392.4 340C393.8 338.6 395.2 337.2 396.7 336C396.5 338 397.2 340.4 398.7 341.9C405.4 348.6 410.3 355.9 413.9 361.3L416 364.5V368H390.3L387 359.3ZM336.7 299C323.9 300.7 314.4 292.5 318.3 279L321.6 269.8C321.5 271.2 321.2 273 320.5 275.1C318 282.7 319.7 290.3 326.6 293.4C335.9 297.6 348 291 356.9 281.5C367.8 270 372.1 259.3 386.5 250.6C392.8 246.5 400.1 244.4 407.3 244.4C422.4 244.4 436.1 253.2 442.3 267C445.2 273.5 446.3 280.9 445.2 288.3C440.4 307.5 430.4 311.1 418.4 315.3C408.4 318.9 397.1 322.9 385.6 334.9L384.7 336.4C377.6 356.7 378.7 361.2 378.7 361.2L381.2 368.1H372.5L368.1 334.1C367.5 329.4 368.7 327 371.2 323.6C376.7 316 375.6 310.2 374.2 302.4L374 301.3C372.9 296.8 372.6 292.2 373 287.7C373.5 283.2 374.8 278.7 376.8 274.6C371.5 272 367.1 275.1 365.7 280.2C356 292.1 345.5 297.8 336.7 299ZM304 261.2C309.2 261.6 314.5 265 312.6 270L310.2 276.7C306.6 289.3 311.3 301 322.8 305.7C336.2 311.2 352.3 305 364.6 293.9C364.7 297 365.2 300.1 366 303.2C367.2 308.9 367.9 314.1 364.5 318.6C360.7 323.6 358.9 328.1 359.9 335.1L364.1 368H338V376.5H581V368H518L536.8 345.8C541.6 340.2 542.1 333.3 540.3 326C540.1 325.2 536.2 316.3 528.9 302.8C530.4 300.6 531.8 298.3 533.1 295.8C538.4 286.1 545.5 279.1 555.6 278C555.4 279.6 555.4 281.2 555.6 282.7C555.9 284.9 556.6 287.1 557.6 289.1C557.7 290.7 557.7 292.3 557.5 294C557.3 296 556.8 298.1 556.1 300.3L555.9 301.7C556.2 307.6 558.5 312.3 563 315.8C568.5 320.2 575.1 321.4 583.4 322.5L594.2 298.2L599.9 295.3L609.6 274.3C600.4 269.9 595.1 261.6 590.3 253.9L587.3 249.3C576.2 233.7 563.5 220 548.9 211.2C539.4 205.4 530.4 204.7 528.6 211.4C537.5 214 546.2 218.8 554.8 225.8C563.5 232.9 572 242.4 580.3 254.1C585.9 262.2 589.7 270.7 598.7 277.6L593.4 289.1L587.7 292L578.3 313.2C573.9 312.3 570.6 311 568.3 309.2C566 307.4 564.8 305 564.5 302.1C565.2 299.7 565.7 297.3 566 294.9C566.3 292.3 566.3 289.8 566 287.3L565.4 285.6C562.4 280.5 564.3 273.7 569.7 271C567.5 265.1 561.8 266.7 559 269.2C552.4 269.1 546.4 270.8 541 274.2C535 277.9 529.9 283.8 525.6 291.7C522.5 297.4 519.2 302.1 515.7 305.9C509.3 312.7 503.4 315 503.2 315.2L479.4 360.9L481 368H475.1C476.1 354.5 478.9 314.5 480.6 293.5C474.9 293.5 471.9 295.6 471.3 303.3L470.3 317.1C460.9 314.8 451 313.3 441.4 312.9C446.5 308.2 450.7 301.4 453.4 290.1L453.5 289.7C459.5 250.5 416.7 221.2 381.8 243.5C371 250.1 365.6 257.2 359.8 264.7C353.2 273.3 344.1 284.8 334.2 286.1C328.4 286.9 326.7 283.3 328.5 277.8C338.2 248.6 290.5 248.4 278.9 262.1C290.7 260.2 289.6 274.9 310.7 268.7C309.1 265.6 303.4 262.1 299.2 261.5C300.9 261.2 302.4 261.1 304 261.2Z" fill="white"/>
<path fill-rule="evenodd" clip-rule="evenodd" d="M432.4 230C432.4 235.8 437 239.1 447.4 236.4C463.2 232.4 477.7 222.9 490.8 210.9C506.7 197.6 522.9 193.9 539.5 199.6C556.7 205.5 574.7 221.5 593.3 247.6C602.9 261.5 612.7 271.5 622.7 277.5C631 282.4 648.4 289.3 653 275.1C631.2 279.8 613.4 261.8 600.2 242.7C580.6 215.2 561.3 198.2 542.3 191.6C522.7 184.8 503.7 189.1 485.4 204.4C476.1 212.9 467.6 219.1 458.4 223.4C449.7 227.7 441 229.8 432.4 230Z" fill="white"/>
<path d="M366.9 552.1C363.7 552.1 361 552 358.8 551.7C356.4 551.4 354.5 551 352.9 550.4C350.9 549.7 349.4 548.7 348.4 547.4C347.2 546 346.6 544.2 346.6 542.3V402.7C346.6 397.9 348 394.2 350.8 391.7C353.4 389.4 356.6 388.3 360.4 388.3H432.9C434.6 388.3 436.2 388.9 437.6 389.9C438.8 390.8 439.7 392.1 440.4 393.8C441 395.2 441.4 396.9 441.7 399.1C441.9 400.9 442 403.2 442 405.7C442 408.2 441.9 410.4 441.7 412.3C441.4 414.4 441 416.1 440.4 417.5C439.7 419.1 438.8 420.3 437.8 421.2C436.4 422.4 434.8 423 433 423H387.1V455.4H429.9C431.5 455.4 433.1 455.9 434.4 456.8C435.6 457.7 436.6 458.9 437.4 460.6C438 462 438.5 463.7 438.7 465.7C438.9 467.5 439 469.6 439 472.2C439 474.7 438.9 476.9 438.7 478.7C438.4 480.7 438 482.4 437.4 483.8C436.7 485.6 435.7 486.9 434.5 487.8C433.2 488.9 431.5 489.4 429.8 489.4H387V542.3C387 544.1 386.4 545.9 385.4 547.3C384.4 548.7 382.8 549.7 380.7 550.5C379.2 551 377.3 551.5 374.9 551.7C372.8 551.9 370.1 552.1 366.9 552.1ZM355.6 541.8C355.7 541.8 355.8 541.9 356 542C356.6 542.2 357.7 542.5 359.8 542.8C361.6 543 364 543.1 366.8 543.1C369.7 543.1 372.1 543 373.9 542.8C376 542.6 377.1 542.2 377.7 542C377.8 542 377.9 541.9 378 541.9V480.5H429V480.4C429.2 480 429.4 479.1 429.6 477.7C429.8 476.3 429.9 474.5 429.9 472.3C429.9 470.1 429.8 468.3 429.6 466.9C429.4 465.4 429.2 464.7 429 464.4H377.9V414H432C432 413.9 432.1 413.9 432.1 413.8C432.2 413.6 432.5 412.8 432.7 411.3C432.9 409.9 433 408 433 405.8C433 403.6 432.9 401.8 432.7 400.3C432.5 398.7 432.2 397.9 432.1 397.6V397.5H360.4C358.9 397.5 357.7 397.9 356.7 398.7C356 399.3 355.6 400.8 355.6 402.9V541.8V541.8Z" fill="white"/>
<path d="M556.3 552.1C552.5 552.1 549.4 552 547.2 551.9C544.7 551.7 542.8 551.4 541.2 551C539.1 550.4 537.5 549.4 536.4 548.2C535.6 547.2 534.9 546.1 534.3 544.8L509.4 497L484.6 544.9C484 546.1 483.3 547.2 482.4 548.2C481.3 549.5 479.7 550.4 477.6 551C476 551.4 474.1 551.8 471.5 551.9C469.2 552.1 466.2 552.1 462.5 552.1C458.2 552.1 454.9 552 452.4 551.7C449 551.3 446.5 550.3 444.9 548.6C443.8 547.4 442.2 544.8 443.4 540.5C444 538.5 445.1 536 446.7 532.9L482.4 467.8L449.2 406.6C447.6 403.5 446.6 401 446 399C444.6 394.4 446.6 391.7 447.9 390.6C449.6 389 452.1 388.2 455.6 387.9C458.2 387.7 461.8 387.6 466.4 387.6C470.2 387.6 473.3 387.7 475.6 387.8C478.1 388 480.1 388.3 481.7 388.7C483.9 389.3 485.5 390.3 486.7 391.7C487.4 392.6 488.1 393.7 488.7 394.9L511.7 438.2L534.1 394.9C534.7 393.7 535.4 392.6 536.1 391.7C537.2 390.4 538.8 389.4 540.8 388.8C542.3 388.3 544.2 388 546.5 387.8C548.6 387.6 551.6 387.5 555.3 387.5C559.4 387.5 562.7 387.6 565.1 387.8C568.5 388.1 571 389 572.7 390.7C573.9 391.9 575.7 394.5 574.5 398.8C574 400.8 573 403.2 571.5 406.4L571.4 406.6L538.3 467.3L573.7 532.9C575.3 536 576.3 538.5 576.9 540.5C578.1 545 576.1 547.6 574.8 548.8C573.1 550.4 570.6 551.3 567 551.6C564.5 551.9 560.8 552.1 556.3 552.1ZM543 542C543.1 542 543.3 542.1 543.6 542.2C544.2 542.4 545.5 542.6 547.7 542.8C549.7 542.9 552.6 543 556.2 543C560.5 543 563.8 542.9 566.2 542.7C567.1 542.6 567.7 542.5 568.1 542.4C567.8 541.4 567.1 539.8 565.8 537.1L528.1 467.4L563.5 402.5C564.8 399.7 565.4 398 565.7 397C565.4 396.9 564.9 396.9 564.4 396.8C562.2 396.6 559.2 396.5 555.4 396.5C552 396.5 549.3 396.6 547.4 396.7C545.3 396.9 544.2 397.1 543.6 397.3C543.4 397.4 543.2 397.4 543.1 397.5C542.8 397.9 542.5 398.3 542.3 398.9L512 457.6L480.9 398.9C480.6 398.4 480.4 397.9 480.1 397.5C480 397.5 479.8 397.4 479.5 397.3C478.8 397.1 477.5 396.9 475.2 396.7C473.1 396.5 470.3 396.5 466.7 396.5C462.3 396.5 458.9 396.6 456.6 396.8C456 396.9 455.5 396.9 455.1 397C455.6 398.4 456.4 400.2 457.5 402.4L492.9 467.7L454.8 537.1C453.3 539.8 452.7 541.4 452.3 542.4C452.6 542.5 452.9 542.5 453.4 542.6C455.5 542.8 458.6 542.9 462.5 542.9C465.9 542.9 468.7 542.8 470.8 542.7C473.1 542.5 474.4 542.3 475 542.1C475.3 542 475.5 541.9 475.6 541.9C475.8 541.6 476.1 541.2 476.4 540.6L509.2 477.2L542.3 540.8C542.7 541.5 542.9 541.8 543 542Z" fill="white"/>
</g>
<defs>
<clipPath id="clip0_1_47">
<rect width="800" height="800" fill="white"/>
</clipPath>
</defs>
</svg>
