<svg width="800" height="800" viewBox="0 0 800 800" fill="none" xmlns="http://www.w3.org/2000/svg">
<g clip-path="url(#clip0_1_64)">
<path d="M800 0V675.438C770.078 673.768 737.969 726.167 710.703 717.19C654.453 698.715 674.844 616.568 638.828 600.494C575.234 571.894 592.188 706.335 494.688 745.268C387.813 774.286 304.453 650.179 283.203 730.655C267.188 791.404 235.781 819.064 173.203 785.663C104.688 749.13 100 680.866 0 752.679V0H800Z" fill="#226679"/>
<path d="M0 305.4C44.2 325 66 320.2 76 301.1C86.6 280.7 83.1 244.1 79.2 204.3C75 161 70.4 113.9 83.4 80.4C100.4 36.3 148.3 15.9 269.1 59.4C301.9 71.3 336.1 81.4 370.6 89C452.8 107.1 536.7 110.8 608 89.3C659.3 73.9 704 45.4 737.1 0" stroke="#FACC15" stroke-width="5" stroke-miterlimit="10"/>
<path d="M450.7 524.8L449.3 524L443.5 503.2C443.5 503 443.4 502.8 443.3 502.6C437.5 490 427.3 480 414.5 474.5L404 470L407.2 465.8C413.5 457.5 416.9 447.7 416.9 437.4C416.9 411.6 395.9 390.6 370.1 390.6C344.3 390.6 323.3 411.6 323.3 437.4C323.3 447.9 326.8 457.9 333.4 466.3L336.7 470.5L327.5 474.4C314.7 479.9 304.5 489.9 298.7 502.5C298.6 502.7 298.5 502.9 298.5 503.2L293.1 522.5L291.6 523.3C270.9 534.3 258 555.7 258 579.2V643C258 645.4 259.9 647.2 262.2 647.2C264.6 647.2 266.4 645.3 266.4 643V579.3C266.4 549 291 524.5 321.2 524.5H418.1C448.4 524.5 472.9 549.1 472.9 579.3V643C472.9 645.4 474.8 647.2 477.1 647.2C479.4 647.2 481.3 645.3 481.3 643V579.3C481.7 557.1 469.8 536.2 450.7 524.8ZM331.9 437.4C331.9 416.3 349 399.1 370.1 399.1C391.2 399.1 408.4 416.2 408.4 437.4C408.4 458.5 391.3 475.7 370.1 475.7C349.1 475.7 331.9 458.6 331.9 437.4ZM432.3 517.4C427.7 516.4 423 515.9 418.4 515.9H321.5C317.7 515.9 313.7 516.3 309.8 517L303.3 518.2L306.7 505.8L306.8 505.5C311.8 495.1 320.3 486.8 331 482.3L344.5 476.5L346.3 477.5C353.5 481.8 361.8 484.1 370.2 484.1C378.9 484.1 387.3 481.7 394.7 477.1L396.6 476L411.2 482.2C421.8 486.7 430.4 495 435.4 505.4L435.5 505.7L439.1 518.9L432.3 517.4Z" fill="white"/>
<path d="M636.3 509.2L497.3 305.8C496.4 304.5 494.9 303.7 493.4 303.7H485.8L485.5 300.5C485.1 296.9 484 293.4 482 290.3L456.8 248.8C453.2 242.9 448.1 238.1 442 234.9L407.9 216.8L410.1 213.5C415 205.9 417.5 197.1 417.5 188.1C417.5 162 396.3 140.8 370.2 140.8C344.2 140.8 322.9 162 322.9 188.1C322.9 197.5 325.7 206.6 331 214.4L333.3 217.7L301.1 234.8C295 238 289.8 242.9 286.3 248.7L261.1 290.2C259.2 293.3 258 296.8 257.6 300.4L257.3 303.6H249C247.5 303.6 245.9 304.4 245.1 305.7L109.2 509.2C108.3 510.6 108.2 512.5 109 514.2C109.8 515.7 111.5 516.7 113.2 516.7H257.7C260.3 516.7 262.4 514.5 262.4 512C262.4 509.5 260.2 507.3 257.7 507.3H121.9L251.4 313.4H259.5L260.5 315.3C262.3 318.5 264.6 321.2 267.5 323.4L321.1 362.6C324.3 364.9 328 366.1 331.9 366.1C336.4 366.1 340.9 364.4 344.2 361.5C348.1 358 350.4 352.9 350.3 347.6C350.3 342.3 347.9 337.3 343.8 333.8L312.9 308.3H432.7L399 333.7C399 333.7 398.9 333.8 398.8 333.9C394.8 337.3 392.4 342.4 392.4 347.6C392.4 352.9 394.6 358 398.5 361.5C401.9 364.5 406.2 366.1 410.8 366.1C414.7 366.1 418.5 364.9 421.6 362.6L475.2 323.4C478.1 321.2 480.5 318.5 482.3 315.3L483.3 313.4H490.7L623.2 507.3H479.8C477.2 507.3 475.1 509.5 475.1 512C475.1 514.5 477.3 516.7 479.8 516.7H632.3C634.1 516.7 635.7 515.8 636.5 514.1C637.5 512.5 637.4 510.6 636.3 509.2ZM332.5 188C332.5 167.1 349.4 150.2 370.3 150.2C391.2 150.2 408 167.1 408 188C408 208.9 391.1 225.8 370.2 225.8C349.4 225.7 332.5 208.8 332.5 188ZM469.7 315.4L416.1 354.6C412.7 357.1 408 356.9 404.9 354.1C402.3 351.7 401.9 348.8 401.9 347.4C401.9 346 402.3 343.3 404.7 341L405 340.8L449.4 307.4C450.4 306.7 451.1 305.4 451.3 304.2C451.4 303 451.1 301.6 450.3 300.6L422.6 266.5C420.9 264.4 418 264.1 415.9 265.8C415 266.6 414.4 267.8 414.1 269C414 270.2 414.3 271.5 415.1 272.5L438.6 301.5H302.2L325.6 274.2C327.3 272.2 327 269.1 325.1 267.5C324.2 266.7 322.9 266.3 321.6 266.4C320.4 266.5 319.1 267.1 318.3 268.1L293.3 297.2C292.5 298.1 292.1 299.5 292.2 300.7C292.3 301.9 292.9 303.2 293.9 304L337.8 340.9C340.5 343.2 340.9 346.1 340.9 347.6C340.9 350.2 339.9 352.7 337.9 354.3C336.2 355.7 334.1 356.6 332 356.6C330.1 356.6 328.3 356.1 326.7 354.8L273.1 315.6C266.7 311 264.9 302.2 269.1 295.4L294.3 253.9C297 249.5 300.8 245.8 305.5 243.4L340.5 224.8L342.4 226.1C350.6 232.2 360.3 235.4 370.4 235.4C380.9 235.4 390.9 232 399.4 225.4L401.3 224L437.7 243.3C442.2 245.7 446.2 249.4 448.9 253.8L474.1 295.3C477.9 301.9 476.2 310.6 469.7 315.4Z" fill="white"/>
</g>
<defs>
<clipPath id="clip0_1_64">
<rect width="800" height="800" fill="white"/>
</clipPath>
</defs>
</svg>
