<?xml version="1.0" encoding="UTF-8"?> <svg xmlns="http://www.w3.org/2000/svg" width="1821" height="496" viewBox="0 0 1821 496" fill="none"> <path d="M217.725 67.2734C216.016 67.2734 214.535 67.957 213.281 69.3242L129.712 162.635L46.3135 69.3242C45.0602 67.957 43.5791 67.2734 41.8701 67.2734H31.958C30.4769 67.2734 29.7363 68.014 29.7363 69.4951V309.778C29.7363 311.259 30.4769 312 31.958 312H57.251C58.7321 312 59.4727 311.259 59.4727 309.778V128.626L128.174 205.359C129.199 206.499 130.282 206.499 131.421 205.359L200.293 128.455V309.778C200.293 311.259 201.034 312 202.515 312H227.808C229.289 312 230.029 311.259 230.029 309.778V69.4951C230.029 68.014 229.289 67.2734 227.808 67.2734H217.725ZM347.437 186.561L378.369 112.22L409.131 186.561H347.437ZM366.406 66.7607C365.495 66.7607 364.811 67.2165 364.355 68.1279L264.38 308.924C264.038 309.607 264.095 310.291 264.551 310.975C265.007 311.658 265.633 312 266.431 312H293.774C294.8 312 295.483 311.544 295.825 310.633L334.961 216.297H421.606L460.742 310.633C461.084 311.544 461.768 312 462.793 312H490.137C490.934 312 491.561 311.658 492.017 310.975C492.472 310.291 492.529 309.607 492.188 308.924L392.212 68.1279C391.87 67.2165 391.187 66.7607 390.161 66.7607H366.406ZM675.391 67.1025C673.91 67.1025 673.169 67.8431 673.169 69.3242V243.299L541.919 68.1279C541.463 67.4443 540.894 67.1025 540.21 67.1025H528.931C527.45 67.1025 526.709 67.8431 526.709 69.3242V309.778C526.709 311.259 527.45 312 528.931 312H554.224C555.705 312 556.445 311.259 556.445 309.778V137L686.841 311.146C687.297 311.715 687.866 312 688.55 312H700.684C702.165 312 702.905 311.259 702.905 309.778V69.3242C702.905 67.8431 702.165 67.1025 700.684 67.1025H675.391ZM1044.19 67.2734C1042.48 67.2734 1041 67.957 1039.75 69.3242L956.177 162.635L872.778 69.3242C871.525 67.957 870.044 67.2734 868.335 67.2734H858.423C856.942 67.2734 856.201 68.014 856.201 69.4951V309.778C856.201 311.259 856.942 312 858.423 312H883.716C885.197 312 885.938 311.259 885.938 309.778V128.626L954.639 205.359C955.664 206.499 956.746 206.499 957.886 205.359L1026.76 128.455V309.778C1026.76 311.259 1027.5 312 1028.98 312H1054.27C1055.75 312 1056.49 311.259 1056.49 309.778V69.4951C1056.49 68.014 1055.75 67.2734 1054.27 67.2734H1044.19ZM1173.9 186.561L1204.83 112.22L1235.6 186.561H1173.9ZM1192.87 66.7607C1191.96 66.7607 1191.28 67.2165 1190.82 68.1279L1090.84 308.924C1090.5 309.607 1090.56 310.291 1091.02 310.975C1091.47 311.658 1092.1 312 1092.9 312H1120.24C1121.26 312 1121.95 311.544 1122.29 310.633L1161.43 216.297H1248.07L1287.21 310.633C1287.55 311.544 1288.23 312 1289.26 312H1316.6C1317.4 312 1318.03 311.658 1318.48 310.975C1318.94 310.291 1318.99 309.607 1318.65 308.924L1218.68 68.1279C1218.33 67.2165 1217.65 66.7607 1216.63 66.7607H1192.87ZM1541.16 67.2734C1539.45 67.2734 1537.97 67.957 1536.72 69.3242L1453.15 162.635L1369.75 69.3242C1368.5 67.957 1367.02 67.2734 1365.31 67.2734H1355.4C1353.91 67.2734 1353.17 68.014 1353.17 69.4951V309.778C1353.17 311.259 1353.91 312 1355.4 312H1380.69C1382.17 312 1382.91 311.259 1382.91 309.778V128.626L1451.61 205.359C1452.64 206.499 1453.72 206.499 1454.86 205.359L1523.73 128.455V309.778C1523.73 311.259 1524.47 312 1525.95 312H1551.25C1552.73 312 1553.47 311.259 1553.47 309.778V69.4951C1553.47 68.014 1552.73 67.2734 1551.25 67.2734H1541.16ZM1670.87 186.561L1701.81 112.22L1732.57 186.561H1670.87ZM1689.84 66.7607C1688.93 66.7607 1688.25 67.2165 1687.79 68.1279L1587.82 308.924C1587.48 309.607 1587.53 310.291 1587.99 310.975C1588.44 311.658 1589.07 312 1589.87 312H1617.21C1618.24 312 1618.92 311.544 1619.26 310.633L1658.4 216.297H1745.04L1784.18 310.633C1784.52 311.544 1785.21 312 1786.23 312H1813.57C1814.37 312 1815 311.658 1815.45 310.975C1815.91 310.291 1815.97 309.607 1815.62 308.924L1715.65 68.1279C1715.31 67.2165 1714.62 66.7607 1713.6 66.7607H1689.84Z" fill="#004052"></path> <path d="M766.138 67.2734C764.657 67.2734 763.916 68.014 763.916 69.4951V309.778C763.916 311.259 764.657 312 766.138 312H792.969C794.45 312 795.19 311.259 795.19 309.778V69.4951C795.19 68.014 794.45 67.2734 792.969 67.2734H766.138Z" fill="#952539"></path> <path d="M189.569 454.456V383.184C189.569 382.684 189.32 382.435 188.82 382.435H179.774C179.275 382.435 179.025 382.684 179.025 383.184V464.251C179.025 464.75 179.275 465 179.774 465H225.638C226.137 465 226.387 464.75 226.387 464.251V455.205C226.387 454.706 226.137 454.456 225.638 454.456H189.569ZM239.927 382.492C239.427 382.492 239.178 382.742 239.178 383.241V464.251C239.178 464.75 239.427 465 239.927 465H293.511C294.01 465 294.26 464.75 294.26 464.251V455.263C294.26 454.763 294.01 454.514 293.511 454.514H249.664V428.989H281.411C281.91 428.989 282.16 428.74 282.16 428.24V419.252C282.16 418.753 281.91 418.503 281.411 418.503H249.664V392.979H293.511C294.01 392.979 294.26 392.729 294.26 392.229V383.241C294.26 382.742 294.01 382.492 293.511 382.492H239.927ZM350.84 422.363C350.34 422.363 350.091 422.613 350.091 423.112V432.101C350.091 432.6 350.34 432.85 350.84 432.85H364.265V446.735C358.503 451.921 351.704 454.514 343.868 454.514C334.995 454.514 327.505 451.249 321.397 444.719C315.29 438.15 312.582 430.372 313.273 421.384C313.85 413.663 316.98 407.076 322.665 401.621C328.35 396.167 335.072 393.324 342.831 393.094C351.627 392.786 359.156 395.706 365.417 401.852C365.763 402.197 366.108 402.216 366.454 401.909L372.907 395.629C373.291 395.245 373.311 394.88 372.965 394.534C365.052 386.66 355.526 382.665 344.387 382.55C333.401 382.435 323.856 386.18 315.751 393.785C307.646 401.391 303.306 410.667 302.729 421.614C302.422 427.606 303.363 433.368 305.553 438.899C307.665 444.2 310.738 448.886 314.771 452.958C318.843 456.991 323.529 460.064 328.83 462.177C334.361 464.328 340.123 465.25 346.115 464.942C356.755 464.366 365.974 460.122 373.771 452.209L374.578 451.345C374.732 451.191 374.809 451.018 374.809 450.826V423.112C374.809 422.613 374.559 422.363 374.06 422.363H350.84ZM411.511 422.709L421.939 397.646L432.311 422.709H411.511ZM417.906 382.319C417.599 382.319 417.368 382.473 417.215 382.78L383.509 463.963C383.394 464.193 383.413 464.424 383.566 464.654C383.72 464.885 383.931 465 384.2 465H393.419C393.765 465 393.995 464.846 394.11 464.539L407.305 432.734H436.517L449.711 464.539C449.826 464.846 450.057 465 450.402 465H459.621C459.89 465 460.101 464.885 460.255 464.654C460.409 464.424 460.428 464.193 460.312 463.963L426.606 382.78C426.491 382.473 426.261 382.319 425.915 382.319H417.906ZM482.495 454.456V383.184C482.495 382.684 482.245 382.435 481.746 382.435H472.7C472.201 382.435 471.951 382.684 471.951 383.184V464.251C471.951 464.75 472.201 465 472.7 465H518.563C519.063 465 519.312 464.75 519.312 464.251V455.205C519.312 454.706 519.063 454.456 518.563 454.456H482.495ZM594.561 434.232C591.641 434.232 589.145 433.195 587.07 431.121C584.996 429.047 583.959 426.569 583.959 423.688C583.959 420.769 584.996 418.272 587.07 416.198C589.145 414.124 591.641 413.087 594.561 413.087C597.48 413.087 599.977 414.124 602.051 416.198C604.125 418.272 605.162 420.769 605.162 423.688C605.162 426.569 604.125 429.047 602.051 431.121C599.977 433.195 597.48 434.232 594.561 434.232ZM627.057 408.017C624.982 403.676 622.178 399.931 618.645 396.781C615.111 393.593 611.058 391.212 606.487 389.637C601.955 388.023 597.307 387.351 592.544 387.62C587.819 387.889 583.287 389.061 578.946 391.135C574.606 393.247 570.841 396.071 567.653 399.604C564.504 403.138 562.122 407.172 560.509 411.704C558.896 416.313 558.243 421.038 558.55 425.878C558.857 430.564 560.029 435.039 562.064 439.303C564.1 443.528 566.847 447.215 570.304 450.365C573.914 453.63 578.024 456.069 582.634 457.683C586.513 459.065 590.489 459.757 594.561 459.757C598.248 459.757 601.897 459.181 605.508 458.028C605.969 457.875 606.122 457.548 605.969 457.049L603.318 449.271C603.165 448.848 602.857 448.694 602.396 448.81C596.865 450.538 591.353 450.442 585.86 448.521C581.75 447.1 578.236 444.815 575.316 441.665C572.359 438.515 570.285 434.809 569.094 430.545C568.095 426.973 567.884 423.362 568.46 419.713C569.19 415.296 570.841 411.358 573.415 407.901C575.989 404.444 579.234 401.775 583.152 399.893C589.721 396.743 596.424 396.378 603.261 398.798C610.098 401.179 615.091 405.635 618.241 412.165C621.391 418.657 621.813 425.321 619.509 432.158L614.15 428.989C614.957 426.07 615.091 423.112 614.554 420.116C613.785 415.814 611.807 412.127 608.619 409.054C605.469 405.981 601.724 404.137 597.384 403.522C594.157 403.1 591.046 403.407 588.05 404.444C585.131 405.405 582.576 406.96 580.387 409.111C578.197 411.262 576.565 413.759 575.489 416.602C574.414 419.559 574.03 422.651 574.337 425.878C574.836 430.564 576.776 434.597 580.156 437.978C583.536 441.358 587.55 443.317 592.198 443.854C595.54 444.2 598.728 443.797 601.763 442.645C604.72 441.531 607.275 439.821 609.426 437.517L622.793 445.41C623.254 445.679 623.6 445.583 623.83 445.122L625.904 441.492C626.98 439.61 627.882 437.651 628.612 435.615C630.187 431.044 630.84 426.396 630.571 421.672C630.341 416.909 629.169 412.357 627.057 408.017ZM720.396 422.363C719.897 422.363 719.647 422.613 719.647 423.112V432.101C719.647 432.6 719.897 432.85 720.396 432.85H733.821V446.735C728.06 451.921 721.261 454.514 713.425 454.514C704.552 454.514 697.062 451.249 690.954 444.719C684.847 438.15 682.139 430.372 682.83 421.384C683.406 413.663 686.537 407.076 692.222 401.621C697.907 396.167 704.629 393.324 712.388 393.094C721.184 392.786 728.713 395.706 734.974 401.852C735.319 402.197 735.665 402.216 736.011 401.909L742.464 395.629C742.848 395.245 742.867 394.88 742.521 394.534C734.609 386.66 725.083 382.665 713.943 382.55C702.958 382.435 693.412 386.18 685.308 393.785C677.203 401.391 672.862 410.667 672.286 421.614C671.979 427.606 672.92 433.368 675.109 438.899C677.222 444.2 680.295 448.886 684.328 452.958C688.4 456.991 693.086 460.064 698.387 462.177C703.918 464.328 709.68 465.25 715.672 464.942C726.312 464.366 735.531 460.122 743.328 452.209L744.135 451.345C744.288 451.191 744.365 451.018 744.365 450.826V423.112C744.365 422.613 744.116 422.363 743.616 422.363H720.396ZM772.482 418.733V392.921H793.052C796.624 392.921 799.678 394.169 802.213 396.666C804.748 399.201 806.016 402.255 806.016 405.827C806.016 409.361 804.748 412.396 802.213 414.931C799.678 417.466 796.624 418.733 793.052 418.733H772.482ZM798.18 428.528C803.327 427.299 807.61 424.687 811.028 420.692C814.485 416.582 816.31 411.858 816.502 406.519C816.694 399.912 814.485 394.246 809.876 389.521C805.267 384.797 799.659 382.435 793.052 382.435H762.745C762.246 382.435 761.996 382.684 761.996 383.184V464.078C761.996 464.577 762.246 464.827 762.745 464.827H771.733C772.233 464.827 772.482 464.577 772.482 464.078V429.22H786.714L786.656 429.277L806.016 464.597C806.131 464.866 806.342 465 806.649 465H816.905C817.213 465 817.424 464.885 817.539 464.654C817.693 464.385 817.712 464.136 817.597 463.905L798.18 428.528ZM867.724 454.456C859.235 454.456 851.994 451.46 846.002 445.468C840.01 439.476 837.014 432.235 837.014 423.746C837.014 415.296 840.01 408.055 846.002 402.024C851.994 396.032 859.235 393.036 867.724 393.036C876.174 393.036 883.415 396.032 889.445 402.024C895.438 408.055 898.434 415.296 898.434 423.746C898.434 432.235 895.438 439.476 889.445 445.468C883.415 451.46 876.174 454.456 867.724 454.456ZM867.724 382.492C856.354 382.492 846.636 386.525 838.569 394.592C830.503 402.658 826.47 412.376 826.47 423.746C826.47 435.116 830.503 444.834 838.569 452.9C846.636 460.967 856.354 465 867.724 465C879.093 465 888.812 460.967 896.878 452.9C904.944 444.834 908.978 435.116 908.978 423.746C908.978 412.376 904.944 402.658 896.878 394.592C888.812 386.525 879.093 382.492 867.724 382.492ZM986.761 382.55C986.3 382.55 986.05 382.78 986.012 383.241L981.69 446.678L962.677 417.12C962.523 416.89 962.312 416.774 962.043 416.774H958.701C958.432 416.774 958.221 416.89 958.067 417.12L938.938 446.735L934.617 383.241C934.579 382.78 934.329 382.55 933.868 382.55H925.456C924.918 382.55 924.669 382.819 924.707 383.356L930.238 464.309C930.277 464.77 930.526 465 930.987 465H938.535C938.804 465 939.015 464.885 939.169 464.654L960.372 431.755L981.575 464.654C981.729 464.885 981.94 465 982.209 465H989.642C990.103 465 990.352 464.77 990.391 464.309L995.922 383.356C995.96 382.819 995.711 382.55 995.173 382.55H986.761ZM1007.04 382.492C1006.54 382.492 1006.29 382.742 1006.29 383.241V392.229C1006.29 392.729 1006.54 392.979 1007.04 392.979H1028.71V464.251C1028.71 464.75 1028.96 465 1029.46 465H1038.44C1038.94 465 1039.19 464.75 1039.19 464.251V392.979H1060.8C1061.3 392.979 1061.55 392.729 1061.55 392.229V383.241C1061.55 382.742 1061.3 382.492 1060.8 382.492H1007.04ZM1123.77 382.492C1123.28 382.492 1123.03 382.742 1123.03 383.241V418.33H1084.48V383.126C1084.48 382.627 1084.23 382.377 1083.73 382.377H1074.68C1074.19 382.377 1073.94 382.627 1073.94 383.126V464.136C1073.94 464.635 1074.19 464.885 1074.68 464.885H1083.73C1084.23 464.885 1084.48 464.635 1084.48 464.136V428.874H1123.03V464.251C1123.03 464.75 1123.28 465 1123.77 465H1132.82C1133.32 465 1133.57 464.75 1133.57 464.251V383.241C1133.57 382.742 1133.32 382.492 1132.82 382.492H1123.77ZM1231.75 422.709L1242.18 397.646L1252.55 422.709H1231.75ZM1238.14 382.319C1237.84 382.319 1237.61 382.473 1237.45 382.78L1203.75 463.963C1203.63 464.193 1203.65 464.424 1203.8 464.654C1203.96 464.885 1204.17 465 1204.44 465H1213.66C1214 465 1214.23 464.846 1214.35 464.539L1227.54 432.734H1256.75L1269.95 464.539C1270.06 464.846 1270.29 465 1270.64 465H1279.86C1280.13 465 1280.34 464.885 1280.49 464.654C1280.65 464.424 1280.67 464.193 1280.55 463.963L1246.84 382.78C1246.73 382.473 1246.5 382.319 1246.15 382.319H1238.14ZM1334.83 422.363C1334.33 422.363 1334.08 422.613 1334.08 423.112V432.101C1334.08 432.6 1334.33 432.85 1334.83 432.85H1348.25V446.735C1342.49 451.921 1335.69 454.514 1327.85 454.514C1318.98 454.514 1311.49 451.249 1305.38 444.719C1299.28 438.15 1296.57 430.372 1297.26 421.384C1297.84 413.663 1300.97 407.076 1306.65 401.621C1312.34 396.167 1319.06 393.324 1326.82 393.094C1335.61 392.786 1343.14 395.706 1349.4 401.852C1349.75 402.197 1350.09 402.216 1350.44 401.909L1356.89 395.629C1357.28 395.245 1357.3 394.88 1356.95 394.534C1349.04 386.66 1339.51 382.665 1328.37 382.55C1317.39 382.435 1307.84 386.18 1299.74 393.785C1291.63 401.391 1287.29 410.667 1286.72 421.614C1286.41 427.606 1287.35 433.368 1289.54 438.899C1291.65 444.2 1294.72 448.886 1298.76 452.958C1302.83 456.991 1307.52 460.064 1312.82 462.177C1318.35 464.328 1324.11 465.25 1330.1 464.942C1340.74 464.366 1349.96 460.122 1357.76 452.209L1358.56 451.345C1358.72 451.191 1358.79 451.018 1358.79 450.826V423.112C1358.79 422.613 1358.55 422.363 1358.05 422.363H1334.83ZM1377.17 382.492C1376.68 382.492 1376.43 382.742 1376.43 383.241V464.251C1376.43 464.75 1376.68 465 1377.17 465H1430.76C1431.26 465 1431.51 464.75 1431.51 464.251V455.263C1431.51 454.763 1431.26 454.514 1430.76 454.514H1386.91V428.989H1418.66C1419.16 428.989 1419.41 428.74 1419.41 428.24V419.252C1419.41 418.753 1419.16 418.503 1418.66 418.503H1386.91V392.979H1430.76C1431.26 392.979 1431.51 392.729 1431.51 392.229V383.241C1431.51 382.742 1431.26 382.492 1430.76 382.492H1377.17ZM1495.58 382.435C1495.08 382.435 1494.83 382.684 1494.83 383.184V441.838L1450.58 382.78C1450.43 382.55 1450.23 382.435 1450 382.435H1446.2C1445.7 382.435 1445.45 382.684 1445.45 383.184V464.251C1445.45 464.75 1445.7 465 1446.2 465H1454.73C1455.23 465 1455.48 464.75 1455.48 464.251V406L1499.44 464.712C1499.59 464.904 1499.78 465 1500.01 465H1504.11C1504.6 465 1504.85 464.75 1504.85 464.251V383.184C1504.85 382.684 1504.6 382.435 1504.11 382.435H1495.58ZM1579.01 449.847C1578.74 449.424 1578.39 449.347 1577.97 449.616C1572.94 452.881 1567.39 454.514 1561.32 454.514C1552.79 454.514 1545.51 451.46 1539.48 445.353C1533.41 439.245 1530.44 431.909 1530.55 423.343C1530.67 415.43 1533.45 408.554 1538.91 402.716C1544.4 396.877 1551.06 393.651 1558.9 393.036C1565.81 392.498 1572.15 394.092 1577.91 397.818C1578.34 398.087 1578.68 398.01 1578.95 397.588L1584.02 390.155C1584.29 389.733 1584.21 389.387 1583.79 389.118C1575.99 384.048 1567.41 381.878 1558.04 382.607C1547.82 383.414 1539.1 387.524 1531.88 394.938C1524.62 402.351 1520.7 411.166 1520.12 421.384C1519.47 433.253 1523.23 443.49 1531.42 452.094C1535.26 456.165 1539.71 459.315 1544.78 461.543C1550.05 463.848 1555.56 465 1561.32 465C1569.54 465 1577.05 462.772 1583.85 458.316C1584.27 458.048 1584.35 457.702 1584.08 457.279L1579.01 449.847ZM1637.95 382.55C1637.68 382.55 1637.47 382.665 1637.32 382.896L1619.17 411.762L1601.02 382.896C1600.9 382.665 1600.69 382.55 1600.38 382.55H1590.36C1590.05 382.55 1589.84 382.684 1589.72 382.953C1589.57 383.184 1589.57 383.433 1589.72 383.702L1614.15 422.594V464.251C1614.15 464.75 1614.4 465 1614.9 465H1623.43C1623.93 465 1624.18 464.75 1624.18 464.251V422.709L1648.67 383.702C1648.82 383.433 1648.82 383.184 1648.67 382.953C1648.51 382.684 1648.3 382.55 1648.03 382.55H1637.95Z" fill="#004052"></path> </svg> 