<svg width="800" height="800" viewBox="0 0 800 800" fill="none" xmlns="http://www.w3.org/2000/svg">
<g clip-path="url(#clip0_1_87)">
<path d="M800 0V675.438C770.078 673.768 737.969 726.167 710.703 717.19C654.453 698.715 674.844 616.568 638.828 600.494C575.234 571.894 592.188 706.335 494.688 745.268C387.813 774.286 304.453 650.179 283.203 730.655C267.188 791.404 235.781 819.064 173.203 785.663C104.688 749.13 100 680.866 0 752.679V0H800Z" fill="#226679"/>
<path d="M0 305.4C44.2 325 66 320.2 76 301.1C86.6 280.7 83.1 244.1 79.2 204.3C75 161 70.4 113.9 83.4 80.4C100.4 36.3 148.3 15.9 269.1 59.4C301.9 71.3 336.1 81.4 370.6 89C452.8 107.1 536.7 110.8 608 89.3C659.3 73.9 704 45.4 737.1 0" stroke="#FACC15" stroke-width="5" stroke-miterlimit="10"/>
<path d="M645.5 430.5L638.8 426.8L645.2 422.6C656.4 415.2 663.2 402.9 663.2 389.5C663.2 368.1 646.4 350.8 625.1 350L623.6 349.9C623.1 348.4 620.5 343.6 620.2 343.1C615.5 333.9 608.2 326.5 599.1 321.8L591.9 318L598.9 313.7C608.8 307.7 614.7 297.2 614.7 285.7C614.7 267.6 600 252.9 581.8 252.9C579.8 252.9 577.7 253.1 575.6 253.5L571.1 254.4L570.2 249.9C568 238.4 560.8 228.7 550.4 223.1L544.7 220L549.5 215.6C555.1 210.6 558.3 203.4 558.3 196C558.3 181.4 546.4 169.5 531.8 169.5C517.2 169.5 505.3 181.4 505.3 196C505.3 203.4 508.5 210.6 514.1 215.6L518.9 220L513.2 223.1C508.3 225.8 504.1 229.4 500.6 234L495.6 240.6L480.4 201.7C479.7 199.9 478 198.8 476.2 198.8H455.7C455.4 198.1 455.1 197.5 454.7 196.9L439 171.1C436.8 167.4 433.6 164.4 429.8 162.4L409.8 151.7L411.2 149.6C414.5 144.7 416.2 139.1 416.2 133.2C416.2 117.1 403.1 104 387.1 103.8C371.1 104 358 117 358 133.2C358 139 359.7 144.7 363 149.6L364.4 151.7L344.4 162.4C340.6 164.4 337.4 167.4 335.2 171.1L319.5 196.9C319.1 197.5 318.8 198.2 318.5 198.8H298C296.1 198.8 294.4 199.9 293.8 201.7L278.6 240.6L273.6 234C270.1 229.4 265.9 225.7 261 223.1L255.3 220L260.1 215.6C265.7 210.6 268.9 203.4 268.9 196C268.9 181.4 257 169.5 242.4 169.5C227.8 169.5 215.9 181.4 215.9 196C215.9 203.4 219.1 210.6 224.7 215.6L229.5 220L223.8 223.1C213.5 228.7 206.3 238.5 204 249.9L203.1 254.4L198.6 253.5C196.5 253.1 194.4 252.9 192.4 252.9C174.3 252.9 159.5 267.6 159.5 285.7C159.5 297.2 165.4 307.6 175.3 313.7L182.3 318L175.1 321.8C166 326.5 158.7 333.9 154 343.1C153.7 343.7 151.1 348.5 150.6 349.9L149.1 350C127.7 350.8 111 368.1 111 389.5C111 402.8 117.7 415.2 129 422.6L135.4 426.8L128.7 430.5C109.5 441 97.6 461.1 97.6 482.9V511.9C97.6 514.4 99.6 516.5 102.2 516.5C104.7 516.5 106.8 514.5 106.8 511.9V482.9C106.8 455 129.5 432.3 157.4 432.3C170.9 432.3 187.1 441.5 196.6 451L149.1 573C148.7 574.1 148.7 575.4 149.2 576.5C149.7 577.6 150.6 578.5 151.7 578.9C152.2 579.1 152.8 579.2 153.4 579.2C155.3 579.2 157 578.1 157.7 576.3L281.3 259.5L281.4 259.4C281.5 259.3 281.5 259.2 281.5 259L281.6 258.9L301.4 208H318L318.7 211.2L319.3 212.4C320.4 214.4 321.9 216 323.7 217.4L357 241.8C359 243.2 361.3 244 363.7 244C366.5 244 369.3 243 371.3 241.1C373.7 238.9 375.1 235.8 375.1 232.4C375.1 229.1 373.6 226 371.1 223.8L352 208L351.9 207.9H422.6L422.5 208L403.4 223.8C400.8 226 399.4 229.1 399.4 232.4C399.3 235.7 400.7 238.9 403.2 241.1C405.3 243 408 244 410.8 244C413.2 244 415.5 243.2 417.5 241.8L450.8 217.4C452.6 216 454.1 214.4 455.2 212.4L455.8 211.2L456.5 208H473L492.8 258.9L492.9 259C492.9 259.1 493 259.3 493 259.4L493.1 259.5L616.7 576.3C617.4 578.1 619.1 579.2 621 579.2C621.6 579.2 622.1 579.1 622.7 578.9C623.8 578.5 624.7 577.6 625.2 576.5C625.7 575.4 625.7 574.2 625.3 573L577.7 451C587.3 441.4 603.4 432.3 616.9 432.3C644.8 432.3 667.5 455 667.5 482.9V511.9C667.5 514.4 669.5 516.5 672.1 516.5C674.6 516.5 676.7 514.5 676.7 511.9V482.9C676.6 461.1 664.7 441 645.5 430.5ZM225.2 195.9C225.2 186.3 233 178.5 242.6 178.5C252.2 178.5 260 186.3 260 195.9C260 205.5 252.2 213.3 242.6 213.3C233 213.3 225.2 205.5 225.2 195.9ZM168.9 285.8C168.9 272.7 179.5 262.1 192.6 262.1C205.7 262.1 216.3 272.7 216.3 285.8C216.3 298.9 205.7 309.5 192.6 309.5C179.6 309.5 168.9 298.9 168.9 285.8ZM150.8 420C134 420 120.3 406.3 120.3 389.5C120.3 372.7 134 359 150.8 359C167.6 359 181.3 372.7 181.3 389.5C181.2 406.3 167.6 420 150.8 420ZM236.8 349.5L200.5 441.1L195.6 437C190.5 432.7 184.7 429.4 178.3 427L171.1 424.3L176.9 419.2C185.5 411.7 190.4 400.8 190.4 389.5C190.4 373.2 180.6 358.7 165.3 352.7L160.5 350.8L163 346.2C170 333.4 183.5 325.4 198.1 325.4C208.1 325.4 227.5 334.4 234.8 345.4C235.5 346.5 236.1 347.6 236.6 348.7C236.6 349 236.7 349.3 236.8 349.5C236.9 349.6 236.9 349.7 236.9 349.8C236.9 349.7 236.9 349.6 236.8 349.5ZM241 337.4L236 332.6C230.5 327.3 222.3 322.4 214.3 319.4L206.6 316.6L213.1 311.5C221.1 305.2 225.6 295.8 225.6 285.8C225.6 276.3 221.5 267.3 214.3 261.1L212.6 259.7L212.7 257.2C212.9 240.8 226.2 227.5 242.7 227.5C258.4 227.5 271.6 239.8 272.6 255.5L272.7 256.5L241 337.4ZM364 133.3C364 120.4 374.4 110 387.2 109.8C400 110 410.4 120.4 410.4 133.3C410.4 146.2 400 156.6 387.2 156.8C374.3 156.6 364 146.2 364 133.3ZM450.7 207.9C450.1 209.7 448.9 211.4 447.3 212.6L414 237C413 237.8 411.9 238.1 410.7 238.1C409.4 238.1 408.1 237.6 407 236.7C405.8 235.7 405.1 234.1 405.1 232.5C405.1 231.5 405.4 229.7 407 228.3L431.3 207.9L434.3 205.4C434.9 204.9 435.3 204.1 435.3 203.3C435.4 202.5 435.1 201.7 434.6 201.1L432.6 198.7L419.1 183C418.6 182.4 417.8 182 417 182C416.2 181.9 415.4 182.2 414.8 182.7C413.6 183.7 413.5 185.7 414.5 186.9L424.7 198.8H349.4L359.6 186.9C360.6 185.7 360.5 183.8 359.3 182.7C358.7 182.2 358 181.9 357.1 182C356.3 182.1 355.6 182.5 355 183L341.5 198.7L339.5 201.1C339 201.7 338.7 202.5 338.8 203.3C338.9 204.1 339.2 204.8 339.8 205.4L342.8 207.9L367.1 228.3C368.8 229.7 369 231.5 369 232.5C369 234.1 368.4 235.6 367.1 236.7C366.1 237.6 364.7 238.1 363.4 238.1C362.2 238.1 361.1 237.8 360.1 237L326.8 212.6C325.1 211.4 324 209.7 323.4 207.9C322.6 205.3 322.8 202.5 324.3 200L325 198.8L339.9 174.2C341.6 171.4 343.9 169.2 346.8 167.6L368.6 156.1L369.7 156.9C374.7 160.6 380.6 162.6 386.8 162.7C393 162.6 398.9 160.7 403.9 156.9L405 156.1L426.8 167.6C429.7 169.1 432 171.4 433.7 174.2L448.6 198.8L449.3 200C451.2 202.5 451.5 205.4 450.7 207.9ZM581.6 262.1C594.7 262.1 605.3 272.7 605.3 285.8C605.3 298.9 594.7 309.5 581.6 309.5C568.5 309.5 557.9 298.8 557.9 285.8C557.9 272.8 568.6 262.1 581.6 262.1ZM514.4 195.9C514.4 186.3 522.2 178.5 531.8 178.5C541.4 178.5 549.2 186.3 549.2 195.9C549.2 205.5 541.4 213.3 531.8 213.3C522.1 213.3 514.4 205.5 514.4 195.9ZM501.8 256.5L501.9 255.5C502.9 239.8 516 227.5 531.8 227.5C548.2 227.5 561.6 240.8 561.8 257.2L561.9 259.7L560.2 261.1C553 267.4 548.9 276.4 548.9 285.8C548.9 295.9 553.5 305.2 561.4 311.5L567.9 316.6L560.2 319.4C552.1 322.4 544 327.3 538.5 332.6L533.5 337.4L501.8 256.5ZM596 427C589.6 429.4 583.8 432.7 578.7 437L573.8 441.1L537.5 349.5C537.5 349.6 537.4 349.7 537.4 349.8C537.4 349.8 537.5 349.7 537.5 349.5C537.6 349.3 537.7 349 537.8 348.8C538.3 347.7 538.9 346.6 539.6 345.5C547 334.5 566.3 325.5 576.3 325.5C590.9 325.5 604.4 333.5 611.4 346.3L613.9 350.9L609.1 352.8C593.9 358.8 584 373.3 584 389.6C584 400.9 588.9 411.7 597.5 419.3L603.3 424.4L596 427ZM593.1 389.5C593.1 372.7 606.8 359 623.6 359C640.4 359 654.1 372.7 654.1 389.5C654.1 406.3 640.4 420 623.6 420C606.8 420 593.1 406.3 593.1 389.5Z" fill="white"/>
</g>
<defs>
<clipPath id="clip0_1_87">
<rect width="800" height="800" fill="white"/>
</clipPath>
</defs>
</svg>
