<svg width="800" height="800" viewBox="0 0 800 800" fill="none" xmlns="http://www.w3.org/2000/svg">
<g clip-path="url(#clip0_1_98)">
<path d="M800 0V675.438C770.078 673.768 737.969 726.167 710.703 717.19C654.453 698.715 674.844 616.568 638.828 600.494C575.234 571.894 592.188 706.335 494.688 745.268C387.813 774.286 304.453 650.179 283.203 730.655C267.188 791.404 235.781 819.064 173.203 785.663C104.688 749.13 100 680.866 0 752.679V0H800Z" fill="#226679"/>
<path d="M0 305.4C44.2 325 66 320.2 76 301.1C86.6 280.7 83.1 244.1 79.2 204.3C75 161 70.4 113.9 83.4 80.4C100.4 36.3 148.3 15.9 269.1 59.4C301.9 71.3 336.1 81.4 370.6 89C452.8 107.1 536.7 110.8 608 89.3C659.3 73.9 704 45.4 737.1 0" stroke="#FACC15" stroke-width="5" stroke-miterlimit="10"/>
<path d="M465.3 168.7H455.9V138.6C455.9 136 453.8 133.9 451.2 133.9H334.4C331.8 133.9 329.7 136 329.7 138.6V168.7H320.4C317.8 168.7 315.7 170.8 315.7 173.4V431.8C315.7 434.4 317.8 436.5 320.4 436.5C323 436.5 325.1 434.4 325.1 431.8V178.1H460.6V226.3H421C418.4 226.3 416.3 228.4 416.3 231C416.3 233.6 418.4 235.7 421 235.7H460.6V282.8H421C418.4 282.8 416.3 284.9 416.3 287.5C416.3 290.1 418.4 292.2 421 292.2H460.6V338H421C418.4 338 416.3 340.1 416.3 342.7C416.3 345.3 418.4 347.4 421 347.4H460.6V393.2H421C418.4 393.2 416.3 395.3 416.3 397.9C416.3 400.5 418.4 402.6 421 402.6H460.6V421.2C460.6 423.8 462.7 425.9 465.3 425.9C467.9 425.9 470 423.8 470 421.2V173.4C470.1 170.7 467.9 168.7 465.3 168.7ZM446.5 168.7H339.1V143.3H446.5V168.7Z" fill="white"/>
<path d="M395.1 231C395.1 233.6 393 235.7 390.4 235.7H380.9C378.3 235.7 376.2 233.6 376.2 231C376.2 228.4 378.3 226.3 380.9 226.3H390.4C393 226.3 395.1 228.5 395.1 231Z" fill="white"/>
<path d="M363.7 231C363.7 233.6 361.6 235.7 359 235.7H349.5C346.9 235.7 344.8 233.6 344.8 231C344.8 228.4 346.9 226.3 349.5 226.3H359C361.6 226.3 363.7 228.5 363.7 231Z" fill="white"/>
<path d="M395.1 287.5C395.1 290.1 393 292.2 390.4 292.2H380.9C378.3 292.2 376.2 290.1 376.2 287.5C376.2 284.9 378.3 282.8 380.9 282.8H390.4C393 282.8 395.1 284.9 395.1 287.5Z" fill="white"/>
<path d="M363.7 287.5C363.7 290.1 361.6 292.2 359 292.2H349.5C346.9 292.2 344.8 290.1 344.8 287.5C344.8 284.9 346.9 282.8 349.5 282.8H359C361.6 282.8 363.7 284.9 363.7 287.5Z" fill="white"/>
<path d="M395.1 342.7C395.1 345.3 393 347.4 390.4 347.4H380.9C378.3 347.4 376.2 345.3 376.2 342.7C376.2 340.1 378.3 338 380.9 338H390.4C393 338 395.1 340.1 395.1 342.7Z" fill="white"/>
<path d="M363.7 342.7C363.7 345.3 361.6 347.4 359 347.4H349.5C346.9 347.4 344.8 345.3 344.8 342.7C344.8 340.1 346.9 338 349.5 338H359C361.6 338 363.7 340.1 363.7 342.7Z" fill="white"/>
<path d="M395.1 397.9C395.1 400.5 393 402.6 390.4 402.6H380.9C378.3 402.6 376.2 400.5 376.2 397.9C376.2 395.3 378.3 393.2 380.9 393.2H390.4C393 393.2 395.1 395.3 395.1 397.9Z" fill="white"/>
<path d="M363.7 397.9C363.7 400.5 361.6 402.6 359 402.6H349.5C346.9 402.6 344.8 400.5 344.8 397.9C344.8 395.3 346.9 393.2 349.5 393.2H359C361.6 393.2 363.7 395.3 363.7 397.9Z" fill="white"/>
<path d="M202.7 590.7C202.7 593.3 200.6 595.4 198 595.4C194.7 595.4 191.3 595 188.2 594.2L185.1 593.4L183.1 595.9C177.3 603.1 168.6 607.4 159.3 607.4C151.9 607.4 144.8 604.7 139.3 599.9L136.8 597.6L133.7 599.1C129.4 601.3 124.7 602.4 119.9 602.4C103.2 602.4 89.6 588.8 89.6 572.1C89.6 559.5 97.1 548.4 108.8 543.9L111.8 542.8L112 539.6C112.9 527 123.4 517.3 135.9 517.3C136.1 517.3 136.4 517.3 136.7 517.3H136.9H137.1C137.2 517.3 137.3 517.3 137.4 517.3C139.7 517.3 141.8 519 142.1 521.3C142.1 521.5 142.1 521.7 142.1 522C142.1 523.3 141.6 524.6 140.7 525.5C139.7 526.4 138.4 526.9 137.1 526.8H137C136.7 526.8 136.2 526.8 135.9 526.8C127.9 526.8 121.4 533.4 121.4 541.3C121.4 542.6 121.6 544 122.1 545.3C122.5 546.6 122.3 548.1 121.4 549.2C120.6 550.4 119.3 551.2 117.9 551.3C107.2 552.3 99.1 561.2 99.1 572.1C99.1 583.6 108.4 593 120 593C125.4 593 130.5 590.9 134.4 587.2C135.4 586.2 136.8 585.8 138.2 585.9C139.6 586.1 140.8 586.9 141.6 588.1C145.4 594.3 152.1 597.9 159.3 597.9C167.6 597.9 175 593 178.4 585.3C178.9 584.1 179.8 583.2 181 582.8C182.2 582.4 183.5 582.4 184.6 582.9C188.9 584.9 193.2 585.9 197.8 585.9C200.5 586 202.7 588.1 202.7 590.7Z" fill="white"/>
<path d="M317.8 472.4C317.8 475.1 317.4 478 316.6 480.7C316.1 482.8 314.1 484.1 312.1 484.1C311.7 484.1 311.2 484 310.8 483.9C309.6 483.6 308.6 482.8 308 481.6C307.3 480.5 307.2 479.2 307.6 478C308.1 476.1 308.5 474.2 308.5 472.3C308.5 461.3 299.5 452.2 288.5 452.2C288 452.2 287.4 452.2 286.9 452.3C286.6 452.3 286.2 452.3 285.7 452.2L284.9 452.1H284.7C278.6 452.1 274.2 458.4 274.2 458.6C273.3 459.9 271.8 460.8 270.3 460.8C269.4 460.8 268.6 460.6 267.8 460C265.6 458.6 265 455.7 266.4 453.5C268.4 450.4 272.5 446.2 277.9 444.1L281.7 442.6L280.8 438.6C276.5 419.4 259.3 405.5 239.6 405.5C221.7 405.5 205.7 416.9 199.8 433.8L197.8 439.5L203.7 440.4C210.5 441.4 216.7 443.9 222.1 448.1C224.2 449.7 224.5 452.7 223 454.7C222.1 455.9 220.7 456.6 219.3 456.6C218.2 456.6 217.2 456.3 216.5 455.6C207.4 448.7 197.7 449.4 194.9 449.7L194.4 449.8L193.9 450C178 456.1 167.2 471.8 166.9 488.7C166.9 491.2 164.7 493.3 162.1 493.3C160.8 493.3 159.7 492.8 158.8 491.9C157.9 491 157.5 489.8 157.5 488.5C157.6 478.6 160.7 468.8 166.4 460.4L168.5 457.3L166.1 454.5C159.8 447 150.6 442.7 140.7 442.7C122.4 442.7 107.6 457.6 107.6 475.8C107.6 478.4 105.5 480.5 102.9 480.5C100.3 480.5 98.2 478.4 98.2 475.8C98.2 452.3 117.3 433.3 140.7 433.3C152.6 433.3 164 438.3 172.1 447.1L175.1 450.4L178.6 447.8C181.1 445.9 183.7 444.4 186.3 443.1L188.6 442L189 439.5C193.2 414.5 214.5 396.3 239.8 396.3C264.9 396.3 286.8 415 290.7 439.7L291.2 443.1L294.6 443.8C307.8 446.3 317.8 458.4 317.8 472.4Z" fill="white"/>
<path d="M313.6 557.8C313.6 560.4 311.5 562.5 308.9 562.5C302.3 562.5 295.9 560.8 290.3 557.6L287 555.7L284.4 558.3C277.4 565.1 268.1 568.9 258.3 568.9C246.3 568.9 234.9 563.1 227.9 553.4L225.9 550.6L222.6 551.6C218.1 552.9 213.4 553.6 208.7 553.6C206.7 553.6 204.8 553.5 202.5 553.2C201.3 553.1 200.1 552.4 199.3 551.5C198.5 550.5 198.2 549.3 198.3 548C198.6 545.4 200.9 543.6 203.5 543.8C205.5 544 207 544.1 208.6 544.1C214.7 544.1 220.6 542.8 226.2 540.3C227.3 539.8 228.7 539.8 229.8 540.2C231 540.6 232 541.5 232.4 542.7C236.9 553 247.1 559.6 258.2 559.6C267.9 559.6 276.9 554.6 282.1 546.3C282.9 545.1 284.1 544.3 285.5 544.1C286.9 543.9 288.3 544.4 289.3 545.4C294.5 550.4 301.4 553.3 308.8 553.3C311.6 553.1 313.6 555.3 313.6 557.8Z" fill="white"/>
<path d="M416.7 602.9L409.9 605.6C405.4 607.3 400.7 608.3 395.9 608.3C383.9 608.3 372.5 602.5 365.5 592.8L363.5 590.1L360.2 591.1C355.7 592.4 351 593.1 346.3 593.1C346 593.1 345.8 593.1 345.4 593.1H343L341.5 595C334.4 603.7 323.8 608.7 312.5 608.7C297.4 608.7 283.7 599.7 277.8 585.7C277.3 584.5 277.3 583.3 277.8 582.1C278.2 580.9 279.2 580 280.3 579.6C281.4 579.2 282.7 579.1 283.9 579.6C285.1 580 286 580.9 286.5 582.1C290.9 592.6 301.2 599.3 312.4 599.3C322.3 599.3 331.3 594.3 336.5 585.7C337.5 584.2 339.2 583.3 341.1 583.5C343.1 583.7 344.7 583.8 346.2 583.8C352.2 583.8 358.2 582.5 363.8 580C365 579.5 366.3 579.5 367.4 579.9C368.6 580.3 369.6 581.2 370 582.4C374.5 592.7 384.7 599.3 395.8 599.3C405.5 599.3 414.5 594.3 419.7 586C420.5 584.8 421.7 584 423.1 583.8C424.5 583.6 425.9 584.1 426.9 585.1C432.1 590.1 439.1 593 446.4 593C461.9 593 474.6 580.3 474.6 564.8C474.6 550.1 463.7 538.1 449.1 536.8C447.7 536.7 446.5 535.9 445.6 534.7C444.8 533.5 444.6 532.1 444.9 530.8C445.4 528.9 445.8 527.1 445.8 525.1C445.8 514.1 436.8 505.1 425.7 505.1C425.2 505.1 424.6 505.1 424.1 505.2C422.3 505.4 420.4 504.4 419.5 502.8C419.1 502.1 419 501.3 419 500.5V500.3V500.2C418.9 477 400 458.2 376.8 458.2C364.8 458.2 353.2 463.4 345.2 472.4C344.3 473.4 343.2 473.9 342 474C340.7 474.1 339.5 473.7 338.6 472.8C336.6 471.1 336.4 468.1 338.2 466.1C347.9 455.1 362 448.6 376.8 448.6C401.9 448.6 423.8 467.3 427.7 492.1L428.2 495.5L431.6 496.2C445 498.9 455 510.9 455.2 524.6V528.1L458.5 529.2C473.6 534.3 483.8 548.4 483.9 564.4V570.4L489.7 569.2C500 567.1 508.6 561 514.2 552.1L514.5 551.4C517.7 544.2 518.3 538.2 518.2 534.1L527.5 531.4C527.7 534.4 527.7 538.6 526.7 543.6L525.5 550.2L532.2 549.4C538.1 548.7 543.8 547.1 549.3 544.6C550.4 544.1 551.8 544.1 552.9 544.5C554.1 544.9 555.1 545.8 555.5 547C561.5 560.9 575.2 569.9 590.3 569.9C603.4 569.9 615.4 563.2 622.6 552C623.4 550.8 624.6 550 626 549.8C627.4 549.6 628.8 550.1 629.8 551.1C636.9 557.9 646.2 561.7 656 561.7C676.9 561.7 693.9 544.6 693.9 523.8C693.9 504.1 679.1 487.9 659.6 486.1C658.2 486 657 485.2 656.1 484C655.3 482.8 655.1 481.4 655.4 480.1C656.2 477.6 656.5 475 656.5 472.3C656.5 457.2 644.1 444.9 629.1 444.9C628.3 444.9 627.6 444.9 626.9 445H627C626.9 445 626.7 445 626.6 445H626.2L625.8 445.1C617.6 446.2 613 450.8 611 453.2L610.5 453.1C610.5 453.6 610.3 454.1 610.1 454.5L610 454.6C609.9 454.9 609.7 455.1 609.5 455.5C608.1 457.1 605.6 457.7 603.6 456.6C601.6 455.5 600.6 453.2 601.3 451C601.8 449.6 607.1 440.8 618.1 437L621.9 435.7L621.2 431.7C617 404.5 593.2 383.9 565.8 383.9C539.7 383.9 517.3 401.6 511.2 427.1L510 432L515 433C522.2 434.4 532.7 437.8 542.4 446.1C544.4 447.7 544.6 450.8 542.9 452.8C542 453.9 540.7 454.4 539.3 454.4C538.5 454.4 537.3 454.2 536.2 453.3C523.6 442.5 509.1 441.4 504.9 441.4C504.8 441.4 504.7 441.4 504.6 441.4C494 441.2 483.9 445.2 476.1 452.9C467.9 460.9 463.2 471.5 463.1 482.9C463.1 484.2 462.6 485.3 461.7 486.2C460.8 487.1 459.6 487.5 458.3 487.5C455.7 487.5 453.6 485.3 453.7 482.7C453.9 468.8 459.5 455.8 469.6 446.1C477.4 438.7 486.9 434 497.2 432.4L500.7 431.9L501.4 428.4C507 397.2 534.1 374.5 565.9 374.5C598.7 374.5 626.7 399 631 431.6L631.4 434.9L634.7 435.8C634.8 435.8 635 435.9 635.1 435.9L635.6 436C653.3 439.1 666.2 454.3 666.2 472.3C666.2 472.7 666.2 473.2 666.2 473.5L666.1 477.3L669.7 478.4C689.9 484.2 703.5 502.4 703.5 523.6C703.5 547.7 685.1 568.3 661.1 570.7C650.4 571.8 640 569.3 631 563.7L627.6 561.5L624.9 564.5C615.9 574 603.7 579.3 590.6 579.3C574.7 579.3 560 571.4 551.2 558.2L549.1 555.1L545.6 556.2C539.3 558.2 532.7 559.2 526.1 559.2C525.3 559.2 524.5 559.2 523.7 559.2L521.2 559.1L519.7 561.1C511.1 572.1 498.2 578.8 484.2 579.2L481.4 579.3L480.1 581.8C473.5 594.4 460.9 602.1 446.8 602.1C442 602.1 437.3 601.2 432.8 599.4L432 599.1C429.3 598 426.2 598.4 423.7 600C420.7 601.6 416.7 602.8 416.7 602.9Z" fill="white"/>
<path d="M292.7 364.3C292.7 366.9 290.6 369 288 369C285.4 369 283.3 366.9 283.3 364.3C283.3 351.7 270.2 341.4 254.2 341.4C247.1 341.4 240.3 343.5 235 347.2C233.7 348.1 232.2 348.3 230.6 347.7C229.2 347.2 228.1 346 227.6 344.4C223.7 329.1 209.7 318.4 193.5 318.4C176.3 318.4 161.4 330.9 158.7 347.4C158.4 349.1 157.2 350.6 155.5 351.1C153.9 351.6 152 351.2 150.7 350C145.1 344.4 136.8 341.3 127.8 341.3C111.7 341.3 98.7 351.6 98.7 364.2C98.7 366.8 96.6 368.9 94 368.9C91.4 368.9 89.3 366.8 89.3 364.2C89.3 346.4 106.6 331.9 127.8 331.9C134.4 331.9 140.9 333.3 146.6 336.1L151 338.2L153.1 333.8C160.5 318.5 176 309.1 193.3 309.1C209.9 309.1 225 318.1 232.8 332.4L234.8 336.1L238.7 334.7C243.5 333 248.6 332.1 253.9 332.1C275.5 332 292.7 346.4 292.7 364.3Z" fill="white"/>
<path d="M694.5 364.3C694.5 366.9 692.4 369 689.8 369C687.2 369 685.1 366.9 685.1 364.3C685.1 351.7 672.1 341.4 656 341.4C648.9 341.4 642.1 343.5 636.8 347.2C635.5 348.1 634 348.3 632.4 347.7C631 347.2 629.9 346 629.4 344.4C625.5 329.1 611.5 318.4 595.3 318.4C578.1 318.4 563.2 330.9 560.5 347.4C560.2 349.1 559 350.6 557.3 351.1C555.7 351.6 553.8 351.2 552.5 350C546.9 344.4 538.6 341.3 529.6 341.3C513.5 341.3 500.5 351.6 500.5 364.2C500.5 366.8 498.4 368.9 495.8 368.9C493.2 368.9 491.1 366.8 491.1 364.2C491.1 346.4 508.4 331.9 529.6 331.9C536.2 331.9 542.7 333.3 548.4 336.1L552.8 338.2L554.9 333.8C562.3 318.5 577.8 309.1 595.1 309.1C611.7 309.1 626.8 318.1 634.6 332.4L636.6 336.1L640.6 334.7C645.4 333 650.5 332.1 655.8 332.1C677.3 332 694.5 346.4 694.5 364.3Z" fill="white"/>
</g>
<defs>
<clipPath id="clip0_1_98">
<rect width="800" height="800" fill="white"/>
</clipPath>
</defs>
</svg>
