<?xml version="1.0" encoding="utf-8"?>
<!-- Generator: Adobe Illustrator 25.3.1, SVG Export Plug-In . SVG Version: 6.00 Build 0)  -->
<svg version="1.1" id="Layer_1" xmlns="http://www.w3.org/2000/svg" xmlns:xlink="http://www.w3.org/1999/xlink" x="0px" y="0px"
	 viewBox="0 0 1024 768" style="enable-background:new 0 0 1024 768;" xml:space="preserve">
<style type="text/css">
	.st0{fill:#075985;}
	.st1{fill:#FFDE16;stroke:#000000;stroke-miterlimit:10;}
	.st2{fill:none;stroke:#FACC15;stroke-width:5;stroke-miterlimit:10;}
	.st3{fill:#FFFFFF;}
	.st4{opacity:0.12;}
	.st5{fill:none;}
</style>
<path class="st0" d="M1024,0v647.1c-38.3-1.6-79.4,48.6-114.3,40c-72-17.7-45.9-96.4-92-111.8C736.3,547.9,758,676.7,633.2,714
	c-136.8,27.8-243.5-91.1-270.7-14c-20.5,58.2-60.7,84.7-140.8,52.7C134,717.7,128,652.3,0,721.1V0H1024z"/>
<path class="st1" d="M717.1-512.5"/>
<path class="st1" d="M952.9-512.1"/>
<path class="st2" d="M0,305.4c44.2,19.6,66,14.8,76-4.3c10.6-20.4,7.1-57,3.2-96.8C75,161,70.4,113.9,83.4,80.4
	c17-44.1,64.9-64.5,185.7-21c32.8,11.9,67,22,101.5,29.6c82.2,18.1,166.1,21.8,237.4,0.3C659.3,73.9,704,45.4,737.1,0"/>
<path class="st1" d="M419.2-298.8"/>
<path class="st1" d="M422.1-394"/>
<path class="st1" d="M426.4-519.1"/>
<path class="st1" d="M616-541.9"/>
<g>
	<path class="st3" d="M649.1,431.3l-258,138c-1,0.5-2.2,0.6-3.2,0.1l-154-65.9c-1.9-0.8-2.8-3-2-4.9c0.6-1.4,2-2.2,3.4-2.2
		c0.5,0,1,0.1,1.5,0.3l152.4,65.2l256.4-137.2c1.8-1,4.1-0.3,5,1.5C651.6,428.1,650.9,430.3,649.1,431.3z"/>
	<path class="st3" d="M649.1,463.1l-258,138c-1,0.5-2.2,0.6-3.2,0.1l-154-65.9c-1.9-0.8-2.8-3-2-4.9c0.6-1.4,2-2.2,3.4-2.2
		c0.5,0,1,0.1,1.5,0.3l152.4,65.2l256.4-137.2c1.8-1,4.1-0.3,5,1.5C651.6,459.9,650.9,462.2,649.1,463.1z"/>
	<path class="st3" d="M650.9,492.8c-0.3,1-0.9,1.7-1.8,2.2l-258,138c-1,0.5-2.2,0.6-3.2,0.1l-154-65.9c-1.9-0.8-2.8-3-2-4.9
		c0.6-1.4,2-2.2,3.4-2.2c0.5,0,1,0.1,1.5,0.3l152.4,65.2l256.4-137.2c1.8-1,4.1-0.3,5,1.5C651.1,490.9,651.2,491.9,650.9,492.8z"/>
	<path class="st3" d="M649.1,399.4l-258,138c-1,0.5-2.2,0.6-3.2,0.1l-154-65.9c-1.9-0.8-2.8-3-2-4.9c0.6-1.4,2-2.2,3.4-2.2
		c0.5,0,1,0.1,1.5,0.3L389.2,530l256.4-137.2c1.8-1,4.1-0.3,5,1.5C651.6,396.2,650.9,398.5,649.1,399.4z"/>
	<path class="st3" d="M648.8,360.9l-154-65.9c-1-0.4-2.2-0.4-3.2,0.1l-66.2,35.4v-114c0-0.3,0-0.6-0.2-1l-0.1-0.3v-0.3
		c-1.4-18.1-26.9-32.3-58.1-32.3c-32.6,0-58.2,14.9-58.2,33.9V328l-4.2-0.9c-6.6-1.5-13.6-2.2-20.8-2.2c-32.6,0-58.2,14.9-58.2,33.9
		c0,3.7,1,7.3,3,10.8l3.7,6.6l-7.4-1.4c-5.9-1.1-12-1.7-18.3-1.7c-32.6,0-58.2,14.9-58.2,33.9v129.9c0,19,25.6,33.9,58.2,33.9
		c2,0,3.7-1.7,3.7-3.7s-1.7-3.7-3.7-3.7c-30.4,0-50.7-13.7-50.7-26.5v-14.3l5.5,4c11,7.9,27.5,12.5,45.2,12.5c2,0,3.7-1.7,3.7-3.7
		s-1.7-3.7-3.7-3.7c-30.4,0-50.7-13.7-50.7-26.5V490l5.5,4c11,7.9,27.5,12.5,45.2,12.5c2,0,3.7-1.7,3.7-3.7s-1.7-3.7-3.7-3.7
		c-30.4,0-50.7-13.7-50.7-26.5v-15.2l5.5,4c11,7.9,27.5,12.5,45.2,12.5c2,0,3.7-1.7,3.7-3.7c0-2.1-1.7-3.7-3.7-3.7
		c-30.4,0-50.7-13.7-50.7-26.5v-15.2l5.5,4c11,7.9,27.5,12.5,45.2,12.5c8,0,15.7-0.9,23-2.7l1.9-0.5l1.4,1.4
		c0.3,0.3,0.7,0.6,1.1,0.8l154,65.9c1,0.4,2.2,0.4,3.2-0.1l258-138c1.2-0.7,2-2,1.9-3.4C651,362.7,650.1,361.4,648.8,360.9z
		 M367,190.1c30.3,0,50.7,13.7,50.7,26.5s-20.4,26.5-50.7,26.5c-30.4,0-50.7-13.7-50.7-26.5S336.7,190.1,367,190.1z M316.3,234
		l5.5,4c11,7.9,27.5,12.5,45.2,12.5c17.8,0,34.4-4.6,45.4-12.6l5.6-4v16l-0.1,0.4c-0.1,0.3-0.1,0.6-0.1,0.9
		c0,12.8-20.4,26.5-50.7,26.5c-30.4,0-50.7-13.7-50.7-26.5L316.3,234L316.3,234z M316.3,268.5l5.5,4c11,7.9,27.5,12.5,45.2,12.5
		c17.8,0,34.4-4.6,45.4-12.6l5.6-4V282l-0.1,0.4c-0.1,0.3-0.1,0.6-0.1,0.8c0,12.8-20.4,26.5-50.7,26.5c-30.4,0-50.7-13.7-50.7-26.5
		L316.3,268.5L316.3,268.5z M316.3,300.7l5.5,4c11,7.9,27.5,12.5,45.2,12.5c17.8,0,34.4-4.6,45.4-12.6l5.6-4v13.7l-0.1,0.4
		c-0.1,0.3-0.1,0.6-0.1,0.8c0,12.8-20.4,26.5-50.7,26.5c-30.4,0-50.7-13.7-50.7-26.5L316.3,300.7L316.3,300.7z M340.5,351.4
		l-2.3-6.2l6.4,1.5c7.1,1.7,14.6,2.6,22.4,2.6c3.2,0,6.5-0.2,9.8-0.5l17.4-1.7l-60.9,32.6l5.8-10.4c1.9-3.4,2.9-7,2.9-10.6
		C341.9,356.3,341.4,353.9,340.5,351.4z M283.7,332.3c9.3,0,18.1,1.3,26.1,3.9l0.4,0.1l0.4,0.2c0.4,0.3,0.9,0.4,1.5,0.5l0.4,0.1
		l0.4,0.1c13.3,5,21.6,13.3,21.6,21.5c0,12.8-20.4,26.5-50.7,26.5c-30.4,0-50.7-13.7-50.7-26.5C233,346,253.4,332.3,283.7,332.3z
		 M261.8,396.2l-3.7-6.6l7.4,1.4c5.9,1.1,12,1.7,18.3,1.7c4.2,0,8.4-0.3,12.5-0.8l18.7-2.3l-51.6,27.6l1.1-7
		c0.2-1.1,0.3-2.2,0.3-3.3C264.7,403.3,263.7,399.6,261.8,396.2z M206.6,433.4c-30.4,0-50.7-13.7-50.7-26.5s20.4-26.5,50.7-26.5
		s50.7,13.7,50.7,26.5S236.9,433.4,206.6,433.4z M389.2,498.2L243.9,436l249.6-133.5l145.3,62.2L389.2,498.2z"/>
	<path class="st3" d="M574.9,377.1c0,1-0.5,2-1.4,2.5L520.3,408c-1.3,0.7-3,0.2-3.6-1.1c-0.3-0.6-0.4-1.3-0.2-2s0.7-1.2,1.3-1.6
		l48.4-25.9l-1.9-3.2c-0.7-1.2-1.1-2.5-1.2-3.8c0-1.1,0.1-2.8,1.1-4.6l1.9-3.4l-61-26.1l-1.4,0.6c-8.4,3.5-20.1,4.2-28.5,1.6
		l-1.4-0.4l-52,27.8c-1.3,0.7-2.9,0.2-3.6-1.1c-0.3-0.6-0.4-1.4-0.2-2c0.2-0.7,0.7-1.2,1.3-1.6l53.2-28.5c0.7-0.4,1.6-0.4,2.3-0.1
		c7.8,3.3,21,2.6,28.9-1.6c0.7-0.4,1.6-0.4,2.3-0.1l67.3,28.8c0.9,0.4,1.6,1.3,1.6,2.4c0,1-0.5,2-1.4,2.5c-2.4,1.3-3.7,2.6-4.3,3.4
		l-1.8,2.4l2.1,2.1c0.8,0.9,2,1.6,3.6,2.3C574.2,375.2,574.8,376.1,574.9,377.1z"/>
	<path class="st3" d="M467,435.7c-0.2,0.7-0.7,1.2-1.3,1.6l-53.3,28.5c-0.7,0.4-1.6,0.4-2.3,0.1c-7.8-3.3-21-2.6-28.9,1.6
		c-0.7,0.4-1.6,0.4-2.3,0.1l-67.3-28.8c-0.9-0.4-1.6-1.3-1.6-2.3s0.5-2,1.4-2.5c2.4-1.3,3.7-2.6,4.3-3.4l1.8-2.4l-2.1-2.1
		c-0.8-0.8-2-1.6-3.6-2.3c-0.9-0.4-1.6-1.3-1.6-2.4c-0.1-1,0.5-2,1.4-2.5l53.3-28.5c0.4-0.2,0.8-0.3,1.3-0.3c0.3,0,0.5,0,0.8,0.1
		c0.7,0.2,1.2,0.7,1.6,1.3c0.3,0.6,0.4,1.4,0.2,2c-0.2,0.7-0.7,1.2-1.3,1.6l-48.6,26l1.9,3.2c0.7,1.2,1.1,2.5,1.2,3.8
		c0,1.1-0.1,2.7-1.2,4.6l-1.9,3.4l61,26.1l1.4-0.6c8.4-3.5,20.1-4.2,28.5-1.6l1.4,0.4l52.2-27.9c0.6-0.3,1.4-0.4,2-0.2
		c0.7,0.2,1.2,0.7,1.6,1.3C467.1,434.3,467.2,435,467,435.7z"/>
	<path class="st3" d="M264.4,139.7v6.4c0,2-1.7,3.7-3.7,3.7s-3.7-1.7-3.7-3.7v-6.4c0-2,1.7-3.7,3.7-3.7S264.4,137.6,264.4,139.7z"/>
	<path class="st3" d="M264.4,183.8v6.4c0,2-1.7,3.7-3.7,3.7s-3.7-1.7-3.7-3.7v-6.4c0-2.1,1.7-3.7,3.7-3.7S264.4,181.8,264.4,183.8z"
		/>
	<path class="st3" d="M245.5,165c0,2.1-1.7,3.7-3.7,3.7h-6.4c-2,0-3.7-1.7-3.7-3.7s1.7-3.7,3.7-3.7h6.4
		C243.9,161.3,245.5,162.9,245.5,165z"/>
	<path class="st3" d="M289.7,165c0,2.1-1.7,3.7-3.7,3.7h-6.4c-2,0-3.7-1.7-3.7-3.7s1.7-3.7,3.7-3.7h6.4
		C288,161.3,289.7,162.9,289.7,165z"/>
	<path class="st3" d="M534,200.5v6.4c0,2.1-1.7,3.7-3.7,3.7s-3.7-1.7-3.7-3.7v-6.4c0-2,1.7-3.7,3.7-3.7S534,198.4,534,200.5z"/>
	<path class="st3" d="M534,244.6v6.4c0,2-1.7,3.7-3.7,3.7s-3.7-1.7-3.7-3.7v-6.4c0-2,1.7-3.7,3.7-3.7
		C532.3,240.9,534,242.6,534,244.6z"/>
	<path class="st3" d="M515.1,225.8c0,2-1.7,3.7-3.7,3.7H505c-2,0-3.7-1.7-3.7-3.7c0-2.1,1.7-3.7,3.7-3.7h6.4
		C513.5,222.1,515.1,223.7,515.1,225.8z"/>
	<path class="st3" d="M559.3,225.8c0,2-1.7,3.7-3.7,3.7h-6.4c-2.1,0-3.7-1.7-3.7-3.7c0-2.1,1.7-3.7,3.7-3.7h6.4
		C557.6,222.1,559.3,223.7,559.3,225.8z"/>
	<path class="st3" d="M185,247.8v6.4c0,2.1-1.7,3.7-3.7,3.7c-2.1,0-3.7-1.7-3.7-3.7v-6.4c0-2,1.7-3.7,3.7-3.7S185,245.7,185,247.8z"
		/>
	<path class="st3" d="M185,291.9v6.4c0,2-1.7,3.7-3.7,3.7c-2.1,0-3.7-1.7-3.7-3.7v-6.4c0-2,1.7-3.7,3.7-3.7
		C183.3,288.2,185,289.9,185,291.9z"/>
	<path class="st3" d="M166.1,273.1c0,2-1.7,3.7-3.7,3.7H156c-2,0-3.7-1.7-3.7-3.7s1.7-3.7,3.7-3.7h6.4
		C164.5,269.4,166.1,271,166.1,273.1z"/>
	<path class="st3" d="M210.3,273.1c0,2-1.7,3.7-3.7,3.7h-6.4c-2,0-3.7-1.7-3.7-3.7s1.7-3.7,3.7-3.7h6.4
		C208.6,269.4,210.3,271,210.3,273.1z"/>
	
		<ellipse transform="matrix(0.3827 -0.9239 0.9239 0.3827 -67.5704 393.4642)" class="st3" cx="260.7" cy="247.3" rx="5.7" ry="5.7"/>
	<ellipse class="st3" cx="598.5" cy="283.3" rx="5.7" ry="5.7"/>
</g>
<g>
	<path class="st3" d="M441.4,373.6c-22.2,0-40.7,9.7-42.7,22.5c-0.8,5.4,1.4,10.6,5.8,14.9l-6.4,3.7l3,4.1l7.7-4.4
		c0.8,0.5,1.6,1,2.4,1.5s1.7,0.9,2.6,1.4l-5.6,3.2l3,4.1l8.5-4.9c5.3,1.8,11.3,3,17.8,3.3c23.6,1.3,44.4-8.8,46.5-22.4l-7.1-4.1
		c0.2,1.2,0.2,2.4,0,3.6c-1.7,11.4-18.9,19.8-38.6,18.8c-4.8-0.2-9.4-1-13.4-2.3l33.4-19.4l-3-4.1l-36.6,21.2
		c-0.9-0.4-1.8-0.9-2.6-1.4c-0.9-0.5-1.7-1-2.4-1.5l38.6-22.5l-3-4.1L409.8,408c-3.1-3.4-4.6-7.3-4-11.4
		c1.7-11.4,18.9-19.8,38.6-18.8L441.4,373.6"/>
</g>
<g>
	<g class="st4">
		<rect x="812.7" y="36.4" width="115.8" height="25.7"/>
		<path d="M960.3,267.5v25.9c-65.8,2-128.9,25.1-179.6,66.5C825.8,306.2,890.3,273.5,960.3,267.5z"/>
		<path d="M921.8,113.5v143.2c-8.7,2.5-17.2,5.4-25.6,8.9V139.2h-12.8v132.2c-8.8,4.3-17.4,9.2-25.6,14.7V139.2h-12.8v156.1
			c-9.2,7-17.7,14.6-25.6,22.8V113.5H921.8z"/>
		<path d="M986.4,113.9c0,21.5-17.4,38.9-38.8,38.9v-25.7c7.3,0,13.2-5.9,13.2-13.2s-5.9-13.2-13.2-13.2H793.6
			c-7.3,0-13.2,5.9-13.2,13.2s5.9,13.2,13.2,13.2v25.7c-21.5,0-38.8-17.4-38.8-38.9S772.1,75,793.6,75c94.3,0,59.6,0,153.9,0
			C969,74.9,986.4,92.4,986.4,113.9z"/>
	</g>
	<rect x="717.1" class="st5" width="306.9" height="396.3"/>
</g>
</svg>
