<svg width="60" height="60" viewBox="0 0 60 60" fill="none" xmlns="http://www.w3.org/2000/svg">
<rect width="60" height="60" rx="30" fill="#EAB308"/>
<path d="M41.0979 44H22.2564V21.4502L33.9424 9L35.8054 10.4801C35.9747 10.6252 36.1088 10.8429 36.2076 11.1331C36.3064 11.4233 36.3558 11.7716 36.3558 12.1779V12.5261L34.4928 21.4502H47.0256C47.7877 21.4502 48.4652 21.7477 49.0579 22.3427C49.6507 22.9376 49.9471 23.6269 49.9471 24.4104V27.5012C49.9471 27.7044 49.9612 27.9221 49.9894 28.1542C50.0176 28.3864 49.9894 28.6041 49.9047 28.8072L44.5275 41.6057C44.2452 42.2732 43.7865 42.8391 43.1514 43.3035C42.5163 43.7678 41.8318 44 41.0979 44ZM25.0509 41.0398H41.6483L47.0256 27.9801V24.4104H31.0209L33.1802 13.9627L25.0509 22.7998V41.0398ZM25.0509 22.7998V41.0398V22.7998ZM22.2564 21.4502V24.4104H16.8792V41.0398H22.2564V44H14V21.4502H22.2564Z" fill="white"/>
</svg>
